G04 #@! TF.GenerationSoftware,KiCad,Pcbnew,(5.1.4)-1*
G04 #@! TF.CreationDate,2019-11-28T08:00:12+01:00*
G04 #@! TF.ProjectId,simpleMotor,73696d70-6c65-44d6-9f74-6f722e6b6963,rev?*
G04 #@! TF.SameCoordinates,Original*
G04 #@! TF.FileFunction,Copper,L1,Top*
G04 #@! TF.FilePolarity,Positive*
%FSLAX46Y46*%
G04 Gerber Fmt 4.6, Leading zero omitted, Abs format (unit mm)*
G04 Created by KiCad (PCBNEW (5.1.4)-1) date 2019-11-28 08:00:12*
%MOMM*%
%LPD*%
G04 APERTURE LIST*
%ADD10C,0.300000*%
%ADD11C,0.635000*%
%ADD12O,2.540000X1.650000*%
%ADD13R,1.700000X1.700000*%
%ADD14O,1.700000X1.700000*%
%ADD15C,0.100000*%
%ADD16C,1.000000*%
%ADD17C,1.500000*%
%ADD18C,0.875000*%
%ADD19C,3.500000*%
%ADD20C,1.700000*%
%ADD21C,3.500120*%
%ADD22C,2.000000*%
%ADD23R,4.500000X4.500000*%
%ADD24C,0.800000*%
%ADD25C,0.304800*%
%ADD26C,2.540000*%
%ADD27C,3.302000*%
%ADD28C,0.254000*%
%ADD29C,1.016000*%
%ADD30C,1.524000*%
G04 APERTURE END LIST*
D10*
X138477857Y-152459571D02*
X138477857Y-153459571D01*
X138120714Y-151888142D02*
X137763571Y-152959571D01*
X138692142Y-152959571D01*
X139477857Y-152602428D02*
X139335000Y-152531000D01*
X139263571Y-152459571D01*
X139192142Y-152316714D01*
X139192142Y-152245285D01*
X139263571Y-152102428D01*
X139335000Y-152031000D01*
X139477857Y-151959571D01*
X139763571Y-151959571D01*
X139906428Y-152031000D01*
X139977857Y-152102428D01*
X140049285Y-152245285D01*
X140049285Y-152316714D01*
X139977857Y-152459571D01*
X139906428Y-152531000D01*
X139763571Y-152602428D01*
X139477857Y-152602428D01*
X139335000Y-152673857D01*
X139263571Y-152745285D01*
X139192142Y-152888142D01*
X139192142Y-153173857D01*
X139263571Y-153316714D01*
X139335000Y-153388142D01*
X139477857Y-153459571D01*
X139763571Y-153459571D01*
X139906428Y-153388142D01*
X139977857Y-153316714D01*
X140049285Y-153173857D01*
X140049285Y-152888142D01*
X139977857Y-152745285D01*
X139906428Y-152673857D01*
X139763571Y-152602428D01*
X141477857Y-153459571D02*
X140620714Y-153459571D01*
X141049285Y-153459571D02*
X141049285Y-151959571D01*
X140906428Y-152173857D01*
X140763571Y-152316714D01*
X140620714Y-152388142D01*
X142192142Y-153459571D02*
X142477857Y-153459571D01*
X142620714Y-153388142D01*
X142692142Y-153316714D01*
X142835000Y-153102428D01*
X142906428Y-152816714D01*
X142906428Y-152245285D01*
X142835000Y-152102428D01*
X142763571Y-152031000D01*
X142620714Y-151959571D01*
X142335000Y-151959571D01*
X142192142Y-152031000D01*
X142120714Y-152102428D01*
X142049285Y-152245285D01*
X142049285Y-152602428D01*
X142120714Y-152745285D01*
X142192142Y-152816714D01*
X142335000Y-152888142D01*
X142620714Y-152888142D01*
X142763571Y-152816714D01*
X142835000Y-152745285D01*
X142906428Y-152602428D01*
D11*
X137900228Y-150372838D02*
X137900228Y-147274038D01*
X139670971Y-150372838D02*
X138342914Y-148602095D01*
X139670971Y-147274038D02*
X137900228Y-149044780D01*
X141589276Y-147274038D02*
X142179523Y-147274038D01*
X142474647Y-147421600D01*
X142769771Y-147716723D01*
X142917333Y-148306971D01*
X142917333Y-149339904D01*
X142769771Y-149930152D01*
X142474647Y-150225276D01*
X142179523Y-150372838D01*
X141589276Y-150372838D01*
X141294152Y-150225276D01*
X140999028Y-149930152D01*
X140851466Y-149339904D01*
X140851466Y-148306971D01*
X140999028Y-147716723D01*
X141294152Y-147421600D01*
X141589276Y-147274038D01*
D12*
X165100000Y-142240000D03*
X165100000Y-139700000D03*
X165100000Y-137160000D03*
X165100000Y-134620000D03*
X165100000Y-132080000D03*
X165100000Y-129540000D03*
X165100000Y-127000000D03*
X165100000Y-124460000D03*
X165100000Y-121920000D03*
X165100000Y-119380000D03*
X165100000Y-116840000D03*
X165100000Y-114300000D03*
X165100000Y-111760000D03*
X165100000Y-109220000D03*
X165100000Y-106680000D03*
X149860000Y-142240000D03*
X149860000Y-139700000D03*
X149860000Y-137160000D03*
X149860000Y-134620000D03*
X149860000Y-132080000D03*
X149860000Y-129540000D03*
X149860000Y-127000000D03*
X149860000Y-124460000D03*
X149860000Y-121920000D03*
X149860000Y-119380000D03*
X149860000Y-116840000D03*
X149860000Y-114300000D03*
X149860000Y-111760000D03*
X149860000Y-109220000D03*
X149860000Y-106680000D03*
D13*
X151130000Y-104140000D03*
D14*
X153670000Y-104140000D03*
X156210000Y-104140000D03*
X158750000Y-104140000D03*
X161290000Y-104140000D03*
X163830000Y-104140000D03*
D15*
G36*
X163754504Y-98891204D02*
G01*
X163778773Y-98894804D01*
X163802571Y-98900765D01*
X163825671Y-98909030D01*
X163847849Y-98919520D01*
X163868893Y-98932133D01*
X163888598Y-98946747D01*
X163906777Y-98963223D01*
X163923253Y-98981402D01*
X163937867Y-99001107D01*
X163950480Y-99022151D01*
X163960970Y-99044329D01*
X163969235Y-99067429D01*
X163975196Y-99091227D01*
X163978796Y-99115496D01*
X163980000Y-99140000D01*
X163980000Y-102140000D01*
X163978796Y-102164504D01*
X163975196Y-102188773D01*
X163969235Y-102212571D01*
X163960970Y-102235671D01*
X163950480Y-102257849D01*
X163937867Y-102278893D01*
X163923253Y-102298598D01*
X163906777Y-102316777D01*
X163888598Y-102333253D01*
X163868893Y-102347867D01*
X163847849Y-102360480D01*
X163825671Y-102370970D01*
X163802571Y-102379235D01*
X163778773Y-102385196D01*
X163754504Y-102388796D01*
X163730000Y-102390000D01*
X163230000Y-102390000D01*
X163205496Y-102388796D01*
X163181227Y-102385196D01*
X163157429Y-102379235D01*
X163134329Y-102370970D01*
X163112151Y-102360480D01*
X163091107Y-102347867D01*
X163071402Y-102333253D01*
X163053223Y-102316777D01*
X163036747Y-102298598D01*
X163022133Y-102278893D01*
X163009520Y-102257849D01*
X162999030Y-102235671D01*
X162990765Y-102212571D01*
X162984804Y-102188773D01*
X162981204Y-102164504D01*
X162980000Y-102140000D01*
X162980000Y-99140000D01*
X162981204Y-99115496D01*
X162984804Y-99091227D01*
X162990765Y-99067429D01*
X162999030Y-99044329D01*
X163009520Y-99022151D01*
X163022133Y-99001107D01*
X163036747Y-98981402D01*
X163053223Y-98963223D01*
X163071402Y-98946747D01*
X163091107Y-98932133D01*
X163112151Y-98919520D01*
X163134329Y-98909030D01*
X163157429Y-98900765D01*
X163181227Y-98894804D01*
X163205496Y-98891204D01*
X163230000Y-98890000D01*
X163730000Y-98890000D01*
X163754504Y-98891204D01*
X163754504Y-98891204D01*
G37*
D16*
X163480000Y-100640000D03*
D15*
G36*
X161754504Y-98891204D02*
G01*
X161778773Y-98894804D01*
X161802571Y-98900765D01*
X161825671Y-98909030D01*
X161847849Y-98919520D01*
X161868893Y-98932133D01*
X161888598Y-98946747D01*
X161906777Y-98963223D01*
X161923253Y-98981402D01*
X161937867Y-99001107D01*
X161950480Y-99022151D01*
X161960970Y-99044329D01*
X161969235Y-99067429D01*
X161975196Y-99091227D01*
X161978796Y-99115496D01*
X161980000Y-99140000D01*
X161980000Y-102140000D01*
X161978796Y-102164504D01*
X161975196Y-102188773D01*
X161969235Y-102212571D01*
X161960970Y-102235671D01*
X161950480Y-102257849D01*
X161937867Y-102278893D01*
X161923253Y-102298598D01*
X161906777Y-102316777D01*
X161888598Y-102333253D01*
X161868893Y-102347867D01*
X161847849Y-102360480D01*
X161825671Y-102370970D01*
X161802571Y-102379235D01*
X161778773Y-102385196D01*
X161754504Y-102388796D01*
X161730000Y-102390000D01*
X161230000Y-102390000D01*
X161205496Y-102388796D01*
X161181227Y-102385196D01*
X161157429Y-102379235D01*
X161134329Y-102370970D01*
X161112151Y-102360480D01*
X161091107Y-102347867D01*
X161071402Y-102333253D01*
X161053223Y-102316777D01*
X161036747Y-102298598D01*
X161022133Y-102278893D01*
X161009520Y-102257849D01*
X160999030Y-102235671D01*
X160990765Y-102212571D01*
X160984804Y-102188773D01*
X160981204Y-102164504D01*
X160980000Y-102140000D01*
X160980000Y-99140000D01*
X160981204Y-99115496D01*
X160984804Y-99091227D01*
X160990765Y-99067429D01*
X160999030Y-99044329D01*
X161009520Y-99022151D01*
X161022133Y-99001107D01*
X161036747Y-98981402D01*
X161053223Y-98963223D01*
X161071402Y-98946747D01*
X161091107Y-98932133D01*
X161112151Y-98919520D01*
X161134329Y-98909030D01*
X161157429Y-98900765D01*
X161181227Y-98894804D01*
X161205496Y-98891204D01*
X161230000Y-98890000D01*
X161730000Y-98890000D01*
X161754504Y-98891204D01*
X161754504Y-98891204D01*
G37*
D16*
X161480000Y-100640000D03*
D15*
G36*
X159754504Y-98891204D02*
G01*
X159778773Y-98894804D01*
X159802571Y-98900765D01*
X159825671Y-98909030D01*
X159847849Y-98919520D01*
X159868893Y-98932133D01*
X159888598Y-98946747D01*
X159906777Y-98963223D01*
X159923253Y-98981402D01*
X159937867Y-99001107D01*
X159950480Y-99022151D01*
X159960970Y-99044329D01*
X159969235Y-99067429D01*
X159975196Y-99091227D01*
X159978796Y-99115496D01*
X159980000Y-99140000D01*
X159980000Y-102140000D01*
X159978796Y-102164504D01*
X159975196Y-102188773D01*
X159969235Y-102212571D01*
X159960970Y-102235671D01*
X159950480Y-102257849D01*
X159937867Y-102278893D01*
X159923253Y-102298598D01*
X159906777Y-102316777D01*
X159888598Y-102333253D01*
X159868893Y-102347867D01*
X159847849Y-102360480D01*
X159825671Y-102370970D01*
X159802571Y-102379235D01*
X159778773Y-102385196D01*
X159754504Y-102388796D01*
X159730000Y-102390000D01*
X159230000Y-102390000D01*
X159205496Y-102388796D01*
X159181227Y-102385196D01*
X159157429Y-102379235D01*
X159134329Y-102370970D01*
X159112151Y-102360480D01*
X159091107Y-102347867D01*
X159071402Y-102333253D01*
X159053223Y-102316777D01*
X159036747Y-102298598D01*
X159022133Y-102278893D01*
X159009520Y-102257849D01*
X158999030Y-102235671D01*
X158990765Y-102212571D01*
X158984804Y-102188773D01*
X158981204Y-102164504D01*
X158980000Y-102140000D01*
X158980000Y-99140000D01*
X158981204Y-99115496D01*
X158984804Y-99091227D01*
X158990765Y-99067429D01*
X158999030Y-99044329D01*
X159009520Y-99022151D01*
X159022133Y-99001107D01*
X159036747Y-98981402D01*
X159053223Y-98963223D01*
X159071402Y-98946747D01*
X159091107Y-98932133D01*
X159112151Y-98919520D01*
X159134329Y-98909030D01*
X159157429Y-98900765D01*
X159181227Y-98894804D01*
X159205496Y-98891204D01*
X159230000Y-98890000D01*
X159730000Y-98890000D01*
X159754504Y-98891204D01*
X159754504Y-98891204D01*
G37*
D16*
X159480000Y-100640000D03*
D15*
G36*
X157754504Y-98891204D02*
G01*
X157778773Y-98894804D01*
X157802571Y-98900765D01*
X157825671Y-98909030D01*
X157847849Y-98919520D01*
X157868893Y-98932133D01*
X157888598Y-98946747D01*
X157906777Y-98963223D01*
X157923253Y-98981402D01*
X157937867Y-99001107D01*
X157950480Y-99022151D01*
X157960970Y-99044329D01*
X157969235Y-99067429D01*
X157975196Y-99091227D01*
X157978796Y-99115496D01*
X157980000Y-99140000D01*
X157980000Y-102140000D01*
X157978796Y-102164504D01*
X157975196Y-102188773D01*
X157969235Y-102212571D01*
X157960970Y-102235671D01*
X157950480Y-102257849D01*
X157937867Y-102278893D01*
X157923253Y-102298598D01*
X157906777Y-102316777D01*
X157888598Y-102333253D01*
X157868893Y-102347867D01*
X157847849Y-102360480D01*
X157825671Y-102370970D01*
X157802571Y-102379235D01*
X157778773Y-102385196D01*
X157754504Y-102388796D01*
X157730000Y-102390000D01*
X157230000Y-102390000D01*
X157205496Y-102388796D01*
X157181227Y-102385196D01*
X157157429Y-102379235D01*
X157134329Y-102370970D01*
X157112151Y-102360480D01*
X157091107Y-102347867D01*
X157071402Y-102333253D01*
X157053223Y-102316777D01*
X157036747Y-102298598D01*
X157022133Y-102278893D01*
X157009520Y-102257849D01*
X156999030Y-102235671D01*
X156990765Y-102212571D01*
X156984804Y-102188773D01*
X156981204Y-102164504D01*
X156980000Y-102140000D01*
X156980000Y-99140000D01*
X156981204Y-99115496D01*
X156984804Y-99091227D01*
X156990765Y-99067429D01*
X156999030Y-99044329D01*
X157009520Y-99022151D01*
X157022133Y-99001107D01*
X157036747Y-98981402D01*
X157053223Y-98963223D01*
X157071402Y-98946747D01*
X157091107Y-98932133D01*
X157112151Y-98919520D01*
X157134329Y-98909030D01*
X157157429Y-98900765D01*
X157181227Y-98894804D01*
X157205496Y-98891204D01*
X157230000Y-98890000D01*
X157730000Y-98890000D01*
X157754504Y-98891204D01*
X157754504Y-98891204D01*
G37*
D16*
X157480000Y-100640000D03*
D15*
G36*
X155754504Y-98891204D02*
G01*
X155778773Y-98894804D01*
X155802571Y-98900765D01*
X155825671Y-98909030D01*
X155847849Y-98919520D01*
X155868893Y-98932133D01*
X155888598Y-98946747D01*
X155906777Y-98963223D01*
X155923253Y-98981402D01*
X155937867Y-99001107D01*
X155950480Y-99022151D01*
X155960970Y-99044329D01*
X155969235Y-99067429D01*
X155975196Y-99091227D01*
X155978796Y-99115496D01*
X155980000Y-99140000D01*
X155980000Y-102140000D01*
X155978796Y-102164504D01*
X155975196Y-102188773D01*
X155969235Y-102212571D01*
X155960970Y-102235671D01*
X155950480Y-102257849D01*
X155937867Y-102278893D01*
X155923253Y-102298598D01*
X155906777Y-102316777D01*
X155888598Y-102333253D01*
X155868893Y-102347867D01*
X155847849Y-102360480D01*
X155825671Y-102370970D01*
X155802571Y-102379235D01*
X155778773Y-102385196D01*
X155754504Y-102388796D01*
X155730000Y-102390000D01*
X155230000Y-102390000D01*
X155205496Y-102388796D01*
X155181227Y-102385196D01*
X155157429Y-102379235D01*
X155134329Y-102370970D01*
X155112151Y-102360480D01*
X155091107Y-102347867D01*
X155071402Y-102333253D01*
X155053223Y-102316777D01*
X155036747Y-102298598D01*
X155022133Y-102278893D01*
X155009520Y-102257849D01*
X154999030Y-102235671D01*
X154990765Y-102212571D01*
X154984804Y-102188773D01*
X154981204Y-102164504D01*
X154980000Y-102140000D01*
X154980000Y-99140000D01*
X154981204Y-99115496D01*
X154984804Y-99091227D01*
X154990765Y-99067429D01*
X154999030Y-99044329D01*
X155009520Y-99022151D01*
X155022133Y-99001107D01*
X155036747Y-98981402D01*
X155053223Y-98963223D01*
X155071402Y-98946747D01*
X155091107Y-98932133D01*
X155112151Y-98919520D01*
X155134329Y-98909030D01*
X155157429Y-98900765D01*
X155181227Y-98894804D01*
X155205496Y-98891204D01*
X155230000Y-98890000D01*
X155730000Y-98890000D01*
X155754504Y-98891204D01*
X155754504Y-98891204D01*
G37*
D16*
X155480000Y-100640000D03*
D15*
G36*
X153754504Y-98891204D02*
G01*
X153778773Y-98894804D01*
X153802571Y-98900765D01*
X153825671Y-98909030D01*
X153847849Y-98919520D01*
X153868893Y-98932133D01*
X153888598Y-98946747D01*
X153906777Y-98963223D01*
X153923253Y-98981402D01*
X153937867Y-99001107D01*
X153950480Y-99022151D01*
X153960970Y-99044329D01*
X153969235Y-99067429D01*
X153975196Y-99091227D01*
X153978796Y-99115496D01*
X153980000Y-99140000D01*
X153980000Y-102140000D01*
X153978796Y-102164504D01*
X153975196Y-102188773D01*
X153969235Y-102212571D01*
X153960970Y-102235671D01*
X153950480Y-102257849D01*
X153937867Y-102278893D01*
X153923253Y-102298598D01*
X153906777Y-102316777D01*
X153888598Y-102333253D01*
X153868893Y-102347867D01*
X153847849Y-102360480D01*
X153825671Y-102370970D01*
X153802571Y-102379235D01*
X153778773Y-102385196D01*
X153754504Y-102388796D01*
X153730000Y-102390000D01*
X153230000Y-102390000D01*
X153205496Y-102388796D01*
X153181227Y-102385196D01*
X153157429Y-102379235D01*
X153134329Y-102370970D01*
X153112151Y-102360480D01*
X153091107Y-102347867D01*
X153071402Y-102333253D01*
X153053223Y-102316777D01*
X153036747Y-102298598D01*
X153022133Y-102278893D01*
X153009520Y-102257849D01*
X152999030Y-102235671D01*
X152990765Y-102212571D01*
X152984804Y-102188773D01*
X152981204Y-102164504D01*
X152980000Y-102140000D01*
X152980000Y-99140000D01*
X152981204Y-99115496D01*
X152984804Y-99091227D01*
X152990765Y-99067429D01*
X152999030Y-99044329D01*
X153009520Y-99022151D01*
X153022133Y-99001107D01*
X153036747Y-98981402D01*
X153053223Y-98963223D01*
X153071402Y-98946747D01*
X153091107Y-98932133D01*
X153112151Y-98919520D01*
X153134329Y-98909030D01*
X153157429Y-98900765D01*
X153181227Y-98894804D01*
X153205496Y-98891204D01*
X153230000Y-98890000D01*
X153730000Y-98890000D01*
X153754504Y-98891204D01*
X153754504Y-98891204D01*
G37*
D16*
X153480000Y-100640000D03*
D15*
G36*
X151754504Y-98891204D02*
G01*
X151778773Y-98894804D01*
X151802571Y-98900765D01*
X151825671Y-98909030D01*
X151847849Y-98919520D01*
X151868893Y-98932133D01*
X151888598Y-98946747D01*
X151906777Y-98963223D01*
X151923253Y-98981402D01*
X151937867Y-99001107D01*
X151950480Y-99022151D01*
X151960970Y-99044329D01*
X151969235Y-99067429D01*
X151975196Y-99091227D01*
X151978796Y-99115496D01*
X151980000Y-99140000D01*
X151980000Y-102140000D01*
X151978796Y-102164504D01*
X151975196Y-102188773D01*
X151969235Y-102212571D01*
X151960970Y-102235671D01*
X151950480Y-102257849D01*
X151937867Y-102278893D01*
X151923253Y-102298598D01*
X151906777Y-102316777D01*
X151888598Y-102333253D01*
X151868893Y-102347867D01*
X151847849Y-102360480D01*
X151825671Y-102370970D01*
X151802571Y-102379235D01*
X151778773Y-102385196D01*
X151754504Y-102388796D01*
X151730000Y-102390000D01*
X151230000Y-102390000D01*
X151205496Y-102388796D01*
X151181227Y-102385196D01*
X151157429Y-102379235D01*
X151134329Y-102370970D01*
X151112151Y-102360480D01*
X151091107Y-102347867D01*
X151071402Y-102333253D01*
X151053223Y-102316777D01*
X151036747Y-102298598D01*
X151022133Y-102278893D01*
X151009520Y-102257849D01*
X150999030Y-102235671D01*
X150990765Y-102212571D01*
X150984804Y-102188773D01*
X150981204Y-102164504D01*
X150980000Y-102140000D01*
X150980000Y-99140000D01*
X150981204Y-99115496D01*
X150984804Y-99091227D01*
X150990765Y-99067429D01*
X150999030Y-99044329D01*
X151009520Y-99022151D01*
X151022133Y-99001107D01*
X151036747Y-98981402D01*
X151053223Y-98963223D01*
X151071402Y-98946747D01*
X151091107Y-98932133D01*
X151112151Y-98919520D01*
X151134329Y-98909030D01*
X151157429Y-98900765D01*
X151181227Y-98894804D01*
X151205496Y-98891204D01*
X151230000Y-98890000D01*
X151730000Y-98890000D01*
X151754504Y-98891204D01*
X151754504Y-98891204D01*
G37*
D16*
X151480000Y-100640000D03*
D15*
G36*
X166354504Y-93191204D02*
G01*
X166378773Y-93194804D01*
X166402571Y-93200765D01*
X166425671Y-93209030D01*
X166447849Y-93219520D01*
X166468893Y-93232133D01*
X166488598Y-93246747D01*
X166506777Y-93263223D01*
X166523253Y-93281402D01*
X166537867Y-93301107D01*
X166550480Y-93322151D01*
X166560970Y-93344329D01*
X166569235Y-93367429D01*
X166575196Y-93391227D01*
X166578796Y-93415496D01*
X166580000Y-93440000D01*
X166580000Y-96340000D01*
X166578796Y-96364504D01*
X166575196Y-96388773D01*
X166569235Y-96412571D01*
X166560970Y-96435671D01*
X166550480Y-96457849D01*
X166537867Y-96478893D01*
X166523253Y-96498598D01*
X166506777Y-96516777D01*
X166488598Y-96533253D01*
X166468893Y-96547867D01*
X166447849Y-96560480D01*
X166425671Y-96570970D01*
X166402571Y-96579235D01*
X166378773Y-96585196D01*
X166354504Y-96588796D01*
X166330000Y-96590000D01*
X165330000Y-96590000D01*
X165305496Y-96588796D01*
X165281227Y-96585196D01*
X165257429Y-96579235D01*
X165234329Y-96570970D01*
X165212151Y-96560480D01*
X165191107Y-96547867D01*
X165171402Y-96533253D01*
X165153223Y-96516777D01*
X165136747Y-96498598D01*
X165122133Y-96478893D01*
X165109520Y-96457849D01*
X165099030Y-96435671D01*
X165090765Y-96412571D01*
X165084804Y-96388773D01*
X165081204Y-96364504D01*
X165080000Y-96340000D01*
X165080000Y-93440000D01*
X165081204Y-93415496D01*
X165084804Y-93391227D01*
X165090765Y-93367429D01*
X165099030Y-93344329D01*
X165109520Y-93322151D01*
X165122133Y-93301107D01*
X165136747Y-93281402D01*
X165153223Y-93263223D01*
X165171402Y-93246747D01*
X165191107Y-93232133D01*
X165212151Y-93219520D01*
X165234329Y-93209030D01*
X165257429Y-93200765D01*
X165281227Y-93194804D01*
X165305496Y-93191204D01*
X165330000Y-93190000D01*
X166330000Y-93190000D01*
X166354504Y-93191204D01*
X166354504Y-93191204D01*
G37*
D17*
X165830000Y-94890000D03*
D15*
G36*
X149654504Y-93191204D02*
G01*
X149678773Y-93194804D01*
X149702571Y-93200765D01*
X149725671Y-93209030D01*
X149747849Y-93219520D01*
X149768893Y-93232133D01*
X149788598Y-93246747D01*
X149806777Y-93263223D01*
X149823253Y-93281402D01*
X149837867Y-93301107D01*
X149850480Y-93322151D01*
X149860970Y-93344329D01*
X149869235Y-93367429D01*
X149875196Y-93391227D01*
X149878796Y-93415496D01*
X149880000Y-93440000D01*
X149880000Y-96340000D01*
X149878796Y-96364504D01*
X149875196Y-96388773D01*
X149869235Y-96412571D01*
X149860970Y-96435671D01*
X149850480Y-96457849D01*
X149837867Y-96478893D01*
X149823253Y-96498598D01*
X149806777Y-96516777D01*
X149788598Y-96533253D01*
X149768893Y-96547867D01*
X149747849Y-96560480D01*
X149725671Y-96570970D01*
X149702571Y-96579235D01*
X149678773Y-96585196D01*
X149654504Y-96588796D01*
X149630000Y-96590000D01*
X148630000Y-96590000D01*
X148605496Y-96588796D01*
X148581227Y-96585196D01*
X148557429Y-96579235D01*
X148534329Y-96570970D01*
X148512151Y-96560480D01*
X148491107Y-96547867D01*
X148471402Y-96533253D01*
X148453223Y-96516777D01*
X148436747Y-96498598D01*
X148422133Y-96478893D01*
X148409520Y-96457849D01*
X148399030Y-96435671D01*
X148390765Y-96412571D01*
X148384804Y-96388773D01*
X148381204Y-96364504D01*
X148380000Y-96340000D01*
X148380000Y-93440000D01*
X148381204Y-93415496D01*
X148384804Y-93391227D01*
X148390765Y-93367429D01*
X148399030Y-93344329D01*
X148409520Y-93322151D01*
X148422133Y-93301107D01*
X148436747Y-93281402D01*
X148453223Y-93263223D01*
X148471402Y-93246747D01*
X148491107Y-93232133D01*
X148512151Y-93219520D01*
X148534329Y-93209030D01*
X148557429Y-93200765D01*
X148581227Y-93194804D01*
X148605496Y-93191204D01*
X148630000Y-93190000D01*
X149630000Y-93190000D01*
X149654504Y-93191204D01*
X149654504Y-93191204D01*
G37*
D17*
X149130000Y-94890000D03*
D15*
G36*
X155725691Y-152776553D02*
G01*
X155746926Y-152779703D01*
X155767750Y-152784919D01*
X155787962Y-152792151D01*
X155807368Y-152801330D01*
X155825781Y-152812366D01*
X155843024Y-152825154D01*
X155858930Y-152839570D01*
X155873346Y-152855476D01*
X155886134Y-152872719D01*
X155897170Y-152891132D01*
X155906349Y-152910538D01*
X155913581Y-152930750D01*
X155918797Y-152951574D01*
X155921947Y-152972809D01*
X155923000Y-152994250D01*
X155923000Y-153431750D01*
X155921947Y-153453191D01*
X155918797Y-153474426D01*
X155913581Y-153495250D01*
X155906349Y-153515462D01*
X155897170Y-153534868D01*
X155886134Y-153553281D01*
X155873346Y-153570524D01*
X155858930Y-153586430D01*
X155843024Y-153600846D01*
X155825781Y-153613634D01*
X155807368Y-153624670D01*
X155787962Y-153633849D01*
X155767750Y-153641081D01*
X155746926Y-153646297D01*
X155725691Y-153649447D01*
X155704250Y-153650500D01*
X155191750Y-153650500D01*
X155170309Y-153649447D01*
X155149074Y-153646297D01*
X155128250Y-153641081D01*
X155108038Y-153633849D01*
X155088632Y-153624670D01*
X155070219Y-153613634D01*
X155052976Y-153600846D01*
X155037070Y-153586430D01*
X155022654Y-153570524D01*
X155009866Y-153553281D01*
X154998830Y-153534868D01*
X154989651Y-153515462D01*
X154982419Y-153495250D01*
X154977203Y-153474426D01*
X154974053Y-153453191D01*
X154973000Y-153431750D01*
X154973000Y-152994250D01*
X154974053Y-152972809D01*
X154977203Y-152951574D01*
X154982419Y-152930750D01*
X154989651Y-152910538D01*
X154998830Y-152891132D01*
X155009866Y-152872719D01*
X155022654Y-152855476D01*
X155037070Y-152839570D01*
X155052976Y-152825154D01*
X155070219Y-152812366D01*
X155088632Y-152801330D01*
X155108038Y-152792151D01*
X155128250Y-152784919D01*
X155149074Y-152779703D01*
X155170309Y-152776553D01*
X155191750Y-152775500D01*
X155704250Y-152775500D01*
X155725691Y-152776553D01*
X155725691Y-152776553D01*
G37*
D18*
X155448000Y-153213000D03*
D15*
G36*
X155725691Y-151201553D02*
G01*
X155746926Y-151204703D01*
X155767750Y-151209919D01*
X155787962Y-151217151D01*
X155807368Y-151226330D01*
X155825781Y-151237366D01*
X155843024Y-151250154D01*
X155858930Y-151264570D01*
X155873346Y-151280476D01*
X155886134Y-151297719D01*
X155897170Y-151316132D01*
X155906349Y-151335538D01*
X155913581Y-151355750D01*
X155918797Y-151376574D01*
X155921947Y-151397809D01*
X155923000Y-151419250D01*
X155923000Y-151856750D01*
X155921947Y-151878191D01*
X155918797Y-151899426D01*
X155913581Y-151920250D01*
X155906349Y-151940462D01*
X155897170Y-151959868D01*
X155886134Y-151978281D01*
X155873346Y-151995524D01*
X155858930Y-152011430D01*
X155843024Y-152025846D01*
X155825781Y-152038634D01*
X155807368Y-152049670D01*
X155787962Y-152058849D01*
X155767750Y-152066081D01*
X155746926Y-152071297D01*
X155725691Y-152074447D01*
X155704250Y-152075500D01*
X155191750Y-152075500D01*
X155170309Y-152074447D01*
X155149074Y-152071297D01*
X155128250Y-152066081D01*
X155108038Y-152058849D01*
X155088632Y-152049670D01*
X155070219Y-152038634D01*
X155052976Y-152025846D01*
X155037070Y-152011430D01*
X155022654Y-151995524D01*
X155009866Y-151978281D01*
X154998830Y-151959868D01*
X154989651Y-151940462D01*
X154982419Y-151920250D01*
X154977203Y-151899426D01*
X154974053Y-151878191D01*
X154973000Y-151856750D01*
X154973000Y-151419250D01*
X154974053Y-151397809D01*
X154977203Y-151376574D01*
X154982419Y-151355750D01*
X154989651Y-151335538D01*
X154998830Y-151316132D01*
X155009866Y-151297719D01*
X155022654Y-151280476D01*
X155037070Y-151264570D01*
X155052976Y-151250154D01*
X155070219Y-151237366D01*
X155088632Y-151226330D01*
X155108038Y-151217151D01*
X155128250Y-151209919D01*
X155149074Y-151204703D01*
X155170309Y-151201553D01*
X155191750Y-151200500D01*
X155704250Y-151200500D01*
X155725691Y-151201553D01*
X155725691Y-151201553D01*
G37*
D18*
X155448000Y-151638000D03*
D15*
G36*
X159078692Y-151201553D02*
G01*
X159099927Y-151204703D01*
X159120751Y-151209919D01*
X159140963Y-151217151D01*
X159160369Y-151226330D01*
X159178782Y-151237366D01*
X159196025Y-151250154D01*
X159211931Y-151264570D01*
X159226347Y-151280476D01*
X159239135Y-151297719D01*
X159250171Y-151316132D01*
X159259350Y-151335538D01*
X159266582Y-151355750D01*
X159271798Y-151376574D01*
X159274948Y-151397809D01*
X159276001Y-151419250D01*
X159276001Y-151856750D01*
X159274948Y-151878191D01*
X159271798Y-151899426D01*
X159266582Y-151920250D01*
X159259350Y-151940462D01*
X159250171Y-151959868D01*
X159239135Y-151978281D01*
X159226347Y-151995524D01*
X159211931Y-152011430D01*
X159196025Y-152025846D01*
X159178782Y-152038634D01*
X159160369Y-152049670D01*
X159140963Y-152058849D01*
X159120751Y-152066081D01*
X159099927Y-152071297D01*
X159078692Y-152074447D01*
X159057251Y-152075500D01*
X158544751Y-152075500D01*
X158523310Y-152074447D01*
X158502075Y-152071297D01*
X158481251Y-152066081D01*
X158461039Y-152058849D01*
X158441633Y-152049670D01*
X158423220Y-152038634D01*
X158405977Y-152025846D01*
X158390071Y-152011430D01*
X158375655Y-151995524D01*
X158362867Y-151978281D01*
X158351831Y-151959868D01*
X158342652Y-151940462D01*
X158335420Y-151920250D01*
X158330204Y-151899426D01*
X158327054Y-151878191D01*
X158326001Y-151856750D01*
X158326001Y-151419250D01*
X158327054Y-151397809D01*
X158330204Y-151376574D01*
X158335420Y-151355750D01*
X158342652Y-151335538D01*
X158351831Y-151316132D01*
X158362867Y-151297719D01*
X158375655Y-151280476D01*
X158390071Y-151264570D01*
X158405977Y-151250154D01*
X158423220Y-151237366D01*
X158441633Y-151226330D01*
X158461039Y-151217151D01*
X158481251Y-151209919D01*
X158502075Y-151204703D01*
X158523310Y-151201553D01*
X158544751Y-151200500D01*
X159057251Y-151200500D01*
X159078692Y-151201553D01*
X159078692Y-151201553D01*
G37*
D18*
X158801001Y-151638000D03*
D15*
G36*
X159078692Y-152776553D02*
G01*
X159099927Y-152779703D01*
X159120751Y-152784919D01*
X159140963Y-152792151D01*
X159160369Y-152801330D01*
X159178782Y-152812366D01*
X159196025Y-152825154D01*
X159211931Y-152839570D01*
X159226347Y-152855476D01*
X159239135Y-152872719D01*
X159250171Y-152891132D01*
X159259350Y-152910538D01*
X159266582Y-152930750D01*
X159271798Y-152951574D01*
X159274948Y-152972809D01*
X159276001Y-152994250D01*
X159276001Y-153431750D01*
X159274948Y-153453191D01*
X159271798Y-153474426D01*
X159266582Y-153495250D01*
X159259350Y-153515462D01*
X159250171Y-153534868D01*
X159239135Y-153553281D01*
X159226347Y-153570524D01*
X159211931Y-153586430D01*
X159196025Y-153600846D01*
X159178782Y-153613634D01*
X159160369Y-153624670D01*
X159140963Y-153633849D01*
X159120751Y-153641081D01*
X159099927Y-153646297D01*
X159078692Y-153649447D01*
X159057251Y-153650500D01*
X158544751Y-153650500D01*
X158523310Y-153649447D01*
X158502075Y-153646297D01*
X158481251Y-153641081D01*
X158461039Y-153633849D01*
X158441633Y-153624670D01*
X158423220Y-153613634D01*
X158405977Y-153600846D01*
X158390071Y-153586430D01*
X158375655Y-153570524D01*
X158362867Y-153553281D01*
X158351831Y-153534868D01*
X158342652Y-153515462D01*
X158335420Y-153495250D01*
X158330204Y-153474426D01*
X158327054Y-153453191D01*
X158326001Y-153431750D01*
X158326001Y-152994250D01*
X158327054Y-152972809D01*
X158330204Y-152951574D01*
X158335420Y-152930750D01*
X158342652Y-152910538D01*
X158351831Y-152891132D01*
X158362867Y-152872719D01*
X158375655Y-152855476D01*
X158390071Y-152839570D01*
X158405977Y-152825154D01*
X158423220Y-152812366D01*
X158441633Y-152801330D01*
X158461039Y-152792151D01*
X158481251Y-152784919D01*
X158502075Y-152779703D01*
X158523310Y-152776553D01*
X158544751Y-152775500D01*
X159057251Y-152775500D01*
X159078692Y-152776553D01*
X159078692Y-152776553D01*
G37*
D18*
X158801001Y-153213000D03*
D15*
G36*
X162329691Y-152776553D02*
G01*
X162350926Y-152779703D01*
X162371750Y-152784919D01*
X162391962Y-152792151D01*
X162411368Y-152801330D01*
X162429781Y-152812366D01*
X162447024Y-152825154D01*
X162462930Y-152839570D01*
X162477346Y-152855476D01*
X162490134Y-152872719D01*
X162501170Y-152891132D01*
X162510349Y-152910538D01*
X162517581Y-152930750D01*
X162522797Y-152951574D01*
X162525947Y-152972809D01*
X162527000Y-152994250D01*
X162527000Y-153431750D01*
X162525947Y-153453191D01*
X162522797Y-153474426D01*
X162517581Y-153495250D01*
X162510349Y-153515462D01*
X162501170Y-153534868D01*
X162490134Y-153553281D01*
X162477346Y-153570524D01*
X162462930Y-153586430D01*
X162447024Y-153600846D01*
X162429781Y-153613634D01*
X162411368Y-153624670D01*
X162391962Y-153633849D01*
X162371750Y-153641081D01*
X162350926Y-153646297D01*
X162329691Y-153649447D01*
X162308250Y-153650500D01*
X161795750Y-153650500D01*
X161774309Y-153649447D01*
X161753074Y-153646297D01*
X161732250Y-153641081D01*
X161712038Y-153633849D01*
X161692632Y-153624670D01*
X161674219Y-153613634D01*
X161656976Y-153600846D01*
X161641070Y-153586430D01*
X161626654Y-153570524D01*
X161613866Y-153553281D01*
X161602830Y-153534868D01*
X161593651Y-153515462D01*
X161586419Y-153495250D01*
X161581203Y-153474426D01*
X161578053Y-153453191D01*
X161577000Y-153431750D01*
X161577000Y-152994250D01*
X161578053Y-152972809D01*
X161581203Y-152951574D01*
X161586419Y-152930750D01*
X161593651Y-152910538D01*
X161602830Y-152891132D01*
X161613866Y-152872719D01*
X161626654Y-152855476D01*
X161641070Y-152839570D01*
X161656976Y-152825154D01*
X161674219Y-152812366D01*
X161692632Y-152801330D01*
X161712038Y-152792151D01*
X161732250Y-152784919D01*
X161753074Y-152779703D01*
X161774309Y-152776553D01*
X161795750Y-152775500D01*
X162308250Y-152775500D01*
X162329691Y-152776553D01*
X162329691Y-152776553D01*
G37*
D18*
X162052000Y-153213000D03*
D15*
G36*
X162329691Y-151201553D02*
G01*
X162350926Y-151204703D01*
X162371750Y-151209919D01*
X162391962Y-151217151D01*
X162411368Y-151226330D01*
X162429781Y-151237366D01*
X162447024Y-151250154D01*
X162462930Y-151264570D01*
X162477346Y-151280476D01*
X162490134Y-151297719D01*
X162501170Y-151316132D01*
X162510349Y-151335538D01*
X162517581Y-151355750D01*
X162522797Y-151376574D01*
X162525947Y-151397809D01*
X162527000Y-151419250D01*
X162527000Y-151856750D01*
X162525947Y-151878191D01*
X162522797Y-151899426D01*
X162517581Y-151920250D01*
X162510349Y-151940462D01*
X162501170Y-151959868D01*
X162490134Y-151978281D01*
X162477346Y-151995524D01*
X162462930Y-152011430D01*
X162447024Y-152025846D01*
X162429781Y-152038634D01*
X162411368Y-152049670D01*
X162391962Y-152058849D01*
X162371750Y-152066081D01*
X162350926Y-152071297D01*
X162329691Y-152074447D01*
X162308250Y-152075500D01*
X161795750Y-152075500D01*
X161774309Y-152074447D01*
X161753074Y-152071297D01*
X161732250Y-152066081D01*
X161712038Y-152058849D01*
X161692632Y-152049670D01*
X161674219Y-152038634D01*
X161656976Y-152025846D01*
X161641070Y-152011430D01*
X161626654Y-151995524D01*
X161613866Y-151978281D01*
X161602830Y-151959868D01*
X161593651Y-151940462D01*
X161586419Y-151920250D01*
X161581203Y-151899426D01*
X161578053Y-151878191D01*
X161577000Y-151856750D01*
X161577000Y-151419250D01*
X161578053Y-151397809D01*
X161581203Y-151376574D01*
X161586419Y-151355750D01*
X161593651Y-151335538D01*
X161602830Y-151316132D01*
X161613866Y-151297719D01*
X161626654Y-151280476D01*
X161641070Y-151264570D01*
X161656976Y-151250154D01*
X161674219Y-151237366D01*
X161692632Y-151226330D01*
X161712038Y-151217151D01*
X161732250Y-151209919D01*
X161753074Y-151204703D01*
X161774309Y-151201553D01*
X161795750Y-151200500D01*
X162308250Y-151200500D01*
X162329691Y-151201553D01*
X162329691Y-151201553D01*
G37*
D18*
X162052000Y-151638000D03*
D13*
X170180000Y-120650000D03*
D14*
X170180000Y-118110000D03*
X170180000Y-115570000D03*
X170180000Y-113030000D03*
X170180000Y-110490000D03*
X170180000Y-107950000D03*
X170180000Y-105410000D03*
X170180000Y-102870000D03*
D19*
X140736000Y-104140000D03*
X140736000Y-109220000D03*
X140736000Y-114300000D03*
D20*
X142260000Y-102870000D03*
X142260000Y-105410000D03*
X142260000Y-107950000D03*
X142260000Y-110490000D03*
X142260000Y-113030000D03*
D13*
X142260000Y-120650000D03*
D20*
X142260000Y-118110000D03*
X142260000Y-115570000D03*
D19*
X140736000Y-119380000D03*
D21*
X144780000Y-134366000D03*
X139700000Y-125476000D03*
D15*
G36*
X155725691Y-148153553D02*
G01*
X155746926Y-148156703D01*
X155767750Y-148161919D01*
X155787962Y-148169151D01*
X155807368Y-148178330D01*
X155825781Y-148189366D01*
X155843024Y-148202154D01*
X155858930Y-148216570D01*
X155873346Y-148232476D01*
X155886134Y-148249719D01*
X155897170Y-148268132D01*
X155906349Y-148287538D01*
X155913581Y-148307750D01*
X155918797Y-148328574D01*
X155921947Y-148349809D01*
X155923000Y-148371250D01*
X155923000Y-148808750D01*
X155921947Y-148830191D01*
X155918797Y-148851426D01*
X155913581Y-148872250D01*
X155906349Y-148892462D01*
X155897170Y-148911868D01*
X155886134Y-148930281D01*
X155873346Y-148947524D01*
X155858930Y-148963430D01*
X155843024Y-148977846D01*
X155825781Y-148990634D01*
X155807368Y-149001670D01*
X155787962Y-149010849D01*
X155767750Y-149018081D01*
X155746926Y-149023297D01*
X155725691Y-149026447D01*
X155704250Y-149027500D01*
X155191750Y-149027500D01*
X155170309Y-149026447D01*
X155149074Y-149023297D01*
X155128250Y-149018081D01*
X155108038Y-149010849D01*
X155088632Y-149001670D01*
X155070219Y-148990634D01*
X155052976Y-148977846D01*
X155037070Y-148963430D01*
X155022654Y-148947524D01*
X155009866Y-148930281D01*
X154998830Y-148911868D01*
X154989651Y-148892462D01*
X154982419Y-148872250D01*
X154977203Y-148851426D01*
X154974053Y-148830191D01*
X154973000Y-148808750D01*
X154973000Y-148371250D01*
X154974053Y-148349809D01*
X154977203Y-148328574D01*
X154982419Y-148307750D01*
X154989651Y-148287538D01*
X154998830Y-148268132D01*
X155009866Y-148249719D01*
X155022654Y-148232476D01*
X155037070Y-148216570D01*
X155052976Y-148202154D01*
X155070219Y-148189366D01*
X155088632Y-148178330D01*
X155108038Y-148169151D01*
X155128250Y-148161919D01*
X155149074Y-148156703D01*
X155170309Y-148153553D01*
X155191750Y-148152500D01*
X155704250Y-148152500D01*
X155725691Y-148153553D01*
X155725691Y-148153553D01*
G37*
D18*
X155448000Y-148590000D03*
D15*
G36*
X155725691Y-149728553D02*
G01*
X155746926Y-149731703D01*
X155767750Y-149736919D01*
X155787962Y-149744151D01*
X155807368Y-149753330D01*
X155825781Y-149764366D01*
X155843024Y-149777154D01*
X155858930Y-149791570D01*
X155873346Y-149807476D01*
X155886134Y-149824719D01*
X155897170Y-149843132D01*
X155906349Y-149862538D01*
X155913581Y-149882750D01*
X155918797Y-149903574D01*
X155921947Y-149924809D01*
X155923000Y-149946250D01*
X155923000Y-150383750D01*
X155921947Y-150405191D01*
X155918797Y-150426426D01*
X155913581Y-150447250D01*
X155906349Y-150467462D01*
X155897170Y-150486868D01*
X155886134Y-150505281D01*
X155873346Y-150522524D01*
X155858930Y-150538430D01*
X155843024Y-150552846D01*
X155825781Y-150565634D01*
X155807368Y-150576670D01*
X155787962Y-150585849D01*
X155767750Y-150593081D01*
X155746926Y-150598297D01*
X155725691Y-150601447D01*
X155704250Y-150602500D01*
X155191750Y-150602500D01*
X155170309Y-150601447D01*
X155149074Y-150598297D01*
X155128250Y-150593081D01*
X155108038Y-150585849D01*
X155088632Y-150576670D01*
X155070219Y-150565634D01*
X155052976Y-150552846D01*
X155037070Y-150538430D01*
X155022654Y-150522524D01*
X155009866Y-150505281D01*
X154998830Y-150486868D01*
X154989651Y-150467462D01*
X154982419Y-150447250D01*
X154977203Y-150426426D01*
X154974053Y-150405191D01*
X154973000Y-150383750D01*
X154973000Y-149946250D01*
X154974053Y-149924809D01*
X154977203Y-149903574D01*
X154982419Y-149882750D01*
X154989651Y-149862538D01*
X154998830Y-149843132D01*
X155009866Y-149824719D01*
X155022654Y-149807476D01*
X155037070Y-149791570D01*
X155052976Y-149777154D01*
X155070219Y-149764366D01*
X155088632Y-149753330D01*
X155108038Y-149744151D01*
X155128250Y-149736919D01*
X155149074Y-149731703D01*
X155170309Y-149728553D01*
X155191750Y-149727500D01*
X155704250Y-149727500D01*
X155725691Y-149728553D01*
X155725691Y-149728553D01*
G37*
D18*
X155448000Y-150165000D03*
D15*
G36*
X159084690Y-149728553D02*
G01*
X159105925Y-149731703D01*
X159126749Y-149736919D01*
X159146961Y-149744151D01*
X159166367Y-149753330D01*
X159184780Y-149764366D01*
X159202023Y-149777154D01*
X159217929Y-149791570D01*
X159232345Y-149807476D01*
X159245133Y-149824719D01*
X159256169Y-149843132D01*
X159265348Y-149862538D01*
X159272580Y-149882750D01*
X159277796Y-149903574D01*
X159280946Y-149924809D01*
X159281999Y-149946250D01*
X159281999Y-150383750D01*
X159280946Y-150405191D01*
X159277796Y-150426426D01*
X159272580Y-150447250D01*
X159265348Y-150467462D01*
X159256169Y-150486868D01*
X159245133Y-150505281D01*
X159232345Y-150522524D01*
X159217929Y-150538430D01*
X159202023Y-150552846D01*
X159184780Y-150565634D01*
X159166367Y-150576670D01*
X159146961Y-150585849D01*
X159126749Y-150593081D01*
X159105925Y-150598297D01*
X159084690Y-150601447D01*
X159063249Y-150602500D01*
X158550749Y-150602500D01*
X158529308Y-150601447D01*
X158508073Y-150598297D01*
X158487249Y-150593081D01*
X158467037Y-150585849D01*
X158447631Y-150576670D01*
X158429218Y-150565634D01*
X158411975Y-150552846D01*
X158396069Y-150538430D01*
X158381653Y-150522524D01*
X158368865Y-150505281D01*
X158357829Y-150486868D01*
X158348650Y-150467462D01*
X158341418Y-150447250D01*
X158336202Y-150426426D01*
X158333052Y-150405191D01*
X158331999Y-150383750D01*
X158331999Y-149946250D01*
X158333052Y-149924809D01*
X158336202Y-149903574D01*
X158341418Y-149882750D01*
X158348650Y-149862538D01*
X158357829Y-149843132D01*
X158368865Y-149824719D01*
X158381653Y-149807476D01*
X158396069Y-149791570D01*
X158411975Y-149777154D01*
X158429218Y-149764366D01*
X158447631Y-149753330D01*
X158467037Y-149744151D01*
X158487249Y-149736919D01*
X158508073Y-149731703D01*
X158529308Y-149728553D01*
X158550749Y-149727500D01*
X159063249Y-149727500D01*
X159084690Y-149728553D01*
X159084690Y-149728553D01*
G37*
D18*
X158806999Y-150165000D03*
D15*
G36*
X159084690Y-148153553D02*
G01*
X159105925Y-148156703D01*
X159126749Y-148161919D01*
X159146961Y-148169151D01*
X159166367Y-148178330D01*
X159184780Y-148189366D01*
X159202023Y-148202154D01*
X159217929Y-148216570D01*
X159232345Y-148232476D01*
X159245133Y-148249719D01*
X159256169Y-148268132D01*
X159265348Y-148287538D01*
X159272580Y-148307750D01*
X159277796Y-148328574D01*
X159280946Y-148349809D01*
X159281999Y-148371250D01*
X159281999Y-148808750D01*
X159280946Y-148830191D01*
X159277796Y-148851426D01*
X159272580Y-148872250D01*
X159265348Y-148892462D01*
X159256169Y-148911868D01*
X159245133Y-148930281D01*
X159232345Y-148947524D01*
X159217929Y-148963430D01*
X159202023Y-148977846D01*
X159184780Y-148990634D01*
X159166367Y-149001670D01*
X159146961Y-149010849D01*
X159126749Y-149018081D01*
X159105925Y-149023297D01*
X159084690Y-149026447D01*
X159063249Y-149027500D01*
X158550749Y-149027500D01*
X158529308Y-149026447D01*
X158508073Y-149023297D01*
X158487249Y-149018081D01*
X158467037Y-149010849D01*
X158447631Y-149001670D01*
X158429218Y-148990634D01*
X158411975Y-148977846D01*
X158396069Y-148963430D01*
X158381653Y-148947524D01*
X158368865Y-148930281D01*
X158357829Y-148911868D01*
X158348650Y-148892462D01*
X158341418Y-148872250D01*
X158336202Y-148851426D01*
X158333052Y-148830191D01*
X158331999Y-148808750D01*
X158331999Y-148371250D01*
X158333052Y-148349809D01*
X158336202Y-148328574D01*
X158341418Y-148307750D01*
X158348650Y-148287538D01*
X158357829Y-148268132D01*
X158368865Y-148249719D01*
X158381653Y-148232476D01*
X158396069Y-148216570D01*
X158411975Y-148202154D01*
X158429218Y-148189366D01*
X158447631Y-148178330D01*
X158467037Y-148169151D01*
X158487249Y-148161919D01*
X158508073Y-148156703D01*
X158529308Y-148153553D01*
X158550749Y-148152500D01*
X159063249Y-148152500D01*
X159084690Y-148153553D01*
X159084690Y-148153553D01*
G37*
D18*
X158806999Y-148590000D03*
D15*
G36*
X162329691Y-148153553D02*
G01*
X162350926Y-148156703D01*
X162371750Y-148161919D01*
X162391962Y-148169151D01*
X162411368Y-148178330D01*
X162429781Y-148189366D01*
X162447024Y-148202154D01*
X162462930Y-148216570D01*
X162477346Y-148232476D01*
X162490134Y-148249719D01*
X162501170Y-148268132D01*
X162510349Y-148287538D01*
X162517581Y-148307750D01*
X162522797Y-148328574D01*
X162525947Y-148349809D01*
X162527000Y-148371250D01*
X162527000Y-148808750D01*
X162525947Y-148830191D01*
X162522797Y-148851426D01*
X162517581Y-148872250D01*
X162510349Y-148892462D01*
X162501170Y-148911868D01*
X162490134Y-148930281D01*
X162477346Y-148947524D01*
X162462930Y-148963430D01*
X162447024Y-148977846D01*
X162429781Y-148990634D01*
X162411368Y-149001670D01*
X162391962Y-149010849D01*
X162371750Y-149018081D01*
X162350926Y-149023297D01*
X162329691Y-149026447D01*
X162308250Y-149027500D01*
X161795750Y-149027500D01*
X161774309Y-149026447D01*
X161753074Y-149023297D01*
X161732250Y-149018081D01*
X161712038Y-149010849D01*
X161692632Y-149001670D01*
X161674219Y-148990634D01*
X161656976Y-148977846D01*
X161641070Y-148963430D01*
X161626654Y-148947524D01*
X161613866Y-148930281D01*
X161602830Y-148911868D01*
X161593651Y-148892462D01*
X161586419Y-148872250D01*
X161581203Y-148851426D01*
X161578053Y-148830191D01*
X161577000Y-148808750D01*
X161577000Y-148371250D01*
X161578053Y-148349809D01*
X161581203Y-148328574D01*
X161586419Y-148307750D01*
X161593651Y-148287538D01*
X161602830Y-148268132D01*
X161613866Y-148249719D01*
X161626654Y-148232476D01*
X161641070Y-148216570D01*
X161656976Y-148202154D01*
X161674219Y-148189366D01*
X161692632Y-148178330D01*
X161712038Y-148169151D01*
X161732250Y-148161919D01*
X161753074Y-148156703D01*
X161774309Y-148153553D01*
X161795750Y-148152500D01*
X162308250Y-148152500D01*
X162329691Y-148153553D01*
X162329691Y-148153553D01*
G37*
D18*
X162052000Y-148590000D03*
D15*
G36*
X162329691Y-149728553D02*
G01*
X162350926Y-149731703D01*
X162371750Y-149736919D01*
X162391962Y-149744151D01*
X162411368Y-149753330D01*
X162429781Y-149764366D01*
X162447024Y-149777154D01*
X162462930Y-149791570D01*
X162477346Y-149807476D01*
X162490134Y-149824719D01*
X162501170Y-149843132D01*
X162510349Y-149862538D01*
X162517581Y-149882750D01*
X162522797Y-149903574D01*
X162525947Y-149924809D01*
X162527000Y-149946250D01*
X162527000Y-150383750D01*
X162525947Y-150405191D01*
X162522797Y-150426426D01*
X162517581Y-150447250D01*
X162510349Y-150467462D01*
X162501170Y-150486868D01*
X162490134Y-150505281D01*
X162477346Y-150522524D01*
X162462930Y-150538430D01*
X162447024Y-150552846D01*
X162429781Y-150565634D01*
X162411368Y-150576670D01*
X162391962Y-150585849D01*
X162371750Y-150593081D01*
X162350926Y-150598297D01*
X162329691Y-150601447D01*
X162308250Y-150602500D01*
X161795750Y-150602500D01*
X161774309Y-150601447D01*
X161753074Y-150598297D01*
X161732250Y-150593081D01*
X161712038Y-150585849D01*
X161692632Y-150576670D01*
X161674219Y-150565634D01*
X161656976Y-150552846D01*
X161641070Y-150538430D01*
X161626654Y-150522524D01*
X161613866Y-150505281D01*
X161602830Y-150486868D01*
X161593651Y-150467462D01*
X161586419Y-150447250D01*
X161581203Y-150426426D01*
X161578053Y-150405191D01*
X161577000Y-150383750D01*
X161577000Y-149946250D01*
X161578053Y-149924809D01*
X161581203Y-149903574D01*
X161586419Y-149882750D01*
X161593651Y-149862538D01*
X161602830Y-149843132D01*
X161613866Y-149824719D01*
X161626654Y-149807476D01*
X161641070Y-149791570D01*
X161656976Y-149777154D01*
X161674219Y-149764366D01*
X161692632Y-149753330D01*
X161712038Y-149744151D01*
X161732250Y-149736919D01*
X161753074Y-149731703D01*
X161774309Y-149728553D01*
X161795750Y-149727500D01*
X162308250Y-149727500D01*
X162329691Y-149728553D01*
X162329691Y-149728553D01*
G37*
D18*
X162052000Y-150165000D03*
D22*
X151130000Y-153670000D03*
X169630000Y-153670000D03*
X169630000Y-151130000D03*
X169630000Y-142970000D03*
X169630000Y-140410000D03*
D23*
X144740000Y-142240000D03*
X139740000Y-142240000D03*
X144740000Y-96520000D03*
X139740000Y-96520000D03*
D24*
X157988000Y-130302000D03*
X157988000Y-114554000D03*
X160655000Y-109220000D03*
X160102590Y-123825000D03*
X163449000Y-145923000D03*
X150622000Y-144526000D03*
X150622000Y-145669000D03*
X162433000Y-144907000D03*
X157480000Y-106680000D03*
X156419600Y-116450106D03*
X156718000Y-123952000D03*
X159258000Y-117094000D03*
X159766000Y-130302000D03*
D25*
X149415000Y-109220000D02*
X149860000Y-109220000D01*
X155480000Y-100640000D02*
X155480000Y-98838000D01*
X154432000Y-97790000D02*
X151130000Y-97790000D01*
X151130000Y-97790000D02*
X148183590Y-100736410D01*
X148183590Y-100736410D02*
X148183590Y-107988590D01*
X155480000Y-98838000D02*
X154432000Y-97790000D01*
X148183590Y-107988590D02*
X149415000Y-109220000D01*
X157607000Y-114935000D02*
X157988000Y-114554000D01*
X157988000Y-130302000D02*
X157607000Y-129921000D01*
X157607000Y-129921000D02*
X157607000Y-114935000D01*
X155448000Y-151638000D02*
X155448000Y-150165000D01*
X158806999Y-151632002D02*
X158801001Y-151638000D01*
X158806999Y-150165000D02*
X158806999Y-151632002D01*
X162052000Y-151638000D02*
X162052000Y-150165000D01*
D26*
X143530000Y-114300000D02*
X140736000Y-114300000D01*
X145542000Y-112288000D02*
X143530000Y-114300000D01*
X145542000Y-100584000D02*
X145542000Y-112288000D01*
X144740000Y-96520000D02*
X144740000Y-99782000D01*
X144740000Y-99782000D02*
X145542000Y-100584000D01*
X144800000Y-113030000D02*
X145542000Y-112288000D01*
X142260000Y-113030000D02*
X144800000Y-113030000D01*
D25*
X155360001Y-103290001D02*
X156210000Y-104140000D01*
X154573590Y-102503590D02*
X155360001Y-103290001D01*
X154001896Y-98483590D02*
X154573590Y-99055284D01*
X152958104Y-98483590D02*
X154001896Y-98483590D01*
X152050710Y-99390984D02*
X152958104Y-98483590D01*
X154573590Y-99055284D02*
X154573590Y-102503590D01*
X152050710Y-100069290D02*
X152050710Y-99390984D01*
X151480000Y-100640000D02*
X152050710Y-100069290D01*
D26*
X144740000Y-136612000D02*
X144740000Y-142240000D01*
X140736000Y-119380000D02*
X144740000Y-119380000D01*
D27*
X144740000Y-119380000D02*
X144740000Y-136612000D01*
D25*
X155448000Y-153213000D02*
X158801001Y-153213000D01*
X158801001Y-153213000D02*
X162052000Y-153213000D01*
X169630000Y-145635000D02*
X169630000Y-142970000D01*
X162052000Y-153213000D02*
X169630000Y-145635000D01*
X155448000Y-153213000D02*
X154737000Y-153213000D01*
X154737000Y-153213000D02*
X154178000Y-152654000D01*
D28*
X148082000Y-140843000D02*
X148209000Y-140970000D01*
X148082000Y-139573000D02*
X148209000Y-139700000D01*
D11*
X149860000Y-139700000D02*
X148336000Y-139700000D01*
D28*
X148209000Y-139700000D02*
X148336000Y-139700000D01*
X148336000Y-139573000D02*
X148082000Y-139319000D01*
X148336000Y-139700000D02*
X148336000Y-139573000D01*
X148082000Y-138557000D02*
X148082000Y-139319000D01*
X148082000Y-139319000D02*
X148082000Y-139573000D01*
X148336000Y-139827000D02*
X148082000Y-140081000D01*
X148336000Y-139700000D02*
X148336000Y-139827000D01*
X148082000Y-139573000D02*
X148082000Y-140081000D01*
X148082000Y-140081000D02*
X148082000Y-140843000D01*
D11*
X170180000Y-120650000D02*
X170180000Y-124079000D01*
D25*
X158750000Y-102937919D02*
X158750000Y-104140000D01*
X158386410Y-102574329D02*
X158750000Y-102937919D01*
X158958104Y-98483590D02*
X158386410Y-99055284D01*
X160167828Y-98483590D02*
X158958104Y-98483590D01*
X162233362Y-97924780D02*
X160726638Y-97924780D01*
X163480000Y-99171418D02*
X162233362Y-97924780D01*
X158386410Y-99055284D02*
X158386410Y-102574329D01*
X160726638Y-97924780D02*
X160167828Y-98483590D01*
X163480000Y-100640000D02*
X163480000Y-99171418D01*
D11*
X158750000Y-107442000D02*
X158750000Y-104140000D01*
X153924000Y-112268000D02*
X158750000Y-107442000D01*
X153924000Y-131001000D02*
X153924000Y-112268000D01*
X149860000Y-134620000D02*
X150305000Y-134620000D01*
X150305000Y-134620000D02*
X153924000Y-131001000D01*
D25*
X161261724Y-104140000D02*
X161290000Y-104140000D01*
X161480000Y-103950000D02*
X161290000Y-104140000D01*
X161480000Y-100640000D02*
X161480000Y-103950000D01*
X164655000Y-129540000D02*
X165100000Y-129540000D01*
X163068000Y-127953000D02*
X164655000Y-129540000D01*
X164222114Y-120611410D02*
X163068000Y-121765524D01*
X162598590Y-105448590D02*
X166055066Y-105448590D01*
X166055066Y-105448590D02*
X166776410Y-106169934D01*
X166776410Y-106169934D02*
X166776410Y-119898314D01*
X161290000Y-104140000D02*
X162598590Y-105448590D01*
X166776410Y-119898314D02*
X166063314Y-120611410D01*
X166063314Y-120611410D02*
X164222114Y-120611410D01*
D28*
X163068000Y-125413000D02*
X163068000Y-124460000D01*
X164655000Y-127000000D02*
X163068000Y-125413000D01*
X165100000Y-127000000D02*
X164655000Y-127000000D01*
D25*
X163068000Y-121765524D02*
X163068000Y-124460000D01*
X163068000Y-124460000D02*
X163068000Y-127953000D01*
X162573590Y-102883590D02*
X162980001Y-103290001D01*
X162980001Y-103290001D02*
X163830000Y-104140000D01*
X162573590Y-99055284D02*
X162573590Y-102883590D01*
X160958104Y-98483590D02*
X162001896Y-98483590D01*
X160050710Y-99390984D02*
X160958104Y-98483590D01*
X160050710Y-100069290D02*
X160050710Y-99390984D01*
X162001896Y-98483590D02*
X162573590Y-99055284D01*
X159480000Y-100640000D02*
X160050710Y-100069290D01*
X165545000Y-121920000D02*
X165100000Y-121920000D01*
X167386000Y-120079000D02*
X165545000Y-121920000D01*
X167386000Y-105410000D02*
X167386000Y-120079000D01*
X163830000Y-104140000D02*
X166116000Y-104140000D01*
X166116000Y-104140000D02*
X167386000Y-105410000D01*
D28*
X165100000Y-123381000D02*
X165100000Y-121920000D01*
X165100000Y-124460000D02*
X165100000Y-123381000D01*
X160102590Y-109772410D02*
X160102590Y-123259315D01*
X160102590Y-123259315D02*
X160102590Y-123825000D01*
X160655000Y-109220000D02*
X160102590Y-109772410D01*
D29*
X168977919Y-102870000D02*
X170180000Y-102870000D01*
X168300410Y-138404590D02*
X168300410Y-103547509D01*
X168300410Y-103547509D02*
X168977919Y-102870000D01*
X165989000Y-145923000D02*
X167513000Y-144399000D01*
X163449000Y-145923000D02*
X165989000Y-145923000D01*
X167513000Y-144399000D02*
X167513000Y-139065000D01*
X167513000Y-139065000D02*
X167740999Y-138837001D01*
X167740999Y-138837001D02*
X167867999Y-138837001D01*
X167867999Y-138837001D02*
X168300410Y-138404590D01*
X151130000Y-153670000D02*
X151130000Y-147701000D01*
X151130000Y-147701000D02*
X150622000Y-147193000D01*
X150622000Y-147193000D02*
X150622000Y-145669000D01*
X150622000Y-145669000D02*
X150622000Y-144526000D01*
X163449000Y-145923000D02*
X162433000Y-144907000D01*
D25*
X163525200Y-106680000D02*
X165100000Y-106680000D01*
X157480000Y-100640000D02*
X157480000Y-104729474D01*
X157480000Y-104729474D02*
X157480000Y-106680000D01*
X150305000Y-129540000D02*
X149860000Y-129540000D01*
X152413599Y-127431401D02*
X150305000Y-129540000D01*
X153480000Y-100640000D02*
X152413599Y-101706401D01*
X152413599Y-101706401D02*
X152413599Y-127431401D01*
D26*
X140736000Y-104140000D02*
X138450000Y-106426000D01*
D30*
X139700000Y-125476000D02*
X137668000Y-123444000D01*
X139700000Y-125476000D02*
X137949941Y-127226059D01*
D29*
X139700000Y-125476000D02*
X141224000Y-127000000D01*
X139700000Y-125476000D02*
X141224000Y-123952000D01*
D26*
X139740000Y-138212000D02*
X139704000Y-138176000D01*
D29*
X139740000Y-142240000D02*
X138176000Y-142240000D01*
X138176000Y-142240000D02*
X137160000Y-141224000D01*
D26*
X139740000Y-142240000D02*
X139740000Y-139152000D01*
D25*
X155448000Y-117421706D02*
X155448000Y-148590000D01*
X156419600Y-116450106D02*
X155448000Y-117421706D01*
X156718000Y-146501001D02*
X158806999Y-148590000D01*
X156718000Y-123952000D02*
X156718000Y-146501001D01*
X164655000Y-114300000D02*
X165100000Y-114300000D01*
X160909000Y-118046000D02*
X164655000Y-114300000D01*
X160909000Y-147447000D02*
X160909000Y-118046000D01*
X162052000Y-148590000D02*
X160909000Y-147447000D01*
X159766000Y-129413000D02*
X159766000Y-130302000D01*
X159004000Y-128651000D02*
X159766000Y-129413000D01*
X159258000Y-117094000D02*
X159004000Y-117348000D01*
X159004000Y-117348000D02*
X159004000Y-128651000D01*
D11*
X169630000Y-151130000D02*
X169630000Y-153670000D01*
X153162000Y-152908000D02*
X154686000Y-154432000D01*
X149860000Y-142240000D02*
X151765000Y-142240000D01*
X151765000Y-142240000D02*
X153162000Y-143637000D01*
X168630001Y-152129999D02*
X169630000Y-151130000D01*
X166328000Y-154432000D02*
X168630001Y-152129999D01*
X154686000Y-154432000D02*
X166328000Y-154432000D01*
X153162000Y-143637000D02*
X153162000Y-152908000D01*
D28*
G36*
X144867000Y-99246250D02*
G01*
X145025750Y-99405000D01*
X146990000Y-99408072D01*
X147114482Y-99395812D01*
X147193000Y-99371994D01*
X147193000Y-113993394D01*
X144981394Y-116205000D01*
X143602394Y-116205000D01*
X143663371Y-116077117D01*
X143735339Y-115793589D01*
X143750611Y-115501469D01*
X143708599Y-115211981D01*
X143610919Y-114936253D01*
X143537472Y-114798843D01*
X143288397Y-114721208D01*
X143019048Y-114990557D01*
X143092696Y-114735185D01*
X143132313Y-114267054D01*
X143079842Y-113800189D01*
X143019130Y-113609525D01*
X143288397Y-113878792D01*
X143537472Y-113801157D01*
X143663371Y-113537117D01*
X143735339Y-113253589D01*
X143750611Y-112961469D01*
X143708599Y-112671981D01*
X143610919Y-112396253D01*
X143537472Y-112258843D01*
X143288397Y-112181208D01*
X142569964Y-112899641D01*
X142405610Y-112809998D01*
X142519979Y-112695629D01*
X142467373Y-112643023D01*
X143108792Y-112001603D01*
X143031157Y-111752528D01*
X142767117Y-111626629D01*
X142745772Y-111621211D01*
X142843097Y-111580898D01*
X143044717Y-111446180D01*
X143216180Y-111274717D01*
X143350898Y-111073097D01*
X143443693Y-110849069D01*
X143491000Y-110611243D01*
X143491000Y-110368757D01*
X143443693Y-110130931D01*
X143350898Y-109906903D01*
X143216180Y-109705283D01*
X143044717Y-109533820D01*
X142867000Y-109415073D01*
X142867000Y-109024927D01*
X143044717Y-108906180D01*
X143216180Y-108734717D01*
X143350898Y-108533097D01*
X143443693Y-108309069D01*
X143491000Y-108071243D01*
X143491000Y-107828757D01*
X143443693Y-107590931D01*
X143350898Y-107366903D01*
X143216180Y-107165283D01*
X143044717Y-106993820D01*
X142843097Y-106859102D01*
X142619069Y-106766307D01*
X142482254Y-106739093D01*
X142484264Y-106620508D01*
X142619069Y-106593693D01*
X142843097Y-106500898D01*
X143044717Y-106366180D01*
X143216180Y-106194717D01*
X143350898Y-105993097D01*
X143443693Y-105769069D01*
X143491000Y-105531243D01*
X143491000Y-105288757D01*
X143443693Y-105050931D01*
X143350898Y-104826903D01*
X143216180Y-104625283D01*
X143044717Y-104453820D01*
X142867000Y-104335073D01*
X142867000Y-103944927D01*
X143044717Y-103826180D01*
X143216180Y-103654717D01*
X143350898Y-103453097D01*
X143443693Y-103229069D01*
X143491000Y-102991243D01*
X143491000Y-102748757D01*
X143443693Y-102510931D01*
X143350898Y-102286903D01*
X143216180Y-102085283D01*
X143044717Y-101913820D01*
X142843097Y-101779102D01*
X142619069Y-101686307D01*
X142568067Y-101676162D01*
X142606512Y-99407890D01*
X144454250Y-99405000D01*
X144613000Y-99246250D01*
X144613000Y-98679000D01*
X144867000Y-98679000D01*
X144867000Y-99246250D01*
X144867000Y-99246250D01*
G37*
X144867000Y-99246250D02*
X145025750Y-99405000D01*
X146990000Y-99408072D01*
X147114482Y-99395812D01*
X147193000Y-99371994D01*
X147193000Y-113993394D01*
X144981394Y-116205000D01*
X143602394Y-116205000D01*
X143663371Y-116077117D01*
X143735339Y-115793589D01*
X143750611Y-115501469D01*
X143708599Y-115211981D01*
X143610919Y-114936253D01*
X143537472Y-114798843D01*
X143288397Y-114721208D01*
X143019048Y-114990557D01*
X143092696Y-114735185D01*
X143132313Y-114267054D01*
X143079842Y-113800189D01*
X143019130Y-113609525D01*
X143288397Y-113878792D01*
X143537472Y-113801157D01*
X143663371Y-113537117D01*
X143735339Y-113253589D01*
X143750611Y-112961469D01*
X143708599Y-112671981D01*
X143610919Y-112396253D01*
X143537472Y-112258843D01*
X143288397Y-112181208D01*
X142569964Y-112899641D01*
X142405610Y-112809998D01*
X142519979Y-112695629D01*
X142467373Y-112643023D01*
X143108792Y-112001603D01*
X143031157Y-111752528D01*
X142767117Y-111626629D01*
X142745772Y-111621211D01*
X142843097Y-111580898D01*
X143044717Y-111446180D01*
X143216180Y-111274717D01*
X143350898Y-111073097D01*
X143443693Y-110849069D01*
X143491000Y-110611243D01*
X143491000Y-110368757D01*
X143443693Y-110130931D01*
X143350898Y-109906903D01*
X143216180Y-109705283D01*
X143044717Y-109533820D01*
X142867000Y-109415073D01*
X142867000Y-109024927D01*
X143044717Y-108906180D01*
X143216180Y-108734717D01*
X143350898Y-108533097D01*
X143443693Y-108309069D01*
X143491000Y-108071243D01*
X143491000Y-107828757D01*
X143443693Y-107590931D01*
X143350898Y-107366903D01*
X143216180Y-107165283D01*
X143044717Y-106993820D01*
X142843097Y-106859102D01*
X142619069Y-106766307D01*
X142482254Y-106739093D01*
X142484264Y-106620508D01*
X142619069Y-106593693D01*
X142843097Y-106500898D01*
X143044717Y-106366180D01*
X143216180Y-106194717D01*
X143350898Y-105993097D01*
X143443693Y-105769069D01*
X143491000Y-105531243D01*
X143491000Y-105288757D01*
X143443693Y-105050931D01*
X143350898Y-104826903D01*
X143216180Y-104625283D01*
X143044717Y-104453820D01*
X142867000Y-104335073D01*
X142867000Y-103944927D01*
X143044717Y-103826180D01*
X143216180Y-103654717D01*
X143350898Y-103453097D01*
X143443693Y-103229069D01*
X143491000Y-102991243D01*
X143491000Y-102748757D01*
X143443693Y-102510931D01*
X143350898Y-102286903D01*
X143216180Y-102085283D01*
X143044717Y-101913820D01*
X142843097Y-101779102D01*
X142619069Y-101686307D01*
X142568067Y-101676162D01*
X142606512Y-99407890D01*
X144454250Y-99405000D01*
X144613000Y-99246250D01*
X144613000Y-98679000D01*
X144867000Y-98679000D01*
X144867000Y-99246250D01*
G36*
X140736000Y-103960395D02*
G01*
X140750143Y-103946253D01*
X140793585Y-103989695D01*
X140685198Y-104016792D01*
X140661753Y-104025168D01*
X140640393Y-104037958D01*
X140621938Y-104054669D01*
X140607098Y-104074659D01*
X140596444Y-104097160D01*
X140590383Y-104121308D01*
X140589000Y-104140000D01*
X140589000Y-104466605D01*
X139245997Y-105809609D01*
X139432073Y-106150766D01*
X139849409Y-106366513D01*
X140300815Y-106496696D01*
X140589000Y-106521085D01*
X140589000Y-107089000D01*
X140526115Y-107089000D01*
X140114410Y-107170893D01*
X139726593Y-107331532D01*
X139377567Y-107564744D01*
X139080744Y-107861567D01*
X138847532Y-108210593D01*
X138686893Y-108598410D01*
X138605000Y-109010115D01*
X138605000Y-109429885D01*
X138686893Y-109841590D01*
X138847532Y-110229407D01*
X139080744Y-110578433D01*
X139377567Y-110875256D01*
X139726593Y-111108468D01*
X140114410Y-111269107D01*
X140526115Y-111351000D01*
X140589000Y-111351000D01*
X140589000Y-112169000D01*
X140526115Y-112169000D01*
X140114410Y-112250893D01*
X139726593Y-112411532D01*
X139377567Y-112644744D01*
X139080744Y-112941567D01*
X138847532Y-113290593D01*
X138686893Y-113678410D01*
X138605000Y-114090115D01*
X138605000Y-114509885D01*
X138686893Y-114921590D01*
X138847532Y-115309407D01*
X139080744Y-115658433D01*
X139377567Y-115955256D01*
X139726593Y-116188468D01*
X140114410Y-116349107D01*
X140526115Y-116431000D01*
X140589000Y-116431000D01*
X140589000Y-117249000D01*
X140526115Y-117249000D01*
X140114410Y-117330893D01*
X139726593Y-117491532D01*
X139377567Y-117724744D01*
X139080744Y-118021567D01*
X138847532Y-118370593D01*
X138686893Y-118758410D01*
X138605000Y-119170115D01*
X138605000Y-119589885D01*
X138686893Y-120001590D01*
X138847532Y-120389407D01*
X139080744Y-120738433D01*
X139377567Y-121035256D01*
X139726593Y-121268468D01*
X140114410Y-121429107D01*
X140526115Y-121511000D01*
X140945885Y-121511000D01*
X141027157Y-121494834D01*
X141027157Y-121500000D01*
X141034513Y-121574689D01*
X141056299Y-121646508D01*
X141091678Y-121712696D01*
X141139289Y-121770711D01*
X141197304Y-121818322D01*
X141263492Y-121853701D01*
X141335311Y-121875487D01*
X141410000Y-121882843D01*
X141605000Y-121882843D01*
X141605000Y-124114323D01*
X141369651Y-123985954D01*
X139879605Y-125476000D01*
X141369651Y-126966046D01*
X141605000Y-126837677D01*
X141605000Y-139352530D01*
X140025750Y-139355000D01*
X139867000Y-139513750D01*
X139867000Y-142113000D01*
X139887000Y-142113000D01*
X139887000Y-142367000D01*
X139867000Y-142367000D01*
X139867000Y-142387000D01*
X139613000Y-142387000D01*
X139613000Y-142367000D01*
X139593000Y-142367000D01*
X139593000Y-142113000D01*
X139613000Y-142113000D01*
X139613000Y-139513750D01*
X139454250Y-139355000D01*
X137490000Y-139351928D01*
X137365518Y-139364188D01*
X137245820Y-139400498D01*
X137135506Y-139459463D01*
X137038815Y-139538815D01*
X136959463Y-139635506D01*
X136900498Y-139745820D01*
X136864188Y-139865518D01*
X136851928Y-139990000D01*
X136854291Y-141500685D01*
X136525094Y-141171488D01*
X136532471Y-137048028D01*
X136659186Y-137174743D01*
X136983645Y-137391539D01*
X137344164Y-137540871D01*
X137726889Y-137617000D01*
X138117111Y-137617000D01*
X138499836Y-137540871D01*
X138860355Y-137391539D01*
X139184814Y-137174743D01*
X139460743Y-136898814D01*
X139677539Y-136574355D01*
X139826871Y-136213836D01*
X139903000Y-135831111D01*
X139903000Y-135440889D01*
X139826871Y-135058164D01*
X139677539Y-134697645D01*
X139460743Y-134373186D01*
X139184814Y-134097257D01*
X138860355Y-133880461D01*
X138499836Y-133731129D01*
X138117111Y-133655000D01*
X137726889Y-133655000D01*
X137344164Y-133731129D01*
X136983645Y-133880461D01*
X136659186Y-134097257D01*
X136537532Y-134218911D01*
X136550185Y-127145651D01*
X138209954Y-127145651D01*
X138396039Y-127486815D01*
X138813384Y-127702568D01*
X139264802Y-127832755D01*
X139732944Y-127872374D01*
X140199821Y-127819901D01*
X140647489Y-127677354D01*
X141003961Y-127486815D01*
X141190046Y-127145651D01*
X139700000Y-125655605D01*
X138209954Y-127145651D01*
X136550185Y-127145651D01*
X136553113Y-125508944D01*
X137303626Y-125508944D01*
X137356099Y-125975821D01*
X137498646Y-126423489D01*
X137689185Y-126779961D01*
X138030349Y-126966046D01*
X139520395Y-125476000D01*
X138030349Y-123985954D01*
X137689185Y-124172039D01*
X137473432Y-124589384D01*
X137343245Y-125040802D01*
X137303626Y-125508944D01*
X136553113Y-125508944D01*
X136556158Y-123806349D01*
X138209954Y-123806349D01*
X139700000Y-125296395D01*
X141190046Y-123806349D01*
X141003961Y-123465185D01*
X140586616Y-123249432D01*
X140135198Y-123119245D01*
X139667056Y-123079626D01*
X139200179Y-123132099D01*
X138752511Y-123274646D01*
X138396039Y-123465185D01*
X138209954Y-123806349D01*
X136556158Y-123806349D01*
X136588405Y-105780923D01*
X138349804Y-104053397D01*
X138339687Y-104172946D01*
X138392158Y-104639811D01*
X138534703Y-105087468D01*
X138725234Y-105443927D01*
X139066391Y-105630003D01*
X140556395Y-104140000D01*
X140542252Y-104125858D01*
X140721858Y-103946252D01*
X140736000Y-103960395D01*
X140736000Y-103960395D01*
G37*
X140736000Y-103960395D02*
X140750143Y-103946253D01*
X140793585Y-103989695D01*
X140685198Y-104016792D01*
X140661753Y-104025168D01*
X140640393Y-104037958D01*
X140621938Y-104054669D01*
X140607098Y-104074659D01*
X140596444Y-104097160D01*
X140590383Y-104121308D01*
X140589000Y-104140000D01*
X140589000Y-104466605D01*
X139245997Y-105809609D01*
X139432073Y-106150766D01*
X139849409Y-106366513D01*
X140300815Y-106496696D01*
X140589000Y-106521085D01*
X140589000Y-107089000D01*
X140526115Y-107089000D01*
X140114410Y-107170893D01*
X139726593Y-107331532D01*
X139377567Y-107564744D01*
X139080744Y-107861567D01*
X138847532Y-108210593D01*
X138686893Y-108598410D01*
X138605000Y-109010115D01*
X138605000Y-109429885D01*
X138686893Y-109841590D01*
X138847532Y-110229407D01*
X139080744Y-110578433D01*
X139377567Y-110875256D01*
X139726593Y-111108468D01*
X140114410Y-111269107D01*
X140526115Y-111351000D01*
X140589000Y-111351000D01*
X140589000Y-112169000D01*
X140526115Y-112169000D01*
X140114410Y-112250893D01*
X139726593Y-112411532D01*
X139377567Y-112644744D01*
X139080744Y-112941567D01*
X138847532Y-113290593D01*
X138686893Y-113678410D01*
X138605000Y-114090115D01*
X138605000Y-114509885D01*
X138686893Y-114921590D01*
X138847532Y-115309407D01*
X139080744Y-115658433D01*
X139377567Y-115955256D01*
X139726593Y-116188468D01*
X140114410Y-116349107D01*
X140526115Y-116431000D01*
X140589000Y-116431000D01*
X140589000Y-117249000D01*
X140526115Y-117249000D01*
X140114410Y-117330893D01*
X139726593Y-117491532D01*
X139377567Y-117724744D01*
X139080744Y-118021567D01*
X138847532Y-118370593D01*
X138686893Y-118758410D01*
X138605000Y-119170115D01*
X138605000Y-119589885D01*
X138686893Y-120001590D01*
X138847532Y-120389407D01*
X139080744Y-120738433D01*
X139377567Y-121035256D01*
X139726593Y-121268468D01*
X140114410Y-121429107D01*
X140526115Y-121511000D01*
X140945885Y-121511000D01*
X141027157Y-121494834D01*
X141027157Y-121500000D01*
X141034513Y-121574689D01*
X141056299Y-121646508D01*
X141091678Y-121712696D01*
X141139289Y-121770711D01*
X141197304Y-121818322D01*
X141263492Y-121853701D01*
X141335311Y-121875487D01*
X141410000Y-121882843D01*
X141605000Y-121882843D01*
X141605000Y-124114323D01*
X141369651Y-123985954D01*
X139879605Y-125476000D01*
X141369651Y-126966046D01*
X141605000Y-126837677D01*
X141605000Y-139352530D01*
X140025750Y-139355000D01*
X139867000Y-139513750D01*
X139867000Y-142113000D01*
X139887000Y-142113000D01*
X139887000Y-142367000D01*
X139867000Y-142367000D01*
X139867000Y-142387000D01*
X139613000Y-142387000D01*
X139613000Y-142367000D01*
X139593000Y-142367000D01*
X139593000Y-142113000D01*
X139613000Y-142113000D01*
X139613000Y-139513750D01*
X139454250Y-139355000D01*
X137490000Y-139351928D01*
X137365518Y-139364188D01*
X137245820Y-139400498D01*
X137135506Y-139459463D01*
X137038815Y-139538815D01*
X136959463Y-139635506D01*
X136900498Y-139745820D01*
X136864188Y-139865518D01*
X136851928Y-139990000D01*
X136854291Y-141500685D01*
X136525094Y-141171488D01*
X136532471Y-137048028D01*
X136659186Y-137174743D01*
X136983645Y-137391539D01*
X137344164Y-137540871D01*
X137726889Y-137617000D01*
X138117111Y-137617000D01*
X138499836Y-137540871D01*
X138860355Y-137391539D01*
X139184814Y-137174743D01*
X139460743Y-136898814D01*
X139677539Y-136574355D01*
X139826871Y-136213836D01*
X139903000Y-135831111D01*
X139903000Y-135440889D01*
X139826871Y-135058164D01*
X139677539Y-134697645D01*
X139460743Y-134373186D01*
X139184814Y-134097257D01*
X138860355Y-133880461D01*
X138499836Y-133731129D01*
X138117111Y-133655000D01*
X137726889Y-133655000D01*
X137344164Y-133731129D01*
X136983645Y-133880461D01*
X136659186Y-134097257D01*
X136537532Y-134218911D01*
X136550185Y-127145651D01*
X138209954Y-127145651D01*
X138396039Y-127486815D01*
X138813384Y-127702568D01*
X139264802Y-127832755D01*
X139732944Y-127872374D01*
X140199821Y-127819901D01*
X140647489Y-127677354D01*
X141003961Y-127486815D01*
X141190046Y-127145651D01*
X139700000Y-125655605D01*
X138209954Y-127145651D01*
X136550185Y-127145651D01*
X136553113Y-125508944D01*
X137303626Y-125508944D01*
X137356099Y-125975821D01*
X137498646Y-126423489D01*
X137689185Y-126779961D01*
X138030349Y-126966046D01*
X139520395Y-125476000D01*
X138030349Y-123985954D01*
X137689185Y-124172039D01*
X137473432Y-124589384D01*
X137343245Y-125040802D01*
X137303626Y-125508944D01*
X136553113Y-125508944D01*
X136556158Y-123806349D01*
X138209954Y-123806349D01*
X139700000Y-125296395D01*
X141190046Y-123806349D01*
X141003961Y-123465185D01*
X140586616Y-123249432D01*
X140135198Y-123119245D01*
X139667056Y-123079626D01*
X139200179Y-123132099D01*
X138752511Y-123274646D01*
X138396039Y-123465185D01*
X138209954Y-123806349D01*
X136556158Y-123806349D01*
X136588405Y-105780923D01*
X138349804Y-104053397D01*
X138339687Y-104172946D01*
X138392158Y-104639811D01*
X138534703Y-105087468D01*
X138725234Y-105443927D01*
X139066391Y-105630003D01*
X140556395Y-104140000D01*
X140542252Y-104125858D01*
X140721858Y-103946252D01*
X140736000Y-103960395D01*
G36*
X147193000Y-119681251D02*
G01*
X147193000Y-138885394D01*
X146726053Y-139352341D01*
X145025750Y-139355000D01*
X144867000Y-139513750D01*
X144867000Y-140081000D01*
X144613000Y-140081000D01*
X144613000Y-139513750D01*
X144454250Y-139355000D01*
X142668773Y-139352208D01*
X142367000Y-138899548D01*
X142367000Y-136035651D01*
X143289954Y-136035651D01*
X143476039Y-136376815D01*
X143893384Y-136592568D01*
X144344802Y-136722755D01*
X144812944Y-136762374D01*
X145279821Y-136709901D01*
X145727489Y-136567354D01*
X146083961Y-136376815D01*
X146270046Y-136035651D01*
X144780000Y-134545605D01*
X143289954Y-136035651D01*
X142367000Y-136035651D01*
X142367000Y-134398944D01*
X142383626Y-134398944D01*
X142436099Y-134865821D01*
X142578646Y-135313489D01*
X142769185Y-135669961D01*
X143110349Y-135856046D01*
X144600395Y-134366000D01*
X144959605Y-134366000D01*
X146449651Y-135856046D01*
X146790815Y-135669961D01*
X147006568Y-135252616D01*
X147136755Y-134801198D01*
X147176374Y-134333056D01*
X147123901Y-133866179D01*
X146981354Y-133418511D01*
X146790815Y-133062039D01*
X146449651Y-132875954D01*
X144959605Y-134366000D01*
X144600395Y-134366000D01*
X143110349Y-132875954D01*
X142769185Y-133062039D01*
X142553432Y-133479384D01*
X142423245Y-133930802D01*
X142383626Y-134398944D01*
X142367000Y-134398944D01*
X142367000Y-132696349D01*
X143289954Y-132696349D01*
X144780000Y-134186395D01*
X146270046Y-132696349D01*
X146083961Y-132355185D01*
X145666616Y-132139432D01*
X145215198Y-132009245D01*
X144747056Y-131969626D01*
X144280179Y-132022099D01*
X143832511Y-132164646D01*
X143476039Y-132355185D01*
X143289954Y-132696349D01*
X142367000Y-132696349D01*
X142367000Y-122135000D01*
X142387002Y-122135000D01*
X142387002Y-121976252D01*
X142545750Y-122135000D01*
X143110000Y-122138072D01*
X143234482Y-122125812D01*
X143354180Y-122089502D01*
X143464494Y-122030537D01*
X143561185Y-121951185D01*
X143640537Y-121854494D01*
X143699502Y-121744180D01*
X143735812Y-121624482D01*
X143748072Y-121500000D01*
X143745000Y-120935750D01*
X143586250Y-120777000D01*
X142576123Y-120777000D01*
X142746766Y-120683927D01*
X142829959Y-120523000D01*
X143586250Y-120523000D01*
X143745000Y-120364250D01*
X143748072Y-119800000D01*
X143735812Y-119675518D01*
X143699502Y-119555820D01*
X143640537Y-119445506D01*
X143561185Y-119348815D01*
X143464494Y-119269463D01*
X143354180Y-119210498D01*
X143234482Y-119174188D01*
X143111524Y-119162078D01*
X143079842Y-118880189D01*
X143019130Y-118689525D01*
X143288397Y-118958792D01*
X143537472Y-118881157D01*
X143663371Y-118617117D01*
X143735339Y-118333589D01*
X143750611Y-118041469D01*
X143708599Y-117751981D01*
X143610919Y-117476253D01*
X143537472Y-117338843D01*
X143288397Y-117261208D01*
X142569964Y-117979641D01*
X142405610Y-117889998D01*
X142519979Y-117775629D01*
X142467373Y-117723023D01*
X143108792Y-117081603D01*
X143073071Y-116967000D01*
X144848874Y-116967000D01*
X147193000Y-119681251D01*
X147193000Y-119681251D01*
G37*
X147193000Y-119681251D02*
X147193000Y-138885394D01*
X146726053Y-139352341D01*
X145025750Y-139355000D01*
X144867000Y-139513750D01*
X144867000Y-140081000D01*
X144613000Y-140081000D01*
X144613000Y-139513750D01*
X144454250Y-139355000D01*
X142668773Y-139352208D01*
X142367000Y-138899548D01*
X142367000Y-136035651D01*
X143289954Y-136035651D01*
X143476039Y-136376815D01*
X143893384Y-136592568D01*
X144344802Y-136722755D01*
X144812944Y-136762374D01*
X145279821Y-136709901D01*
X145727489Y-136567354D01*
X146083961Y-136376815D01*
X146270046Y-136035651D01*
X144780000Y-134545605D01*
X143289954Y-136035651D01*
X142367000Y-136035651D01*
X142367000Y-134398944D01*
X142383626Y-134398944D01*
X142436099Y-134865821D01*
X142578646Y-135313489D01*
X142769185Y-135669961D01*
X143110349Y-135856046D01*
X144600395Y-134366000D01*
X144959605Y-134366000D01*
X146449651Y-135856046D01*
X146790815Y-135669961D01*
X147006568Y-135252616D01*
X147136755Y-134801198D01*
X147176374Y-134333056D01*
X147123901Y-133866179D01*
X146981354Y-133418511D01*
X146790815Y-133062039D01*
X146449651Y-132875954D01*
X144959605Y-134366000D01*
X144600395Y-134366000D01*
X143110349Y-132875954D01*
X142769185Y-133062039D01*
X142553432Y-133479384D01*
X142423245Y-133930802D01*
X142383626Y-134398944D01*
X142367000Y-134398944D01*
X142367000Y-132696349D01*
X143289954Y-132696349D01*
X144780000Y-134186395D01*
X146270046Y-132696349D01*
X146083961Y-132355185D01*
X145666616Y-132139432D01*
X145215198Y-132009245D01*
X144747056Y-131969626D01*
X144280179Y-132022099D01*
X143832511Y-132164646D01*
X143476039Y-132355185D01*
X143289954Y-132696349D01*
X142367000Y-132696349D01*
X142367000Y-122135000D01*
X142387002Y-122135000D01*
X142387002Y-121976252D01*
X142545750Y-122135000D01*
X143110000Y-122138072D01*
X143234482Y-122125812D01*
X143354180Y-122089502D01*
X143464494Y-122030537D01*
X143561185Y-121951185D01*
X143640537Y-121854494D01*
X143699502Y-121744180D01*
X143735812Y-121624482D01*
X143748072Y-121500000D01*
X143745000Y-120935750D01*
X143586250Y-120777000D01*
X142576123Y-120777000D01*
X142746766Y-120683927D01*
X142829959Y-120523000D01*
X143586250Y-120523000D01*
X143745000Y-120364250D01*
X143748072Y-119800000D01*
X143735812Y-119675518D01*
X143699502Y-119555820D01*
X143640537Y-119445506D01*
X143561185Y-119348815D01*
X143464494Y-119269463D01*
X143354180Y-119210498D01*
X143234482Y-119174188D01*
X143111524Y-119162078D01*
X143079842Y-118880189D01*
X143019130Y-118689525D01*
X143288397Y-118958792D01*
X143537472Y-118881157D01*
X143663371Y-118617117D01*
X143735339Y-118333589D01*
X143750611Y-118041469D01*
X143708599Y-117751981D01*
X143610919Y-117476253D01*
X143537472Y-117338843D01*
X143288397Y-117261208D01*
X142569964Y-117979641D01*
X142405610Y-117889998D01*
X142519979Y-117775629D01*
X142467373Y-117723023D01*
X143108792Y-117081603D01*
X143073071Y-116967000D01*
X144848874Y-116967000D01*
X147193000Y-119681251D01*
G36*
X147997157Y-93440000D02*
G01*
X147997157Y-96340000D01*
X148009317Y-96463462D01*
X148045329Y-96582179D01*
X148103810Y-96691589D01*
X148182512Y-96787488D01*
X148278411Y-96866190D01*
X148387821Y-96924671D01*
X148506538Y-96960683D01*
X148630000Y-96972843D01*
X149630000Y-96972843D01*
X149753462Y-96960683D01*
X149872179Y-96924671D01*
X149981589Y-96866190D01*
X150077488Y-96787488D01*
X150156190Y-96691589D01*
X150214671Y-96582179D01*
X150250683Y-96463462D01*
X150262843Y-96340000D01*
X150262843Y-93440000D01*
X150255949Y-93370000D01*
X164704051Y-93370000D01*
X164697157Y-93440000D01*
X164697157Y-96340000D01*
X164709317Y-96463462D01*
X164745329Y-96582179D01*
X164803810Y-96691589D01*
X164882512Y-96787488D01*
X164978411Y-96866190D01*
X165087821Y-96924671D01*
X165206538Y-96960683D01*
X165330000Y-96972843D01*
X166330000Y-96972843D01*
X166453462Y-96960683D01*
X166572179Y-96924671D01*
X166681589Y-96866190D01*
X166777488Y-96787488D01*
X166856190Y-96691589D01*
X166914671Y-96582179D01*
X166950683Y-96463462D01*
X166962843Y-96340000D01*
X166962843Y-95562889D01*
X168453000Y-95562889D01*
X168453000Y-95953111D01*
X168529129Y-96335836D01*
X168678461Y-96696355D01*
X168895257Y-97020814D01*
X169171186Y-97296743D01*
X169495645Y-97513539D01*
X169856164Y-97662871D01*
X170238889Y-97739000D01*
X170629111Y-97739000D01*
X171011836Y-97662871D01*
X171372355Y-97513539D01*
X171696814Y-97296743D01*
X171972743Y-97020814D01*
X172189539Y-96696355D01*
X172338871Y-96335836D01*
X172415000Y-95953111D01*
X172415000Y-95562889D01*
X172338871Y-95180164D01*
X172189539Y-94819645D01*
X171972743Y-94495186D01*
X171696814Y-94219257D01*
X171372355Y-94002461D01*
X171011836Y-93853129D01*
X170629111Y-93777000D01*
X170238889Y-93777000D01*
X169856164Y-93853129D01*
X169495645Y-94002461D01*
X169171186Y-94219257D01*
X168895257Y-94495186D01*
X168678461Y-94819645D01*
X168529129Y-95180164D01*
X168453000Y-95562889D01*
X166962843Y-95562889D01*
X166962843Y-93440000D01*
X166955949Y-93370000D01*
X172822000Y-93370000D01*
X172822001Y-155550000D01*
X145415000Y-155550000D01*
X145415000Y-148007606D01*
X146229606Y-147193000D01*
X149728700Y-147193000D01*
X149733000Y-147236660D01*
X149733000Y-147236666D01*
X149745864Y-147367273D01*
X149796697Y-147534850D01*
X149879247Y-147689290D01*
X149990341Y-147824659D01*
X150024264Y-147852499D01*
X150241001Y-148069236D01*
X150241000Y-152605971D01*
X150057307Y-152789664D01*
X149906174Y-153015851D01*
X149802071Y-153267177D01*
X149749000Y-153533983D01*
X149749000Y-153806017D01*
X149802071Y-154072823D01*
X149906174Y-154324149D01*
X150057307Y-154550336D01*
X150249664Y-154742693D01*
X150475851Y-154893826D01*
X150727177Y-154997929D01*
X150993983Y-155051000D01*
X151266017Y-155051000D01*
X151532823Y-154997929D01*
X151784149Y-154893826D01*
X152010336Y-154742693D01*
X152202693Y-154550336D01*
X152353826Y-154324149D01*
X152457929Y-154072823D01*
X152511000Y-153806017D01*
X152511000Y-153533983D01*
X152457929Y-153267177D01*
X152353826Y-153015851D01*
X152202693Y-152789664D01*
X152019000Y-152605971D01*
X152019000Y-147744659D01*
X152023300Y-147700999D01*
X152019000Y-147657339D01*
X152019000Y-147657333D01*
X152009406Y-147559924D01*
X152006136Y-147526724D01*
X151975296Y-147425058D01*
X151955303Y-147359149D01*
X151872753Y-147204709D01*
X151761659Y-147069341D01*
X151727736Y-147041501D01*
X151511000Y-146824765D01*
X151511000Y-144482333D01*
X151498136Y-144351726D01*
X151447303Y-144184149D01*
X151364753Y-144029709D01*
X151253659Y-143894341D01*
X151118291Y-143783247D01*
X150963851Y-143700697D01*
X150796274Y-143649864D01*
X150622000Y-143632699D01*
X150447727Y-143649864D01*
X150280150Y-143700697D01*
X150125710Y-143783247D01*
X149990342Y-143894341D01*
X149879248Y-144029709D01*
X149796698Y-144184149D01*
X149745865Y-144351726D01*
X149733001Y-144482333D01*
X149733000Y-145712666D01*
X149733001Y-145712676D01*
X149733000Y-147149340D01*
X149728700Y-147193000D01*
X146229606Y-147193000D01*
X148044803Y-145377803D01*
X148060597Y-145358557D01*
X148072333Y-145336601D01*
X148079560Y-145312776D01*
X148082000Y-145288000D01*
X148082000Y-140292132D01*
X148130496Y-140405535D01*
X148292821Y-140642573D01*
X148498270Y-140843388D01*
X148738949Y-141000263D01*
X149000995Y-141105320D01*
X148951251Y-141120410D01*
X148741741Y-141232396D01*
X148558103Y-141383103D01*
X148407396Y-141566741D01*
X148295410Y-141776251D01*
X148226450Y-142003583D01*
X148203165Y-142240000D01*
X148226450Y-142476417D01*
X148295410Y-142703749D01*
X148407396Y-142913259D01*
X148558103Y-143096897D01*
X148741741Y-143247604D01*
X148951251Y-143359590D01*
X149178583Y-143428550D01*
X149355756Y-143446000D01*
X150364244Y-143446000D01*
X150541417Y-143428550D01*
X150768749Y-143359590D01*
X150978259Y-143247604D01*
X151161897Y-143096897D01*
X151291889Y-142938500D01*
X151475673Y-142938500D01*
X152463500Y-143926328D01*
X152463501Y-152873692D01*
X152460122Y-152908000D01*
X152473608Y-153044929D01*
X152513549Y-153176598D01*
X152578409Y-153297943D01*
X152643826Y-153377653D01*
X152643830Y-153377657D01*
X152665698Y-153404303D01*
X152692344Y-153426171D01*
X154167829Y-154901657D01*
X154189697Y-154928303D01*
X154216343Y-154950171D01*
X154216345Y-154950173D01*
X154296056Y-155015591D01*
X154362302Y-155051000D01*
X154417403Y-155080452D01*
X154549070Y-155120393D01*
X154651691Y-155130500D01*
X154651701Y-155130500D01*
X154685999Y-155133878D01*
X154720297Y-155130500D01*
X166293702Y-155130500D01*
X166328000Y-155133878D01*
X166362298Y-155130500D01*
X166362309Y-155130500D01*
X166464930Y-155120393D01*
X166596597Y-155080452D01*
X166717943Y-155015591D01*
X166824303Y-154928303D01*
X166846175Y-154901652D01*
X168257729Y-153490098D01*
X168249000Y-153533983D01*
X168249000Y-153806017D01*
X168302071Y-154072823D01*
X168406174Y-154324149D01*
X168557307Y-154550336D01*
X168749664Y-154742693D01*
X168975851Y-154893826D01*
X169227177Y-154997929D01*
X169493983Y-155051000D01*
X169766017Y-155051000D01*
X170032823Y-154997929D01*
X170284149Y-154893826D01*
X170510336Y-154742693D01*
X170702693Y-154550336D01*
X170853826Y-154324149D01*
X170957929Y-154072823D01*
X171011000Y-153806017D01*
X171011000Y-153533983D01*
X170957929Y-153267177D01*
X170853826Y-153015851D01*
X170702693Y-152789664D01*
X170510336Y-152597307D01*
X170328500Y-152475808D01*
X170328500Y-152324192D01*
X170510336Y-152202693D01*
X170702693Y-152010336D01*
X170853826Y-151784149D01*
X170957929Y-151532823D01*
X171011000Y-151266017D01*
X171011000Y-150993983D01*
X170957929Y-150727177D01*
X170853826Y-150475851D01*
X170702693Y-150249664D01*
X170510336Y-150057307D01*
X170284149Y-149906174D01*
X170032823Y-149802071D01*
X169766017Y-149749000D01*
X169493983Y-149749000D01*
X169227177Y-149802071D01*
X168975851Y-149906174D01*
X168749664Y-150057307D01*
X168557307Y-150249664D01*
X168406174Y-150475851D01*
X168302071Y-150727177D01*
X168249000Y-150993983D01*
X168249000Y-151266017D01*
X168291665Y-151480508D01*
X168160352Y-151611821D01*
X168160347Y-151611825D01*
X166038673Y-153733500D01*
X163156897Y-153733500D01*
X163165072Y-153650500D01*
X163162000Y-153498750D01*
X163003250Y-153340000D01*
X162179000Y-153340000D01*
X162179000Y-153360000D01*
X161925000Y-153360000D01*
X161925000Y-153340000D01*
X161100750Y-153340000D01*
X160942000Y-153498750D01*
X160938928Y-153650500D01*
X160947103Y-153733500D01*
X159905898Y-153733500D01*
X159914073Y-153650500D01*
X159911001Y-153498750D01*
X159752251Y-153340000D01*
X158928001Y-153340000D01*
X158928001Y-153360000D01*
X158674001Y-153360000D01*
X158674001Y-153340000D01*
X157849751Y-153340000D01*
X157691001Y-153498750D01*
X157687929Y-153650500D01*
X157696104Y-153733500D01*
X156552897Y-153733500D01*
X156561072Y-153650500D01*
X156558000Y-153498750D01*
X156399250Y-153340000D01*
X155575000Y-153340000D01*
X155575000Y-153360000D01*
X155321000Y-153360000D01*
X155321000Y-153340000D01*
X155301000Y-153340000D01*
X155301000Y-153086000D01*
X155321000Y-153086000D01*
X155321000Y-153066000D01*
X155575000Y-153066000D01*
X155575000Y-153086000D01*
X156399250Y-153086000D01*
X156558000Y-152927250D01*
X156561072Y-152775500D01*
X156548812Y-152651018D01*
X156512502Y-152531320D01*
X156453537Y-152421006D01*
X156374185Y-152324315D01*
X156277494Y-152244963D01*
X156195930Y-152201366D01*
X156204456Y-152190977D01*
X156260049Y-152086970D01*
X156294284Y-151974115D01*
X156305843Y-151856750D01*
X156305843Y-151419250D01*
X156294284Y-151301885D01*
X156260049Y-151189030D01*
X156204456Y-151085023D01*
X156129640Y-150993860D01*
X156038477Y-150919044D01*
X156005655Y-150901500D01*
X156038477Y-150883956D01*
X156129640Y-150809140D01*
X156204456Y-150717977D01*
X156260049Y-150613970D01*
X156294284Y-150501115D01*
X156305843Y-150383750D01*
X156305843Y-149946250D01*
X156294284Y-149828885D01*
X156260049Y-149716030D01*
X156204456Y-149612023D01*
X156129640Y-149520860D01*
X156038477Y-149446044D01*
X155934470Y-149390451D01*
X155891777Y-149377500D01*
X155934470Y-149364549D01*
X156038477Y-149308956D01*
X156129640Y-149234140D01*
X156204456Y-149142977D01*
X156260049Y-149038970D01*
X156294284Y-148926115D01*
X156305843Y-148808750D01*
X156305843Y-148371250D01*
X156294284Y-148253885D01*
X156260049Y-148141030D01*
X156204456Y-148037023D01*
X156129640Y-147945860D01*
X156038477Y-147871044D01*
X155981400Y-147840536D01*
X155981400Y-124214542D01*
X156025887Y-124321942D01*
X156111358Y-124449859D01*
X156184600Y-124523101D01*
X156184601Y-146474804D01*
X156182021Y-146501001D01*
X156192319Y-146605565D01*
X156222819Y-146706111D01*
X156265953Y-146786808D01*
X156272350Y-146798776D01*
X156279673Y-146807699D01*
X156322307Y-146859649D01*
X156322310Y-146859652D01*
X156339006Y-146879996D01*
X156359350Y-146896692D01*
X157949156Y-148486498D01*
X157949156Y-148808750D01*
X157960715Y-148926115D01*
X157994950Y-149038970D01*
X158050543Y-149142977D01*
X158125359Y-149234140D01*
X158216522Y-149308956D01*
X158320529Y-149364549D01*
X158363222Y-149377500D01*
X158320529Y-149390451D01*
X158216522Y-149446044D01*
X158125359Y-149520860D01*
X158050543Y-149612023D01*
X157994950Y-149716030D01*
X157960715Y-149828885D01*
X157949156Y-149946250D01*
X157949156Y-150383750D01*
X157960715Y-150501115D01*
X157994950Y-150613970D01*
X158050543Y-150717977D01*
X158125359Y-150809140D01*
X158216522Y-150883956D01*
X158246345Y-150899897D01*
X158210524Y-150919044D01*
X158119361Y-150993860D01*
X158044545Y-151085023D01*
X157988952Y-151189030D01*
X157954717Y-151301885D01*
X157943158Y-151419250D01*
X157943158Y-151856750D01*
X157954717Y-151974115D01*
X157988952Y-152086970D01*
X158044545Y-152190977D01*
X158053071Y-152201366D01*
X157971507Y-152244963D01*
X157874816Y-152324315D01*
X157795464Y-152421006D01*
X157736499Y-152531320D01*
X157700189Y-152651018D01*
X157687929Y-152775500D01*
X157691001Y-152927250D01*
X157849751Y-153086000D01*
X158674001Y-153086000D01*
X158674001Y-153066000D01*
X158928001Y-153066000D01*
X158928001Y-153086000D01*
X159752251Y-153086000D01*
X159911001Y-152927250D01*
X159914073Y-152775500D01*
X159901813Y-152651018D01*
X159865503Y-152531320D01*
X159806538Y-152421006D01*
X159727186Y-152324315D01*
X159630495Y-152244963D01*
X159548931Y-152201366D01*
X159557457Y-152190977D01*
X159613050Y-152086970D01*
X159647285Y-151974115D01*
X159658844Y-151856750D01*
X159658844Y-151419250D01*
X159647285Y-151301885D01*
X159613050Y-151189030D01*
X159557457Y-151085023D01*
X159482641Y-150993860D01*
X159391478Y-150919044D01*
X159361655Y-150903103D01*
X159397476Y-150883956D01*
X159488639Y-150809140D01*
X159563455Y-150717977D01*
X159619048Y-150613970D01*
X159653283Y-150501115D01*
X159664842Y-150383750D01*
X159664842Y-149946250D01*
X159653283Y-149828885D01*
X159619048Y-149716030D01*
X159563455Y-149612023D01*
X159488639Y-149520860D01*
X159397476Y-149446044D01*
X159293469Y-149390451D01*
X159250776Y-149377500D01*
X159293469Y-149364549D01*
X159397476Y-149308956D01*
X159488639Y-149234140D01*
X159563455Y-149142977D01*
X159619048Y-149038970D01*
X159653283Y-148926115D01*
X159664842Y-148808750D01*
X159664842Y-148371250D01*
X159653283Y-148253885D01*
X159619048Y-148141030D01*
X159563455Y-148037023D01*
X159488639Y-147945860D01*
X159397476Y-147871044D01*
X159293469Y-147815451D01*
X159180614Y-147781216D01*
X159063249Y-147769657D01*
X158740997Y-147769657D01*
X157251400Y-146280060D01*
X157251400Y-130564542D01*
X157295887Y-130671942D01*
X157381358Y-130799859D01*
X157490141Y-130908642D01*
X157618058Y-130994113D01*
X157760191Y-131052987D01*
X157911078Y-131083000D01*
X158064922Y-131083000D01*
X158215809Y-131052987D01*
X158357942Y-130994113D01*
X158485859Y-130908642D01*
X158594642Y-130799859D01*
X158680113Y-130671942D01*
X158738987Y-130529809D01*
X158769000Y-130378922D01*
X158769000Y-130225078D01*
X158738987Y-130074191D01*
X158680113Y-129932058D01*
X158594642Y-129804141D01*
X158485859Y-129695358D01*
X158357942Y-129609887D01*
X158215809Y-129551013D01*
X158140400Y-129536013D01*
X158140400Y-115319987D01*
X158215809Y-115304987D01*
X158357942Y-115246113D01*
X158485859Y-115160642D01*
X158594642Y-115051859D01*
X158680113Y-114923942D01*
X158738987Y-114781809D01*
X158769000Y-114630922D01*
X158769000Y-114477078D01*
X158738987Y-114326191D01*
X158680113Y-114184058D01*
X158594642Y-114056141D01*
X158485859Y-113947358D01*
X158357942Y-113861887D01*
X158215809Y-113803013D01*
X158064922Y-113773000D01*
X157911078Y-113773000D01*
X157760191Y-113803013D01*
X157618058Y-113861887D01*
X157490141Y-113947358D01*
X157381358Y-114056141D01*
X157295887Y-114184058D01*
X157237013Y-114326191D01*
X157207000Y-114477078D01*
X157207000Y-114581600D01*
X157193727Y-114597774D01*
X157161350Y-114637225D01*
X157161349Y-114637227D01*
X157111819Y-114729890D01*
X157081319Y-114830436D01*
X157071021Y-114935000D01*
X157073601Y-114961197D01*
X157073601Y-116023125D01*
X157026242Y-115952247D01*
X156917459Y-115843464D01*
X156789542Y-115757993D01*
X156647409Y-115699119D01*
X156496522Y-115669106D01*
X156342678Y-115669106D01*
X156191791Y-115699119D01*
X156049658Y-115757993D01*
X155921741Y-115843464D01*
X155812958Y-115952247D01*
X155727487Y-116080164D01*
X155668613Y-116222297D01*
X155638600Y-116373184D01*
X155638600Y-116476764D01*
X155089354Y-117026011D01*
X155069005Y-117042711D01*
X155002349Y-117123931D01*
X154952819Y-117216596D01*
X154922319Y-117317142D01*
X154914600Y-117395512D01*
X154914600Y-117395519D01*
X154912021Y-117421706D01*
X154914600Y-117447893D01*
X154914601Y-147840535D01*
X154857523Y-147871044D01*
X154766360Y-147945860D01*
X154691544Y-148037023D01*
X154635951Y-148141030D01*
X154601716Y-148253885D01*
X154590157Y-148371250D01*
X154590157Y-148808750D01*
X154601716Y-148926115D01*
X154635951Y-149038970D01*
X154691544Y-149142977D01*
X154766360Y-149234140D01*
X154857523Y-149308956D01*
X154961530Y-149364549D01*
X155004223Y-149377500D01*
X154961530Y-149390451D01*
X154857523Y-149446044D01*
X154766360Y-149520860D01*
X154691544Y-149612023D01*
X154635951Y-149716030D01*
X154601716Y-149828885D01*
X154590157Y-149946250D01*
X154590157Y-150383750D01*
X154601716Y-150501115D01*
X154635951Y-150613970D01*
X154691544Y-150717977D01*
X154766360Y-150809140D01*
X154857523Y-150883956D01*
X154890345Y-150901500D01*
X154857523Y-150919044D01*
X154766360Y-150993860D01*
X154691544Y-151085023D01*
X154635951Y-151189030D01*
X154601716Y-151301885D01*
X154590157Y-151419250D01*
X154590157Y-151856750D01*
X154601716Y-151974115D01*
X154635951Y-152086970D01*
X154691544Y-152190977D01*
X154700070Y-152201366D01*
X154618506Y-152244963D01*
X154521815Y-152324315D01*
X154442463Y-152421006D01*
X154383498Y-152531320D01*
X154347188Y-152651018D01*
X154334928Y-152775500D01*
X154338000Y-152927250D01*
X154496748Y-153085998D01*
X154338000Y-153085998D01*
X154338000Y-153096172D01*
X153860500Y-152618673D01*
X153860500Y-143671297D01*
X153863878Y-143636999D01*
X153860500Y-143602701D01*
X153860500Y-143602691D01*
X153850393Y-143500070D01*
X153810452Y-143368403D01*
X153801511Y-143351675D01*
X153745591Y-143247056D01*
X153680173Y-143167345D01*
X153680167Y-143167339D01*
X153658302Y-143140697D01*
X153631662Y-143118834D01*
X152283175Y-141770348D01*
X152261303Y-141743697D01*
X152154943Y-141656409D01*
X152033597Y-141591548D01*
X151901930Y-141551607D01*
X151799309Y-141541500D01*
X151799298Y-141541500D01*
X151765000Y-141538122D01*
X151730702Y-141541500D01*
X151291889Y-141541500D01*
X151161897Y-141383103D01*
X150978259Y-141232396D01*
X150768749Y-141120410D01*
X150719005Y-141105320D01*
X150981051Y-141000263D01*
X151221730Y-140843388D01*
X151427179Y-140642573D01*
X151589504Y-140405535D01*
X151702466Y-140141384D01*
X151721692Y-140052965D01*
X151600038Y-139827000D01*
X149987000Y-139827000D01*
X149987000Y-139847000D01*
X149733000Y-139847000D01*
X149733000Y-139827000D01*
X149713000Y-139827000D01*
X149713000Y-139573000D01*
X149733000Y-139573000D01*
X149733000Y-139553000D01*
X149987000Y-139553000D01*
X149987000Y-139573000D01*
X151600038Y-139573000D01*
X151721692Y-139347035D01*
X151702466Y-139258616D01*
X151589504Y-138994465D01*
X151427179Y-138757427D01*
X151221730Y-138556612D01*
X150981051Y-138399737D01*
X150719005Y-138294680D01*
X150768749Y-138279590D01*
X150978259Y-138167604D01*
X151161897Y-138016897D01*
X151312604Y-137833259D01*
X151424590Y-137623749D01*
X151493550Y-137396417D01*
X151516835Y-137160000D01*
X151493550Y-136923583D01*
X151424590Y-136696251D01*
X151312604Y-136486741D01*
X151161897Y-136303103D01*
X150978259Y-136152396D01*
X150768749Y-136040410D01*
X150541417Y-135971450D01*
X150364244Y-135954000D01*
X149355756Y-135954000D01*
X149178583Y-135971450D01*
X148951251Y-136040410D01*
X148741741Y-136152396D01*
X148558103Y-136303103D01*
X148407396Y-136486741D01*
X148295410Y-136696251D01*
X148226450Y-136923583D01*
X148203165Y-137160000D01*
X148226450Y-137396417D01*
X148295410Y-137623749D01*
X148407396Y-137833259D01*
X148558103Y-138016897D01*
X148741741Y-138167604D01*
X148951251Y-138279590D01*
X149000995Y-138294680D01*
X148738949Y-138399737D01*
X148498270Y-138556612D01*
X148292821Y-138757427D01*
X148130496Y-138994465D01*
X148082000Y-139107868D01*
X148082000Y-132080000D01*
X148203165Y-132080000D01*
X148226450Y-132316417D01*
X148295410Y-132543749D01*
X148407396Y-132753259D01*
X148558103Y-132936897D01*
X148741741Y-133087604D01*
X148951251Y-133199590D01*
X149178583Y-133268550D01*
X149355756Y-133286000D01*
X150364244Y-133286000D01*
X150541417Y-133268550D01*
X150724012Y-133213161D01*
X150508923Y-133428250D01*
X150364244Y-133414000D01*
X149355756Y-133414000D01*
X149178583Y-133431450D01*
X148951251Y-133500410D01*
X148741741Y-133612396D01*
X148558103Y-133763103D01*
X148407396Y-133946741D01*
X148295410Y-134156251D01*
X148226450Y-134383583D01*
X148203165Y-134620000D01*
X148226450Y-134856417D01*
X148295410Y-135083749D01*
X148407396Y-135293259D01*
X148558103Y-135476897D01*
X148741741Y-135627604D01*
X148951251Y-135739590D01*
X149178583Y-135808550D01*
X149355756Y-135826000D01*
X150364244Y-135826000D01*
X150541417Y-135808550D01*
X150768749Y-135739590D01*
X150978259Y-135627604D01*
X151161897Y-135476897D01*
X151312604Y-135293259D01*
X151424590Y-135083749D01*
X151493550Y-134856417D01*
X151516835Y-134620000D01*
X151496750Y-134416077D01*
X154393662Y-131519166D01*
X154420302Y-131497303D01*
X154442167Y-131470661D01*
X154442174Y-131470654D01*
X154507591Y-131390944D01*
X154572451Y-131269598D01*
X154572452Y-131269597D01*
X154612393Y-131137930D01*
X154622500Y-131035309D01*
X154622500Y-131035298D01*
X154625878Y-131001000D01*
X154622500Y-130966702D01*
X154622500Y-112557327D01*
X159219662Y-107960166D01*
X159246302Y-107938303D01*
X159268167Y-107911661D01*
X159268174Y-107911654D01*
X159333591Y-107831943D01*
X159398451Y-107710598D01*
X159398452Y-107710597D01*
X159438393Y-107578930D01*
X159448500Y-107476309D01*
X159448500Y-107476298D01*
X159451878Y-107442000D01*
X159448500Y-107407702D01*
X159448500Y-105159230D01*
X159624660Y-105014660D01*
X159778491Y-104827216D01*
X159892798Y-104613363D01*
X159963188Y-104381318D01*
X159986956Y-104140000D01*
X159963188Y-103898682D01*
X159892798Y-103666637D01*
X159778491Y-103452784D01*
X159624660Y-103265340D01*
X159437216Y-103111509D01*
X159283400Y-103029292D01*
X159283400Y-102964106D01*
X159285979Y-102937919D01*
X159283400Y-102911732D01*
X159283400Y-102911724D01*
X159275681Y-102833354D01*
X159257325Y-102772843D01*
X159730000Y-102772843D01*
X159853462Y-102760683D01*
X159972179Y-102724671D01*
X160081589Y-102666190D01*
X160177488Y-102587488D01*
X160256190Y-102491589D01*
X160314671Y-102382179D01*
X160350683Y-102263462D01*
X160362843Y-102140000D01*
X160362843Y-100511498D01*
X160409355Y-100464986D01*
X160429705Y-100448285D01*
X160496361Y-100367065D01*
X160545891Y-100274401D01*
X160576391Y-100173855D01*
X160584110Y-100095485D01*
X160584110Y-100095477D01*
X160586689Y-100069290D01*
X160584110Y-100043103D01*
X160584110Y-99611925D01*
X160597157Y-99598878D01*
X160597157Y-102140000D01*
X160609317Y-102263462D01*
X160645329Y-102382179D01*
X160703810Y-102491589D01*
X160782512Y-102587488D01*
X160878411Y-102666190D01*
X160946601Y-102702638D01*
X160946601Y-102957778D01*
X160816637Y-102997202D01*
X160602784Y-103111509D01*
X160415340Y-103265340D01*
X160261509Y-103452784D01*
X160147202Y-103666637D01*
X160076812Y-103898682D01*
X160053044Y-104140000D01*
X160076812Y-104381318D01*
X160147202Y-104613363D01*
X160261509Y-104827216D01*
X160415340Y-105014660D01*
X160602784Y-105168491D01*
X160816637Y-105282798D01*
X161048682Y-105353188D01*
X161229528Y-105371000D01*
X161350472Y-105371000D01*
X161531318Y-105353188D01*
X161698218Y-105302559D01*
X162202894Y-105807235D01*
X162219595Y-105827585D01*
X162300815Y-105894241D01*
X162393479Y-105943771D01*
X162494025Y-105974271D01*
X162572395Y-105981990D01*
X162572396Y-105981990D01*
X162598590Y-105984570D01*
X162624784Y-105981990D01*
X163667709Y-105981990D01*
X163647396Y-106006741D01*
X163572639Y-106146600D01*
X163499005Y-106146600D01*
X163420635Y-106154319D01*
X163320089Y-106184819D01*
X163227425Y-106234349D01*
X163146205Y-106301005D01*
X163079549Y-106382225D01*
X163030019Y-106474889D01*
X162999519Y-106575435D01*
X162989220Y-106680000D01*
X162999519Y-106784565D01*
X163030019Y-106885111D01*
X163079549Y-106977775D01*
X163146205Y-107058995D01*
X163227425Y-107125651D01*
X163320089Y-107175181D01*
X163420635Y-107205681D01*
X163499005Y-107213400D01*
X163572639Y-107213400D01*
X163647396Y-107353259D01*
X163798103Y-107536897D01*
X163981741Y-107687604D01*
X164191251Y-107799590D01*
X164418583Y-107868550D01*
X164595756Y-107886000D01*
X165604244Y-107886000D01*
X165781417Y-107868550D01*
X166008749Y-107799590D01*
X166218259Y-107687604D01*
X166243010Y-107667291D01*
X166243010Y-108232709D01*
X166218259Y-108212396D01*
X166008749Y-108100410D01*
X165781417Y-108031450D01*
X165604244Y-108014000D01*
X164595756Y-108014000D01*
X164418583Y-108031450D01*
X164191251Y-108100410D01*
X163981741Y-108212396D01*
X163798103Y-108363103D01*
X163647396Y-108546741D01*
X163535410Y-108756251D01*
X163466450Y-108983583D01*
X163443165Y-109220000D01*
X163466450Y-109456417D01*
X163535410Y-109683749D01*
X163647396Y-109893259D01*
X163798103Y-110076897D01*
X163981741Y-110227604D01*
X164191251Y-110339590D01*
X164418583Y-110408550D01*
X164595756Y-110426000D01*
X165604244Y-110426000D01*
X165781417Y-110408550D01*
X166008749Y-110339590D01*
X166218259Y-110227604D01*
X166243010Y-110207291D01*
X166243010Y-110772709D01*
X166218259Y-110752396D01*
X166008749Y-110640410D01*
X165781417Y-110571450D01*
X165604244Y-110554000D01*
X164595756Y-110554000D01*
X164418583Y-110571450D01*
X164191251Y-110640410D01*
X163981741Y-110752396D01*
X163798103Y-110903103D01*
X163647396Y-111086741D01*
X163535410Y-111296251D01*
X163466450Y-111523583D01*
X163443165Y-111760000D01*
X163466450Y-111996417D01*
X163535410Y-112223749D01*
X163647396Y-112433259D01*
X163798103Y-112616897D01*
X163981741Y-112767604D01*
X164191251Y-112879590D01*
X164418583Y-112948550D01*
X164595756Y-112966000D01*
X165604244Y-112966000D01*
X165781417Y-112948550D01*
X166008749Y-112879590D01*
X166218259Y-112767604D01*
X166243010Y-112747291D01*
X166243011Y-113312709D01*
X166218259Y-113292396D01*
X166008749Y-113180410D01*
X165781417Y-113111450D01*
X165604244Y-113094000D01*
X164595756Y-113094000D01*
X164418583Y-113111450D01*
X164191251Y-113180410D01*
X163981741Y-113292396D01*
X163798103Y-113443103D01*
X163647396Y-113626741D01*
X163535410Y-113836251D01*
X163466450Y-114063583D01*
X163443165Y-114300000D01*
X163466450Y-114536417D01*
X163512485Y-114688174D01*
X160610590Y-117590069D01*
X160610590Y-110001000D01*
X160731922Y-110001000D01*
X160882809Y-109970987D01*
X161024942Y-109912113D01*
X161152859Y-109826642D01*
X161261642Y-109717859D01*
X161347113Y-109589942D01*
X161405987Y-109447809D01*
X161436000Y-109296922D01*
X161436000Y-109143078D01*
X161405987Y-108992191D01*
X161347113Y-108850058D01*
X161261642Y-108722141D01*
X161152859Y-108613358D01*
X161024942Y-108527887D01*
X160882809Y-108469013D01*
X160731922Y-108439000D01*
X160578078Y-108439000D01*
X160427191Y-108469013D01*
X160285058Y-108527887D01*
X160157141Y-108613358D01*
X160048358Y-108722141D01*
X159962887Y-108850058D01*
X159904013Y-108992191D01*
X159874000Y-109143078D01*
X159874000Y-109282580D01*
X159761025Y-109395555D01*
X159741642Y-109411462D01*
X159678161Y-109488815D01*
X159630989Y-109577068D01*
X159601941Y-109672826D01*
X159597770Y-109715181D01*
X159592133Y-109772410D01*
X159594590Y-109797354D01*
X159594590Y-116388072D01*
X159485809Y-116343013D01*
X159334922Y-116313000D01*
X159181078Y-116313000D01*
X159030191Y-116343013D01*
X158888058Y-116401887D01*
X158760141Y-116487358D01*
X158651358Y-116596141D01*
X158565887Y-116724058D01*
X158507013Y-116866191D01*
X158477000Y-117017078D01*
X158477000Y-117170922D01*
X158486234Y-117217344D01*
X158478319Y-117243436D01*
X158470600Y-117321806D01*
X158470600Y-117321809D01*
X158468021Y-117348000D01*
X158470600Y-117374187D01*
X158470601Y-128624803D01*
X158468021Y-128651000D01*
X158478319Y-128755564D01*
X158508819Y-128856110D01*
X158519996Y-128877020D01*
X158558350Y-128948775D01*
X158585674Y-128982069D01*
X158608307Y-129009648D01*
X158608310Y-129009651D01*
X158625006Y-129029995D01*
X158645350Y-129046691D01*
X159232600Y-129633941D01*
X159232600Y-129730899D01*
X159159358Y-129804141D01*
X159073887Y-129932058D01*
X159015013Y-130074191D01*
X158985000Y-130225078D01*
X158985000Y-130378922D01*
X159015013Y-130529809D01*
X159073887Y-130671942D01*
X159159358Y-130799859D01*
X159268141Y-130908642D01*
X159396058Y-130994113D01*
X159538191Y-131052987D01*
X159689078Y-131083000D01*
X159842922Y-131083000D01*
X159993809Y-131052987D01*
X160135942Y-130994113D01*
X160263859Y-130908642D01*
X160372642Y-130799859D01*
X160375601Y-130795431D01*
X160375600Y-147420813D01*
X160373021Y-147447000D01*
X160375600Y-147473187D01*
X160375600Y-147473194D01*
X160383319Y-147551564D01*
X160413819Y-147652110D01*
X160463349Y-147744775D01*
X160530005Y-147825995D01*
X160550354Y-147842695D01*
X161194157Y-148486499D01*
X161194157Y-148808750D01*
X161205716Y-148926115D01*
X161239951Y-149038970D01*
X161295544Y-149142977D01*
X161370360Y-149234140D01*
X161461523Y-149308956D01*
X161565530Y-149364549D01*
X161608223Y-149377500D01*
X161565530Y-149390451D01*
X161461523Y-149446044D01*
X161370360Y-149520860D01*
X161295544Y-149612023D01*
X161239951Y-149716030D01*
X161205716Y-149828885D01*
X161194157Y-149946250D01*
X161194157Y-150383750D01*
X161205716Y-150501115D01*
X161239951Y-150613970D01*
X161295544Y-150717977D01*
X161370360Y-150809140D01*
X161461523Y-150883956D01*
X161494345Y-150901500D01*
X161461523Y-150919044D01*
X161370360Y-150993860D01*
X161295544Y-151085023D01*
X161239951Y-151189030D01*
X161205716Y-151301885D01*
X161194157Y-151419250D01*
X161194157Y-151856750D01*
X161205716Y-151974115D01*
X161239951Y-152086970D01*
X161295544Y-152190977D01*
X161304070Y-152201366D01*
X161222506Y-152244963D01*
X161125815Y-152324315D01*
X161046463Y-152421006D01*
X160987498Y-152531320D01*
X160951188Y-152651018D01*
X160938928Y-152775500D01*
X160942000Y-152927250D01*
X161100750Y-153086000D01*
X161925000Y-153086000D01*
X161925000Y-153066000D01*
X162179000Y-153066000D01*
X162179000Y-153086000D01*
X163003250Y-153086000D01*
X163162000Y-152927250D01*
X163165072Y-152775500D01*
X163152812Y-152651018D01*
X163116502Y-152531320D01*
X163057537Y-152421006D01*
X162978185Y-152324315D01*
X162881494Y-152244963D01*
X162799930Y-152201366D01*
X162808456Y-152190977D01*
X162864049Y-152086970D01*
X162898284Y-151974115D01*
X162909843Y-151856750D01*
X162909843Y-151419250D01*
X162898284Y-151301885D01*
X162864049Y-151189030D01*
X162808456Y-151085023D01*
X162733640Y-150993860D01*
X162642477Y-150919044D01*
X162609655Y-150901500D01*
X162642477Y-150883956D01*
X162733640Y-150809140D01*
X162808456Y-150717977D01*
X162864049Y-150613970D01*
X162898284Y-150501115D01*
X162909843Y-150383750D01*
X162909843Y-149946250D01*
X162898284Y-149828885D01*
X162864049Y-149716030D01*
X162808456Y-149612023D01*
X162733640Y-149520860D01*
X162642477Y-149446044D01*
X162538470Y-149390451D01*
X162495777Y-149377500D01*
X162538470Y-149364549D01*
X162642477Y-149308956D01*
X162733640Y-149234140D01*
X162808456Y-149142977D01*
X162864049Y-149038970D01*
X162898284Y-148926115D01*
X162909843Y-148808750D01*
X162909843Y-148371250D01*
X162898284Y-148253885D01*
X162864049Y-148141030D01*
X162808456Y-148037023D01*
X162733640Y-147945860D01*
X162642477Y-147871044D01*
X162538470Y-147815451D01*
X162425615Y-147781216D01*
X162308250Y-147769657D01*
X161985999Y-147769657D01*
X161442400Y-147226059D01*
X161442400Y-134972965D01*
X163238308Y-134972965D01*
X163257534Y-135061384D01*
X163370496Y-135325535D01*
X163532821Y-135562573D01*
X163738270Y-135763388D01*
X163978949Y-135920263D01*
X164240995Y-136025320D01*
X164191251Y-136040410D01*
X163981741Y-136152396D01*
X163798103Y-136303103D01*
X163647396Y-136486741D01*
X163535410Y-136696251D01*
X163466450Y-136923583D01*
X163443165Y-137160000D01*
X163466450Y-137396417D01*
X163535410Y-137623749D01*
X163647396Y-137833259D01*
X163798103Y-138016897D01*
X163981741Y-138167604D01*
X164191251Y-138279590D01*
X164418583Y-138348550D01*
X164595756Y-138366000D01*
X165604244Y-138366000D01*
X165781417Y-138348550D01*
X166008749Y-138279590D01*
X166218259Y-138167604D01*
X166401897Y-138016897D01*
X166552604Y-137833259D01*
X166664590Y-137623749D01*
X166733550Y-137396417D01*
X166756835Y-137160000D01*
X166733550Y-136923583D01*
X166664590Y-136696251D01*
X166552604Y-136486741D01*
X166401897Y-136303103D01*
X166218259Y-136152396D01*
X166008749Y-136040410D01*
X165959005Y-136025320D01*
X166221051Y-135920263D01*
X166461730Y-135763388D01*
X166667179Y-135562573D01*
X166829504Y-135325535D01*
X166942466Y-135061384D01*
X166961692Y-134972965D01*
X166840038Y-134747000D01*
X165227000Y-134747000D01*
X165227000Y-134767000D01*
X164973000Y-134767000D01*
X164973000Y-134747000D01*
X163359962Y-134747000D01*
X163238308Y-134972965D01*
X161442400Y-134972965D01*
X161442400Y-134267035D01*
X163238308Y-134267035D01*
X163359962Y-134493000D01*
X164973000Y-134493000D01*
X164973000Y-134473000D01*
X165227000Y-134473000D01*
X165227000Y-134493000D01*
X166840038Y-134493000D01*
X166961692Y-134267035D01*
X166942466Y-134178616D01*
X166829504Y-133914465D01*
X166667179Y-133677427D01*
X166461730Y-133476612D01*
X166221051Y-133319737D01*
X165959005Y-133214680D01*
X166008749Y-133199590D01*
X166218259Y-133087604D01*
X166401897Y-132936897D01*
X166552604Y-132753259D01*
X166664590Y-132543749D01*
X166733550Y-132316417D01*
X166756835Y-132080000D01*
X166733550Y-131843583D01*
X166664590Y-131616251D01*
X166552604Y-131406741D01*
X166401897Y-131223103D01*
X166218259Y-131072396D01*
X166008749Y-130960410D01*
X165781417Y-130891450D01*
X165604244Y-130874000D01*
X164595756Y-130874000D01*
X164418583Y-130891450D01*
X164191251Y-130960410D01*
X163981741Y-131072396D01*
X163798103Y-131223103D01*
X163647396Y-131406741D01*
X163535410Y-131616251D01*
X163466450Y-131843583D01*
X163443165Y-132080000D01*
X163466450Y-132316417D01*
X163535410Y-132543749D01*
X163647396Y-132753259D01*
X163798103Y-132936897D01*
X163981741Y-133087604D01*
X164191251Y-133199590D01*
X164240995Y-133214680D01*
X163978949Y-133319737D01*
X163738270Y-133476612D01*
X163532821Y-133677427D01*
X163370496Y-133914465D01*
X163257534Y-134178616D01*
X163238308Y-134267035D01*
X161442400Y-134267035D01*
X161442400Y-118266941D01*
X164266826Y-115442515D01*
X164418583Y-115488550D01*
X164595756Y-115506000D01*
X165604244Y-115506000D01*
X165781417Y-115488550D01*
X166008749Y-115419590D01*
X166218259Y-115307604D01*
X166243011Y-115287291D01*
X166243011Y-115852709D01*
X166218259Y-115832396D01*
X166008749Y-115720410D01*
X165781417Y-115651450D01*
X165604244Y-115634000D01*
X164595756Y-115634000D01*
X164418583Y-115651450D01*
X164191251Y-115720410D01*
X163981741Y-115832396D01*
X163798103Y-115983103D01*
X163647396Y-116166741D01*
X163535410Y-116376251D01*
X163466450Y-116603583D01*
X163443165Y-116840000D01*
X163466450Y-117076417D01*
X163535410Y-117303749D01*
X163647396Y-117513259D01*
X163798103Y-117696897D01*
X163981741Y-117847604D01*
X164191251Y-117959590D01*
X164418583Y-118028550D01*
X164595756Y-118046000D01*
X165604244Y-118046000D01*
X165781417Y-118028550D01*
X166008749Y-117959590D01*
X166218259Y-117847604D01*
X166243011Y-117827291D01*
X166243011Y-118392709D01*
X166218259Y-118372396D01*
X166008749Y-118260410D01*
X165781417Y-118191450D01*
X165604244Y-118174000D01*
X164595756Y-118174000D01*
X164418583Y-118191450D01*
X164191251Y-118260410D01*
X163981741Y-118372396D01*
X163798103Y-118523103D01*
X163647396Y-118706741D01*
X163535410Y-118916251D01*
X163466450Y-119143583D01*
X163443165Y-119380000D01*
X163466450Y-119616417D01*
X163535410Y-119843749D01*
X163647396Y-120053259D01*
X163798103Y-120236897D01*
X163822370Y-120256813D01*
X162709355Y-121369828D01*
X162689005Y-121386529D01*
X162622349Y-121467749D01*
X162572819Y-121560414D01*
X162542319Y-121660960D01*
X162534600Y-121739330D01*
X162534600Y-121739337D01*
X162532021Y-121765524D01*
X162534600Y-121791711D01*
X162534601Y-124433796D01*
X162534600Y-124433806D01*
X162534601Y-127926803D01*
X162532021Y-127953000D01*
X162542319Y-128057564D01*
X162572819Y-128158110D01*
X162572820Y-128158111D01*
X162622350Y-128250775D01*
X162639773Y-128272005D01*
X162672307Y-128311648D01*
X162672310Y-128311651D01*
X162689006Y-128331995D01*
X162709350Y-128348691D01*
X163512485Y-129151826D01*
X163466450Y-129303583D01*
X163443165Y-129540000D01*
X163466450Y-129776417D01*
X163535410Y-130003749D01*
X163647396Y-130213259D01*
X163798103Y-130396897D01*
X163981741Y-130547604D01*
X164191251Y-130659590D01*
X164418583Y-130728550D01*
X164595756Y-130746000D01*
X165604244Y-130746000D01*
X165781417Y-130728550D01*
X166008749Y-130659590D01*
X166218259Y-130547604D01*
X166401897Y-130396897D01*
X166552604Y-130213259D01*
X166664590Y-130003749D01*
X166733550Y-129776417D01*
X166756835Y-129540000D01*
X166733550Y-129303583D01*
X166664590Y-129076251D01*
X166552604Y-128866741D01*
X166401897Y-128683103D01*
X166218259Y-128532396D01*
X166008749Y-128420410D01*
X165781417Y-128351450D01*
X165604244Y-128334000D01*
X164595756Y-128334000D01*
X164418583Y-128351450D01*
X164266826Y-128397485D01*
X163601400Y-127732059D01*
X163601400Y-127587207D01*
X163647396Y-127673259D01*
X163798103Y-127856897D01*
X163981741Y-128007604D01*
X164191251Y-128119590D01*
X164418583Y-128188550D01*
X164595756Y-128206000D01*
X165604244Y-128206000D01*
X165781417Y-128188550D01*
X166008749Y-128119590D01*
X166218259Y-128007604D01*
X166401897Y-127856897D01*
X166552604Y-127673259D01*
X166664590Y-127463749D01*
X166733550Y-127236417D01*
X166756835Y-127000000D01*
X166733550Y-126763583D01*
X166664590Y-126536251D01*
X166552604Y-126326741D01*
X166401897Y-126143103D01*
X166218259Y-125992396D01*
X166008749Y-125880410D01*
X165781417Y-125811450D01*
X165604244Y-125794000D01*
X164595756Y-125794000D01*
X164418583Y-125811450D01*
X164239265Y-125865845D01*
X163601400Y-125227980D01*
X163601400Y-125047207D01*
X163647396Y-125133259D01*
X163798103Y-125316897D01*
X163981741Y-125467604D01*
X164191251Y-125579590D01*
X164418583Y-125648550D01*
X164595756Y-125666000D01*
X165604244Y-125666000D01*
X165781417Y-125648550D01*
X166008749Y-125579590D01*
X166218259Y-125467604D01*
X166401897Y-125316897D01*
X166552604Y-125133259D01*
X166664590Y-124923749D01*
X166733550Y-124696417D01*
X166756835Y-124460000D01*
X166733550Y-124223583D01*
X166664590Y-123996251D01*
X166552604Y-123786741D01*
X166401897Y-123603103D01*
X166218259Y-123452396D01*
X166008749Y-123340410D01*
X165781417Y-123271450D01*
X165608000Y-123254370D01*
X165608000Y-123125630D01*
X165781417Y-123108550D01*
X166008749Y-123039590D01*
X166218259Y-122927604D01*
X166401897Y-122776897D01*
X166552604Y-122593259D01*
X166664590Y-122383749D01*
X166733550Y-122156417D01*
X166756835Y-121920000D01*
X166733550Y-121683583D01*
X166687515Y-121531826D01*
X167411411Y-120807931D01*
X167411410Y-138007978D01*
X167399148Y-138011698D01*
X167244708Y-138094248D01*
X167109340Y-138205342D01*
X167081497Y-138239269D01*
X166915260Y-138405505D01*
X166881342Y-138433341D01*
X166853507Y-138467258D01*
X166853505Y-138467260D01*
X166770248Y-138568709D01*
X166687698Y-138723148D01*
X166636864Y-138890726D01*
X166619700Y-139065000D01*
X166624001Y-139108670D01*
X166624001Y-139160315D01*
X166552604Y-139026741D01*
X166401897Y-138843103D01*
X166218259Y-138692396D01*
X166008749Y-138580410D01*
X165781417Y-138511450D01*
X165604244Y-138494000D01*
X164595756Y-138494000D01*
X164418583Y-138511450D01*
X164191251Y-138580410D01*
X163981741Y-138692396D01*
X163798103Y-138843103D01*
X163647396Y-139026741D01*
X163535410Y-139236251D01*
X163466450Y-139463583D01*
X163443165Y-139700000D01*
X163466450Y-139936417D01*
X163535410Y-140163749D01*
X163647396Y-140373259D01*
X163798103Y-140556897D01*
X163981741Y-140707604D01*
X164191251Y-140819590D01*
X164418583Y-140888550D01*
X164595756Y-140906000D01*
X165604244Y-140906000D01*
X165781417Y-140888550D01*
X166008749Y-140819590D01*
X166218259Y-140707604D01*
X166401897Y-140556897D01*
X166552604Y-140373259D01*
X166624001Y-140239686D01*
X166624001Y-141700314D01*
X166552604Y-141566741D01*
X166401897Y-141383103D01*
X166218259Y-141232396D01*
X166008749Y-141120410D01*
X165781417Y-141051450D01*
X165604244Y-141034000D01*
X164595756Y-141034000D01*
X164418583Y-141051450D01*
X164191251Y-141120410D01*
X163981741Y-141232396D01*
X163798103Y-141383103D01*
X163647396Y-141566741D01*
X163535410Y-141776251D01*
X163466450Y-142003583D01*
X163443165Y-142240000D01*
X163466450Y-142476417D01*
X163535410Y-142703749D01*
X163647396Y-142913259D01*
X163798103Y-143096897D01*
X163981741Y-143247604D01*
X164191251Y-143359590D01*
X164418583Y-143428550D01*
X164595756Y-143446000D01*
X165604244Y-143446000D01*
X165781417Y-143428550D01*
X166008749Y-143359590D01*
X166218259Y-143247604D01*
X166401897Y-143096897D01*
X166552604Y-142913259D01*
X166624000Y-142779687D01*
X166624000Y-144030764D01*
X165620765Y-145034000D01*
X163817236Y-145034000D01*
X163030740Y-144247505D01*
X162929291Y-144164248D01*
X162774852Y-144081698D01*
X162607274Y-144030864D01*
X162433000Y-144013700D01*
X162258726Y-144030864D01*
X162091148Y-144081698D01*
X161936709Y-144164248D01*
X161801341Y-144275341D01*
X161690248Y-144410709D01*
X161607698Y-144565148D01*
X161556864Y-144732726D01*
X161539700Y-144907000D01*
X161556864Y-145081274D01*
X161607698Y-145248852D01*
X161690248Y-145403291D01*
X161773505Y-145504740D01*
X162789505Y-146520741D01*
X162817341Y-146554659D01*
X162952709Y-146665753D01*
X163107149Y-146748303D01*
X163201758Y-146777002D01*
X163274725Y-146799136D01*
X163291325Y-146800771D01*
X163405333Y-146812000D01*
X163405340Y-146812000D01*
X163449000Y-146816300D01*
X163492660Y-146812000D01*
X165945340Y-146812000D01*
X165989000Y-146816300D01*
X166032660Y-146812000D01*
X166032667Y-146812000D01*
X166163274Y-146799136D01*
X166330851Y-146748303D01*
X166485291Y-146665753D01*
X166620659Y-146554659D01*
X166648499Y-146520736D01*
X168110743Y-145058493D01*
X168144659Y-145030659D01*
X168255753Y-144895291D01*
X168338303Y-144740851D01*
X168376636Y-144614482D01*
X168389136Y-144573276D01*
X168398093Y-144482333D01*
X168402000Y-144442667D01*
X168402000Y-144442661D01*
X168406300Y-144399001D01*
X168402000Y-144355341D01*
X168402000Y-144105413D01*
X168674192Y-144105413D01*
X168769956Y-144369814D01*
X169059571Y-144510704D01*
X169371108Y-144592384D01*
X169692595Y-144611718D01*
X170011675Y-144567961D01*
X170316088Y-144462795D01*
X170490044Y-144369814D01*
X170585808Y-144105413D01*
X169630000Y-143149605D01*
X168674192Y-144105413D01*
X168402000Y-144105413D01*
X168402000Y-143892274D01*
X168494587Y-143925808D01*
X169450395Y-142970000D01*
X169809605Y-142970000D01*
X170765413Y-143925808D01*
X171029814Y-143830044D01*
X171170704Y-143540429D01*
X171252384Y-143228892D01*
X171271718Y-142907405D01*
X171227961Y-142588325D01*
X171122795Y-142283912D01*
X171029814Y-142109956D01*
X170765413Y-142014192D01*
X169809605Y-142970000D01*
X169450395Y-142970000D01*
X168494587Y-142014192D01*
X168402000Y-142047726D01*
X168402000Y-141545413D01*
X168674192Y-141545413D01*
X168726560Y-141690000D01*
X168674192Y-141834587D01*
X169630000Y-142790395D01*
X170585808Y-141834587D01*
X170533440Y-141690000D01*
X170585808Y-141545413D01*
X169630000Y-140589605D01*
X168674192Y-141545413D01*
X168402000Y-141545413D01*
X168402000Y-141332274D01*
X168494587Y-141365808D01*
X169450395Y-140410000D01*
X169809605Y-140410000D01*
X170765413Y-141365808D01*
X171029814Y-141270044D01*
X171170704Y-140980429D01*
X171252384Y-140668892D01*
X171271718Y-140347405D01*
X171227961Y-140028325D01*
X171122795Y-139723912D01*
X171029814Y-139549956D01*
X170765413Y-139454192D01*
X169809605Y-140410000D01*
X169450395Y-140410000D01*
X169436253Y-140395858D01*
X169615858Y-140216253D01*
X169630000Y-140230395D01*
X170585808Y-139274587D01*
X170490044Y-139010186D01*
X170200429Y-138869296D01*
X169888892Y-138787616D01*
X169567405Y-138768282D01*
X169248325Y-138812039D01*
X169054940Y-138878848D01*
X169125713Y-138746441D01*
X169176546Y-138578864D01*
X169184792Y-138495149D01*
X169193711Y-138404590D01*
X169189410Y-138360922D01*
X169189410Y-123317000D01*
X171577000Y-123317000D01*
X171601776Y-123314560D01*
X171625601Y-123307333D01*
X171647557Y-123295597D01*
X171666803Y-123279803D01*
X171682597Y-123260557D01*
X171694333Y-123238601D01*
X171701560Y-123214776D01*
X171704000Y-123190000D01*
X171704000Y-119253000D01*
X171701560Y-119228224D01*
X171694333Y-119204399D01*
X171682597Y-119182443D01*
X171666803Y-119163197D01*
X171647557Y-119147403D01*
X171625601Y-119135667D01*
X171601776Y-119128440D01*
X171577000Y-119126000D01*
X170882436Y-119126000D01*
X171054660Y-118984660D01*
X171208491Y-118797216D01*
X171322798Y-118583363D01*
X171393188Y-118351318D01*
X171416956Y-118110000D01*
X171393188Y-117868682D01*
X171322798Y-117636637D01*
X171208491Y-117422784D01*
X171054660Y-117235340D01*
X170867216Y-117081509D01*
X170653363Y-116967202D01*
X170421318Y-116896812D01*
X170240472Y-116879000D01*
X170119528Y-116879000D01*
X169938682Y-116896812D01*
X169706637Y-116967202D01*
X169492784Y-117081509D01*
X169305340Y-117235340D01*
X169189410Y-117376601D01*
X169189410Y-116303399D01*
X169305340Y-116444660D01*
X169492784Y-116598491D01*
X169706637Y-116712798D01*
X169938682Y-116783188D01*
X170119528Y-116801000D01*
X170240472Y-116801000D01*
X170421318Y-116783188D01*
X170653363Y-116712798D01*
X170867216Y-116598491D01*
X171054660Y-116444660D01*
X171208491Y-116257216D01*
X171322798Y-116043363D01*
X171393188Y-115811318D01*
X171416956Y-115570000D01*
X171393188Y-115328682D01*
X171322798Y-115096637D01*
X171208491Y-114882784D01*
X171054660Y-114695340D01*
X170867216Y-114541509D01*
X170653363Y-114427202D01*
X170421318Y-114356812D01*
X170240472Y-114339000D01*
X170119528Y-114339000D01*
X169938682Y-114356812D01*
X169706637Y-114427202D01*
X169492784Y-114541509D01*
X169305340Y-114695340D01*
X169189410Y-114836601D01*
X169189410Y-113763399D01*
X169305340Y-113904660D01*
X169492784Y-114058491D01*
X169706637Y-114172798D01*
X169938682Y-114243188D01*
X170119528Y-114261000D01*
X170240472Y-114261000D01*
X170421318Y-114243188D01*
X170653363Y-114172798D01*
X170867216Y-114058491D01*
X171054660Y-113904660D01*
X171208491Y-113717216D01*
X171322798Y-113503363D01*
X171393188Y-113271318D01*
X171416956Y-113030000D01*
X171393188Y-112788682D01*
X171322798Y-112556637D01*
X171208491Y-112342784D01*
X171054660Y-112155340D01*
X170867216Y-112001509D01*
X170653363Y-111887202D01*
X170421318Y-111816812D01*
X170240472Y-111799000D01*
X170119528Y-111799000D01*
X169938682Y-111816812D01*
X169706637Y-111887202D01*
X169492784Y-112001509D01*
X169305340Y-112155340D01*
X169189410Y-112296601D01*
X169189410Y-111223399D01*
X169305340Y-111364660D01*
X169492784Y-111518491D01*
X169706637Y-111632798D01*
X169938682Y-111703188D01*
X170119528Y-111721000D01*
X170240472Y-111721000D01*
X170421318Y-111703188D01*
X170653363Y-111632798D01*
X170867216Y-111518491D01*
X171054660Y-111364660D01*
X171208491Y-111177216D01*
X171322798Y-110963363D01*
X171393188Y-110731318D01*
X171416956Y-110490000D01*
X171393188Y-110248682D01*
X171322798Y-110016637D01*
X171208491Y-109802784D01*
X171054660Y-109615340D01*
X170867216Y-109461509D01*
X170653363Y-109347202D01*
X170421318Y-109276812D01*
X170240472Y-109259000D01*
X170119528Y-109259000D01*
X169938682Y-109276812D01*
X169706637Y-109347202D01*
X169492784Y-109461509D01*
X169305340Y-109615340D01*
X169189410Y-109756601D01*
X169189410Y-108683399D01*
X169305340Y-108824660D01*
X169492784Y-108978491D01*
X169706637Y-109092798D01*
X169938682Y-109163188D01*
X170119528Y-109181000D01*
X170240472Y-109181000D01*
X170421318Y-109163188D01*
X170653363Y-109092798D01*
X170867216Y-108978491D01*
X171054660Y-108824660D01*
X171208491Y-108637216D01*
X171322798Y-108423363D01*
X171393188Y-108191318D01*
X171416956Y-107950000D01*
X171393188Y-107708682D01*
X171322798Y-107476637D01*
X171208491Y-107262784D01*
X171054660Y-107075340D01*
X170867216Y-106921509D01*
X170653363Y-106807202D01*
X170421318Y-106736812D01*
X170240472Y-106719000D01*
X170119528Y-106719000D01*
X169938682Y-106736812D01*
X169706637Y-106807202D01*
X169492784Y-106921509D01*
X169305340Y-107075340D01*
X169189410Y-107216601D01*
X169189410Y-106143399D01*
X169305340Y-106284660D01*
X169492784Y-106438491D01*
X169706637Y-106552798D01*
X169938682Y-106623188D01*
X170119528Y-106641000D01*
X170240472Y-106641000D01*
X170421318Y-106623188D01*
X170653363Y-106552798D01*
X170867216Y-106438491D01*
X171054660Y-106284660D01*
X171208491Y-106097216D01*
X171322798Y-105883363D01*
X171393188Y-105651318D01*
X171416956Y-105410000D01*
X171393188Y-105168682D01*
X171322798Y-104936637D01*
X171208491Y-104722784D01*
X171054660Y-104535340D01*
X170867216Y-104381509D01*
X170653363Y-104267202D01*
X170421318Y-104196812D01*
X170240472Y-104179000D01*
X170119528Y-104179000D01*
X169938682Y-104196812D01*
X169706637Y-104267202D01*
X169492784Y-104381509D01*
X169305340Y-104535340D01*
X169189410Y-104676601D01*
X169189410Y-103915744D01*
X169335633Y-103769521D01*
X169492784Y-103898491D01*
X169706637Y-104012798D01*
X169938682Y-104083188D01*
X170119528Y-104101000D01*
X170240472Y-104101000D01*
X170421318Y-104083188D01*
X170653363Y-104012798D01*
X170867216Y-103898491D01*
X171054660Y-103744660D01*
X171208491Y-103557216D01*
X171322798Y-103343363D01*
X171393188Y-103111318D01*
X171416956Y-102870000D01*
X171393188Y-102628682D01*
X171322798Y-102396637D01*
X171208491Y-102182784D01*
X171054660Y-101995340D01*
X170867216Y-101841509D01*
X170653363Y-101727202D01*
X170421318Y-101656812D01*
X170240472Y-101639000D01*
X170119528Y-101639000D01*
X169938682Y-101656812D01*
X169706637Y-101727202D01*
X169492784Y-101841509D01*
X169322813Y-101981000D01*
X169021578Y-101981000D01*
X168977918Y-101976700D01*
X168934258Y-101981000D01*
X168934252Y-101981000D01*
X168836843Y-101990594D01*
X168803643Y-101993864D01*
X168701977Y-102024704D01*
X168636068Y-102044697D01*
X168481628Y-102127247D01*
X168346260Y-102238341D01*
X168318420Y-102272264D01*
X167702669Y-102888015D01*
X167668752Y-102915850D01*
X167640917Y-102949767D01*
X167640915Y-102949769D01*
X167557658Y-103051218D01*
X167475108Y-103205657D01*
X167424274Y-103373235D01*
X167407110Y-103547509D01*
X167411411Y-103591179D01*
X167411411Y-104681069D01*
X166511693Y-103781352D01*
X166494995Y-103761005D01*
X166413775Y-103694349D01*
X166321111Y-103644819D01*
X166220565Y-103614319D01*
X166142195Y-103606600D01*
X166142187Y-103606600D01*
X166116000Y-103604021D01*
X166089813Y-103606600D01*
X164940708Y-103606600D01*
X164858491Y-103452784D01*
X164704660Y-103265340D01*
X164517216Y-103111509D01*
X164303363Y-102997202D01*
X164071318Y-102926812D01*
X163890472Y-102909000D01*
X163769528Y-102909000D01*
X163588682Y-102926812D01*
X163421782Y-102977441D01*
X163375698Y-102931357D01*
X163375694Y-102931352D01*
X163215785Y-102771443D01*
X163230000Y-102772843D01*
X163730000Y-102772843D01*
X163853462Y-102760683D01*
X163972179Y-102724671D01*
X164081589Y-102666190D01*
X164177488Y-102587488D01*
X164256190Y-102491589D01*
X164314671Y-102382179D01*
X164350683Y-102263462D01*
X164362843Y-102140000D01*
X164362843Y-99140000D01*
X164350683Y-99016538D01*
X164314671Y-98897821D01*
X164256190Y-98788411D01*
X164177488Y-98692512D01*
X164081589Y-98613810D01*
X163972179Y-98555329D01*
X163853462Y-98519317D01*
X163730000Y-98507157D01*
X163570081Y-98507157D01*
X162629057Y-97566134D01*
X162612357Y-97545785D01*
X162531137Y-97479129D01*
X162438473Y-97429599D01*
X162337927Y-97399099D01*
X162259557Y-97391380D01*
X162259549Y-97391380D01*
X162233362Y-97388801D01*
X162207175Y-97391380D01*
X160752832Y-97391380D01*
X160726638Y-97388800D01*
X160700444Y-97391380D01*
X160700443Y-97391380D01*
X160622073Y-97399099D01*
X160521527Y-97429599D01*
X160428863Y-97479129D01*
X160347643Y-97545785D01*
X160330942Y-97566135D01*
X159946887Y-97950190D01*
X158984290Y-97950190D01*
X158958103Y-97947611D01*
X158931916Y-97950190D01*
X158931909Y-97950190D01*
X158853539Y-97957909D01*
X158752993Y-97988409D01*
X158660329Y-98037939D01*
X158615302Y-98074892D01*
X158599607Y-98087773D01*
X158579109Y-98104595D01*
X158562413Y-98124939D01*
X158076346Y-98611007D01*
X157972179Y-98555329D01*
X157853462Y-98519317D01*
X157730000Y-98507157D01*
X157230000Y-98507157D01*
X157106538Y-98519317D01*
X156987821Y-98555329D01*
X156878411Y-98613810D01*
X156782512Y-98692512D01*
X156703810Y-98788411D01*
X156645329Y-98897821D01*
X156609317Y-99016538D01*
X156597157Y-99140000D01*
X156597157Y-102140000D01*
X156609317Y-102263462D01*
X156645329Y-102382179D01*
X156703810Y-102491589D01*
X156782512Y-102587488D01*
X156878411Y-102666190D01*
X156946601Y-102702638D01*
X156946601Y-102853918D01*
X156714099Y-102743175D01*
X156566890Y-102698524D01*
X156337000Y-102819845D01*
X156337000Y-104013000D01*
X156357000Y-104013000D01*
X156357000Y-104267000D01*
X156337000Y-104267000D01*
X156337000Y-105460155D01*
X156566890Y-105581476D01*
X156714099Y-105536825D01*
X156946600Y-105426083D01*
X156946601Y-106108898D01*
X156873358Y-106182141D01*
X156787887Y-106310058D01*
X156729013Y-106452191D01*
X156699000Y-106603078D01*
X156699000Y-106756922D01*
X156729013Y-106907809D01*
X156787887Y-107049942D01*
X156873358Y-107177859D01*
X156982141Y-107286642D01*
X157110058Y-107372113D01*
X157252191Y-107430987D01*
X157403078Y-107461000D01*
X157556922Y-107461000D01*
X157707809Y-107430987D01*
X157819414Y-107384758D01*
X153454344Y-111749829D01*
X153427698Y-111771697D01*
X153405830Y-111798343D01*
X153405826Y-111798347D01*
X153340409Y-111878057D01*
X153275549Y-111999402D01*
X153275549Y-111999403D01*
X153242511Y-112108316D01*
X153235608Y-112131071D01*
X153222122Y-112268000D01*
X153225501Y-112302308D01*
X153225500Y-130711672D01*
X151438161Y-132499012D01*
X151493550Y-132316417D01*
X151516835Y-132080000D01*
X151493550Y-131843583D01*
X151424590Y-131616251D01*
X151312604Y-131406741D01*
X151161897Y-131223103D01*
X150978259Y-131072396D01*
X150768749Y-130960410D01*
X150541417Y-130891450D01*
X150364244Y-130874000D01*
X149355756Y-130874000D01*
X149178583Y-130891450D01*
X148951251Y-130960410D01*
X148741741Y-131072396D01*
X148558103Y-131223103D01*
X148407396Y-131406741D01*
X148295410Y-131616251D01*
X148226450Y-131843583D01*
X148203165Y-132080000D01*
X148082000Y-132080000D01*
X148082000Y-127000000D01*
X148203165Y-127000000D01*
X148226450Y-127236417D01*
X148295410Y-127463749D01*
X148407396Y-127673259D01*
X148558103Y-127856897D01*
X148741741Y-128007604D01*
X148951251Y-128119590D01*
X149178583Y-128188550D01*
X149355756Y-128206000D01*
X150364244Y-128206000D01*
X150541417Y-128188550D01*
X150768749Y-128119590D01*
X150978259Y-128007604D01*
X151161897Y-127856897D01*
X151312604Y-127673259D01*
X151424590Y-127463749D01*
X151493550Y-127236417D01*
X151516835Y-127000000D01*
X151493550Y-126763583D01*
X151424590Y-126536251D01*
X151312604Y-126326741D01*
X151161897Y-126143103D01*
X150978259Y-125992396D01*
X150768749Y-125880410D01*
X150541417Y-125811450D01*
X150364244Y-125794000D01*
X149355756Y-125794000D01*
X149178583Y-125811450D01*
X148951251Y-125880410D01*
X148741741Y-125992396D01*
X148558103Y-126143103D01*
X148407396Y-126326741D01*
X148295410Y-126536251D01*
X148226450Y-126763583D01*
X148203165Y-127000000D01*
X148082000Y-127000000D01*
X148082000Y-124460000D01*
X148203165Y-124460000D01*
X148226450Y-124696417D01*
X148295410Y-124923749D01*
X148407396Y-125133259D01*
X148558103Y-125316897D01*
X148741741Y-125467604D01*
X148951251Y-125579590D01*
X149178583Y-125648550D01*
X149355756Y-125666000D01*
X150364244Y-125666000D01*
X150541417Y-125648550D01*
X150768749Y-125579590D01*
X150978259Y-125467604D01*
X151161897Y-125316897D01*
X151312604Y-125133259D01*
X151424590Y-124923749D01*
X151493550Y-124696417D01*
X151516835Y-124460000D01*
X151493550Y-124223583D01*
X151424590Y-123996251D01*
X151312604Y-123786741D01*
X151161897Y-123603103D01*
X150978259Y-123452396D01*
X150768749Y-123340410D01*
X150541417Y-123271450D01*
X150364244Y-123254000D01*
X149355756Y-123254000D01*
X149178583Y-123271450D01*
X148951251Y-123340410D01*
X148741741Y-123452396D01*
X148558103Y-123603103D01*
X148407396Y-123786741D01*
X148295410Y-123996251D01*
X148226450Y-124223583D01*
X148203165Y-124460000D01*
X148082000Y-124460000D01*
X148082000Y-121920000D01*
X148203165Y-121920000D01*
X148226450Y-122156417D01*
X148295410Y-122383749D01*
X148407396Y-122593259D01*
X148558103Y-122776897D01*
X148741741Y-122927604D01*
X148951251Y-123039590D01*
X149178583Y-123108550D01*
X149355756Y-123126000D01*
X150364244Y-123126000D01*
X150541417Y-123108550D01*
X150768749Y-123039590D01*
X150978259Y-122927604D01*
X151161897Y-122776897D01*
X151312604Y-122593259D01*
X151424590Y-122383749D01*
X151493550Y-122156417D01*
X151516835Y-121920000D01*
X151493550Y-121683583D01*
X151424590Y-121456251D01*
X151312604Y-121246741D01*
X151161897Y-121063103D01*
X150978259Y-120912396D01*
X150768749Y-120800410D01*
X150541417Y-120731450D01*
X150364244Y-120714000D01*
X149355756Y-120714000D01*
X149178583Y-120731450D01*
X148951251Y-120800410D01*
X148741741Y-120912396D01*
X148558103Y-121063103D01*
X148407396Y-121246741D01*
X148295410Y-121456251D01*
X148226450Y-121683583D01*
X148203165Y-121920000D01*
X148082000Y-121920000D01*
X148082000Y-119380000D01*
X148203165Y-119380000D01*
X148226450Y-119616417D01*
X148295410Y-119843749D01*
X148407396Y-120053259D01*
X148558103Y-120236897D01*
X148741741Y-120387604D01*
X148951251Y-120499590D01*
X149178583Y-120568550D01*
X149355756Y-120586000D01*
X150364244Y-120586000D01*
X150541417Y-120568550D01*
X150768749Y-120499590D01*
X150978259Y-120387604D01*
X151161897Y-120236897D01*
X151312604Y-120053259D01*
X151424590Y-119843749D01*
X151493550Y-119616417D01*
X151516835Y-119380000D01*
X151493550Y-119143583D01*
X151424590Y-118916251D01*
X151312604Y-118706741D01*
X151161897Y-118523103D01*
X150978259Y-118372396D01*
X150768749Y-118260410D01*
X150541417Y-118191450D01*
X150364244Y-118174000D01*
X149355756Y-118174000D01*
X149178583Y-118191450D01*
X148951251Y-118260410D01*
X148741741Y-118372396D01*
X148558103Y-118523103D01*
X148407396Y-118706741D01*
X148295410Y-118916251D01*
X148226450Y-119143583D01*
X148203165Y-119380000D01*
X148082000Y-119380000D01*
X148082000Y-116840000D01*
X148203165Y-116840000D01*
X148226450Y-117076417D01*
X148295410Y-117303749D01*
X148407396Y-117513259D01*
X148558103Y-117696897D01*
X148741741Y-117847604D01*
X148951251Y-117959590D01*
X149178583Y-118028550D01*
X149355756Y-118046000D01*
X150364244Y-118046000D01*
X150541417Y-118028550D01*
X150768749Y-117959590D01*
X150978259Y-117847604D01*
X151161897Y-117696897D01*
X151312604Y-117513259D01*
X151424590Y-117303749D01*
X151493550Y-117076417D01*
X151516835Y-116840000D01*
X151493550Y-116603583D01*
X151424590Y-116376251D01*
X151312604Y-116166741D01*
X151161897Y-115983103D01*
X150978259Y-115832396D01*
X150768749Y-115720410D01*
X150541417Y-115651450D01*
X150364244Y-115634000D01*
X149355756Y-115634000D01*
X149178583Y-115651450D01*
X148951251Y-115720410D01*
X148741741Y-115832396D01*
X148558103Y-115983103D01*
X148407396Y-116166741D01*
X148295410Y-116376251D01*
X148226450Y-116603583D01*
X148203165Y-116840000D01*
X148082000Y-116840000D01*
X148082000Y-114300000D01*
X148203165Y-114300000D01*
X148226450Y-114536417D01*
X148295410Y-114763749D01*
X148407396Y-114973259D01*
X148558103Y-115156897D01*
X148741741Y-115307604D01*
X148951251Y-115419590D01*
X149178583Y-115488550D01*
X149355756Y-115506000D01*
X150364244Y-115506000D01*
X150541417Y-115488550D01*
X150768749Y-115419590D01*
X150978259Y-115307604D01*
X151161897Y-115156897D01*
X151312604Y-114973259D01*
X151424590Y-114763749D01*
X151493550Y-114536417D01*
X151516835Y-114300000D01*
X151493550Y-114063583D01*
X151424590Y-113836251D01*
X151312604Y-113626741D01*
X151161897Y-113443103D01*
X150978259Y-113292396D01*
X150768749Y-113180410D01*
X150541417Y-113111450D01*
X150364244Y-113094000D01*
X149355756Y-113094000D01*
X149178583Y-113111450D01*
X148951251Y-113180410D01*
X148741741Y-113292396D01*
X148558103Y-113443103D01*
X148407396Y-113626741D01*
X148295410Y-113836251D01*
X148226450Y-114063583D01*
X148203165Y-114300000D01*
X148082000Y-114300000D01*
X148082000Y-113590606D01*
X148848134Y-112824472D01*
X148951251Y-112879590D01*
X149178583Y-112948550D01*
X149355756Y-112966000D01*
X150364244Y-112966000D01*
X150541417Y-112948550D01*
X150768749Y-112879590D01*
X150978259Y-112767604D01*
X151161897Y-112616897D01*
X151312604Y-112433259D01*
X151424590Y-112223749D01*
X151493550Y-111996417D01*
X151516835Y-111760000D01*
X151493550Y-111523583D01*
X151424590Y-111296251D01*
X151312604Y-111086741D01*
X151161897Y-110903103D01*
X150978259Y-110752396D01*
X150940430Y-110732176D01*
X151880199Y-109792407D01*
X151880200Y-127210458D01*
X150693174Y-128397485D01*
X150541417Y-128351450D01*
X150364244Y-128334000D01*
X149355756Y-128334000D01*
X149178583Y-128351450D01*
X148951251Y-128420410D01*
X148741741Y-128532396D01*
X148558103Y-128683103D01*
X148407396Y-128866741D01*
X148295410Y-129076251D01*
X148226450Y-129303583D01*
X148203165Y-129540000D01*
X148226450Y-129776417D01*
X148295410Y-130003749D01*
X148407396Y-130213259D01*
X148558103Y-130396897D01*
X148741741Y-130547604D01*
X148951251Y-130659590D01*
X149178583Y-130728550D01*
X149355756Y-130746000D01*
X150364244Y-130746000D01*
X150541417Y-130728550D01*
X150768749Y-130659590D01*
X150978259Y-130547604D01*
X151161897Y-130396897D01*
X151312604Y-130213259D01*
X151424590Y-130003749D01*
X151493550Y-129776417D01*
X151516835Y-129540000D01*
X151493550Y-129303583D01*
X151447515Y-129151826D01*
X152772250Y-127827092D01*
X152792594Y-127810396D01*
X152859250Y-127729176D01*
X152908780Y-127636512D01*
X152939280Y-127535966D01*
X152946999Y-127457596D01*
X152946999Y-127457589D01*
X152949578Y-127431402D01*
X152946999Y-127405215D01*
X152946999Y-108725607D01*
X155029803Y-106642803D01*
X155045597Y-106623557D01*
X155057333Y-106601601D01*
X155064560Y-106577776D01*
X155067000Y-106553000D01*
X155067000Y-105079242D01*
X155209731Y-105237588D01*
X155443080Y-105411641D01*
X155705901Y-105536825D01*
X155853110Y-105581476D01*
X156083000Y-105460155D01*
X156083000Y-104267000D01*
X156063000Y-104267000D01*
X156063000Y-104013000D01*
X156083000Y-104013000D01*
X156083000Y-102819845D01*
X155928032Y-102738063D01*
X155972179Y-102724671D01*
X156081589Y-102666190D01*
X156177488Y-102587488D01*
X156256190Y-102491589D01*
X156314671Y-102382179D01*
X156350683Y-102263462D01*
X156362843Y-102140000D01*
X156362843Y-99140000D01*
X156350683Y-99016538D01*
X156314671Y-98897821D01*
X156256190Y-98788411D01*
X156177488Y-98692512D01*
X156081589Y-98613810D01*
X155972179Y-98555329D01*
X155926283Y-98541407D01*
X155925651Y-98540225D01*
X155858995Y-98459005D01*
X155838645Y-98442304D01*
X154827696Y-97431355D01*
X154810995Y-97411005D01*
X154729775Y-97344349D01*
X154637111Y-97294819D01*
X154536565Y-97264319D01*
X154458195Y-97256600D01*
X154458187Y-97256600D01*
X154432000Y-97254021D01*
X154405813Y-97256600D01*
X151156187Y-97256600D01*
X151130000Y-97254021D01*
X151103813Y-97256600D01*
X151103805Y-97256600D01*
X151025435Y-97264319D01*
X150924889Y-97294819D01*
X150832225Y-97344349D01*
X150789621Y-97379313D01*
X150778062Y-97388800D01*
X150751005Y-97411005D01*
X150734309Y-97431349D01*
X147962659Y-100203000D01*
X147955000Y-100203000D01*
X147955000Y-93370000D01*
X148004051Y-93370000D01*
X147997157Y-93440000D01*
X147997157Y-93440000D01*
G37*
X147997157Y-93440000D02*
X147997157Y-96340000D01*
X148009317Y-96463462D01*
X148045329Y-96582179D01*
X148103810Y-96691589D01*
X148182512Y-96787488D01*
X148278411Y-96866190D01*
X148387821Y-96924671D01*
X148506538Y-96960683D01*
X148630000Y-96972843D01*
X149630000Y-96972843D01*
X149753462Y-96960683D01*
X149872179Y-96924671D01*
X149981589Y-96866190D01*
X150077488Y-96787488D01*
X150156190Y-96691589D01*
X150214671Y-96582179D01*
X150250683Y-96463462D01*
X150262843Y-96340000D01*
X150262843Y-93440000D01*
X150255949Y-93370000D01*
X164704051Y-93370000D01*
X164697157Y-93440000D01*
X164697157Y-96340000D01*
X164709317Y-96463462D01*
X164745329Y-96582179D01*
X164803810Y-96691589D01*
X164882512Y-96787488D01*
X164978411Y-96866190D01*
X165087821Y-96924671D01*
X165206538Y-96960683D01*
X165330000Y-96972843D01*
X166330000Y-96972843D01*
X166453462Y-96960683D01*
X166572179Y-96924671D01*
X166681589Y-96866190D01*
X166777488Y-96787488D01*
X166856190Y-96691589D01*
X166914671Y-96582179D01*
X166950683Y-96463462D01*
X166962843Y-96340000D01*
X166962843Y-95562889D01*
X168453000Y-95562889D01*
X168453000Y-95953111D01*
X168529129Y-96335836D01*
X168678461Y-96696355D01*
X168895257Y-97020814D01*
X169171186Y-97296743D01*
X169495645Y-97513539D01*
X169856164Y-97662871D01*
X170238889Y-97739000D01*
X170629111Y-97739000D01*
X171011836Y-97662871D01*
X171372355Y-97513539D01*
X171696814Y-97296743D01*
X171972743Y-97020814D01*
X172189539Y-96696355D01*
X172338871Y-96335836D01*
X172415000Y-95953111D01*
X172415000Y-95562889D01*
X172338871Y-95180164D01*
X172189539Y-94819645D01*
X171972743Y-94495186D01*
X171696814Y-94219257D01*
X171372355Y-94002461D01*
X171011836Y-93853129D01*
X170629111Y-93777000D01*
X170238889Y-93777000D01*
X169856164Y-93853129D01*
X169495645Y-94002461D01*
X169171186Y-94219257D01*
X168895257Y-94495186D01*
X168678461Y-94819645D01*
X168529129Y-95180164D01*
X168453000Y-95562889D01*
X166962843Y-95562889D01*
X166962843Y-93440000D01*
X166955949Y-93370000D01*
X172822000Y-93370000D01*
X172822001Y-155550000D01*
X145415000Y-155550000D01*
X145415000Y-148007606D01*
X146229606Y-147193000D01*
X149728700Y-147193000D01*
X149733000Y-147236660D01*
X149733000Y-147236666D01*
X149745864Y-147367273D01*
X149796697Y-147534850D01*
X149879247Y-147689290D01*
X149990341Y-147824659D01*
X150024264Y-147852499D01*
X150241001Y-148069236D01*
X150241000Y-152605971D01*
X150057307Y-152789664D01*
X149906174Y-153015851D01*
X149802071Y-153267177D01*
X149749000Y-153533983D01*
X149749000Y-153806017D01*
X149802071Y-154072823D01*
X149906174Y-154324149D01*
X150057307Y-154550336D01*
X150249664Y-154742693D01*
X150475851Y-154893826D01*
X150727177Y-154997929D01*
X150993983Y-155051000D01*
X151266017Y-155051000D01*
X151532823Y-154997929D01*
X151784149Y-154893826D01*
X152010336Y-154742693D01*
X152202693Y-154550336D01*
X152353826Y-154324149D01*
X152457929Y-154072823D01*
X152511000Y-153806017D01*
X152511000Y-153533983D01*
X152457929Y-153267177D01*
X152353826Y-153015851D01*
X152202693Y-152789664D01*
X152019000Y-152605971D01*
X152019000Y-147744659D01*
X152023300Y-147700999D01*
X152019000Y-147657339D01*
X152019000Y-147657333D01*
X152009406Y-147559924D01*
X152006136Y-147526724D01*
X151975296Y-147425058D01*
X151955303Y-147359149D01*
X151872753Y-147204709D01*
X151761659Y-147069341D01*
X151727736Y-147041501D01*
X151511000Y-146824765D01*
X151511000Y-144482333D01*
X151498136Y-144351726D01*
X151447303Y-144184149D01*
X151364753Y-144029709D01*
X151253659Y-143894341D01*
X151118291Y-143783247D01*
X150963851Y-143700697D01*
X150796274Y-143649864D01*
X150622000Y-143632699D01*
X150447727Y-143649864D01*
X150280150Y-143700697D01*
X150125710Y-143783247D01*
X149990342Y-143894341D01*
X149879248Y-144029709D01*
X149796698Y-144184149D01*
X149745865Y-144351726D01*
X149733001Y-144482333D01*
X149733000Y-145712666D01*
X149733001Y-145712676D01*
X149733000Y-147149340D01*
X149728700Y-147193000D01*
X146229606Y-147193000D01*
X148044803Y-145377803D01*
X148060597Y-145358557D01*
X148072333Y-145336601D01*
X148079560Y-145312776D01*
X148082000Y-145288000D01*
X148082000Y-140292132D01*
X148130496Y-140405535D01*
X148292821Y-140642573D01*
X148498270Y-140843388D01*
X148738949Y-141000263D01*
X149000995Y-141105320D01*
X148951251Y-141120410D01*
X148741741Y-141232396D01*
X148558103Y-141383103D01*
X148407396Y-141566741D01*
X148295410Y-141776251D01*
X148226450Y-142003583D01*
X148203165Y-142240000D01*
X148226450Y-142476417D01*
X148295410Y-142703749D01*
X148407396Y-142913259D01*
X148558103Y-143096897D01*
X148741741Y-143247604D01*
X148951251Y-143359590D01*
X149178583Y-143428550D01*
X149355756Y-143446000D01*
X150364244Y-143446000D01*
X150541417Y-143428550D01*
X150768749Y-143359590D01*
X150978259Y-143247604D01*
X151161897Y-143096897D01*
X151291889Y-142938500D01*
X151475673Y-142938500D01*
X152463500Y-143926328D01*
X152463501Y-152873692D01*
X152460122Y-152908000D01*
X152473608Y-153044929D01*
X152513549Y-153176598D01*
X152578409Y-153297943D01*
X152643826Y-153377653D01*
X152643830Y-153377657D01*
X152665698Y-153404303D01*
X152692344Y-153426171D01*
X154167829Y-154901657D01*
X154189697Y-154928303D01*
X154216343Y-154950171D01*
X154216345Y-154950173D01*
X154296056Y-155015591D01*
X154362302Y-155051000D01*
X154417403Y-155080452D01*
X154549070Y-155120393D01*
X154651691Y-155130500D01*
X154651701Y-155130500D01*
X154685999Y-155133878D01*
X154720297Y-155130500D01*
X166293702Y-155130500D01*
X166328000Y-155133878D01*
X166362298Y-155130500D01*
X166362309Y-155130500D01*
X166464930Y-155120393D01*
X166596597Y-155080452D01*
X166717943Y-155015591D01*
X166824303Y-154928303D01*
X166846175Y-154901652D01*
X168257729Y-153490098D01*
X168249000Y-153533983D01*
X168249000Y-153806017D01*
X168302071Y-154072823D01*
X168406174Y-154324149D01*
X168557307Y-154550336D01*
X168749664Y-154742693D01*
X168975851Y-154893826D01*
X169227177Y-154997929D01*
X169493983Y-155051000D01*
X169766017Y-155051000D01*
X170032823Y-154997929D01*
X170284149Y-154893826D01*
X170510336Y-154742693D01*
X170702693Y-154550336D01*
X170853826Y-154324149D01*
X170957929Y-154072823D01*
X171011000Y-153806017D01*
X171011000Y-153533983D01*
X170957929Y-153267177D01*
X170853826Y-153015851D01*
X170702693Y-152789664D01*
X170510336Y-152597307D01*
X170328500Y-152475808D01*
X170328500Y-152324192D01*
X170510336Y-152202693D01*
X170702693Y-152010336D01*
X170853826Y-151784149D01*
X170957929Y-151532823D01*
X171011000Y-151266017D01*
X171011000Y-150993983D01*
X170957929Y-150727177D01*
X170853826Y-150475851D01*
X170702693Y-150249664D01*
X170510336Y-150057307D01*
X170284149Y-149906174D01*
X170032823Y-149802071D01*
X169766017Y-149749000D01*
X169493983Y-149749000D01*
X169227177Y-149802071D01*
X168975851Y-149906174D01*
X168749664Y-150057307D01*
X168557307Y-150249664D01*
X168406174Y-150475851D01*
X168302071Y-150727177D01*
X168249000Y-150993983D01*
X168249000Y-151266017D01*
X168291665Y-151480508D01*
X168160352Y-151611821D01*
X168160347Y-151611825D01*
X166038673Y-153733500D01*
X163156897Y-153733500D01*
X163165072Y-153650500D01*
X163162000Y-153498750D01*
X163003250Y-153340000D01*
X162179000Y-153340000D01*
X162179000Y-153360000D01*
X161925000Y-153360000D01*
X161925000Y-153340000D01*
X161100750Y-153340000D01*
X160942000Y-153498750D01*
X160938928Y-153650500D01*
X160947103Y-153733500D01*
X159905898Y-153733500D01*
X159914073Y-153650500D01*
X159911001Y-153498750D01*
X159752251Y-153340000D01*
X158928001Y-153340000D01*
X158928001Y-153360000D01*
X158674001Y-153360000D01*
X158674001Y-153340000D01*
X157849751Y-153340000D01*
X157691001Y-153498750D01*
X157687929Y-153650500D01*
X157696104Y-153733500D01*
X156552897Y-153733500D01*
X156561072Y-153650500D01*
X156558000Y-153498750D01*
X156399250Y-153340000D01*
X155575000Y-153340000D01*
X155575000Y-153360000D01*
X155321000Y-153360000D01*
X155321000Y-153340000D01*
X155301000Y-153340000D01*
X155301000Y-153086000D01*
X155321000Y-153086000D01*
X155321000Y-153066000D01*
X155575000Y-153066000D01*
X155575000Y-153086000D01*
X156399250Y-153086000D01*
X156558000Y-152927250D01*
X156561072Y-152775500D01*
X156548812Y-152651018D01*
X156512502Y-152531320D01*
X156453537Y-152421006D01*
X156374185Y-152324315D01*
X156277494Y-152244963D01*
X156195930Y-152201366D01*
X156204456Y-152190977D01*
X156260049Y-152086970D01*
X156294284Y-151974115D01*
X156305843Y-151856750D01*
X156305843Y-151419250D01*
X156294284Y-151301885D01*
X156260049Y-151189030D01*
X156204456Y-151085023D01*
X156129640Y-150993860D01*
X156038477Y-150919044D01*
X156005655Y-150901500D01*
X156038477Y-150883956D01*
X156129640Y-150809140D01*
X156204456Y-150717977D01*
X156260049Y-150613970D01*
X156294284Y-150501115D01*
X156305843Y-150383750D01*
X156305843Y-149946250D01*
X156294284Y-149828885D01*
X156260049Y-149716030D01*
X156204456Y-149612023D01*
X156129640Y-149520860D01*
X156038477Y-149446044D01*
X155934470Y-149390451D01*
X155891777Y-149377500D01*
X155934470Y-149364549D01*
X156038477Y-149308956D01*
X156129640Y-149234140D01*
X156204456Y-149142977D01*
X156260049Y-149038970D01*
X156294284Y-148926115D01*
X156305843Y-148808750D01*
X156305843Y-148371250D01*
X156294284Y-148253885D01*
X156260049Y-148141030D01*
X156204456Y-148037023D01*
X156129640Y-147945860D01*
X156038477Y-147871044D01*
X155981400Y-147840536D01*
X155981400Y-124214542D01*
X156025887Y-124321942D01*
X156111358Y-124449859D01*
X156184600Y-124523101D01*
X156184601Y-146474804D01*
X156182021Y-146501001D01*
X156192319Y-146605565D01*
X156222819Y-146706111D01*
X156265953Y-146786808D01*
X156272350Y-146798776D01*
X156279673Y-146807699D01*
X156322307Y-146859649D01*
X156322310Y-146859652D01*
X156339006Y-146879996D01*
X156359350Y-146896692D01*
X157949156Y-148486498D01*
X157949156Y-148808750D01*
X157960715Y-148926115D01*
X157994950Y-149038970D01*
X158050543Y-149142977D01*
X158125359Y-149234140D01*
X158216522Y-149308956D01*
X158320529Y-149364549D01*
X158363222Y-149377500D01*
X158320529Y-149390451D01*
X158216522Y-149446044D01*
X158125359Y-149520860D01*
X158050543Y-149612023D01*
X157994950Y-149716030D01*
X157960715Y-149828885D01*
X157949156Y-149946250D01*
X157949156Y-150383750D01*
X157960715Y-150501115D01*
X157994950Y-150613970D01*
X158050543Y-150717977D01*
X158125359Y-150809140D01*
X158216522Y-150883956D01*
X158246345Y-150899897D01*
X158210524Y-150919044D01*
X158119361Y-150993860D01*
X158044545Y-151085023D01*
X157988952Y-151189030D01*
X157954717Y-151301885D01*
X157943158Y-151419250D01*
X157943158Y-151856750D01*
X157954717Y-151974115D01*
X157988952Y-152086970D01*
X158044545Y-152190977D01*
X158053071Y-152201366D01*
X157971507Y-152244963D01*
X157874816Y-152324315D01*
X157795464Y-152421006D01*
X157736499Y-152531320D01*
X157700189Y-152651018D01*
X157687929Y-152775500D01*
X157691001Y-152927250D01*
X157849751Y-153086000D01*
X158674001Y-153086000D01*
X158674001Y-153066000D01*
X158928001Y-153066000D01*
X158928001Y-153086000D01*
X159752251Y-153086000D01*
X159911001Y-152927250D01*
X159914073Y-152775500D01*
X159901813Y-152651018D01*
X159865503Y-152531320D01*
X159806538Y-152421006D01*
X159727186Y-152324315D01*
X159630495Y-152244963D01*
X159548931Y-152201366D01*
X159557457Y-152190977D01*
X159613050Y-152086970D01*
X159647285Y-151974115D01*
X159658844Y-151856750D01*
X159658844Y-151419250D01*
X159647285Y-151301885D01*
X159613050Y-151189030D01*
X159557457Y-151085023D01*
X159482641Y-150993860D01*
X159391478Y-150919044D01*
X159361655Y-150903103D01*
X159397476Y-150883956D01*
X159488639Y-150809140D01*
X159563455Y-150717977D01*
X159619048Y-150613970D01*
X159653283Y-150501115D01*
X159664842Y-150383750D01*
X159664842Y-149946250D01*
X159653283Y-149828885D01*
X159619048Y-149716030D01*
X159563455Y-149612023D01*
X159488639Y-149520860D01*
X159397476Y-149446044D01*
X159293469Y-149390451D01*
X159250776Y-149377500D01*
X159293469Y-149364549D01*
X159397476Y-149308956D01*
X159488639Y-149234140D01*
X159563455Y-149142977D01*
X159619048Y-149038970D01*
X159653283Y-148926115D01*
X159664842Y-148808750D01*
X159664842Y-148371250D01*
X159653283Y-148253885D01*
X159619048Y-148141030D01*
X159563455Y-148037023D01*
X159488639Y-147945860D01*
X159397476Y-147871044D01*
X159293469Y-147815451D01*
X159180614Y-147781216D01*
X159063249Y-147769657D01*
X158740997Y-147769657D01*
X157251400Y-146280060D01*
X157251400Y-130564542D01*
X157295887Y-130671942D01*
X157381358Y-130799859D01*
X157490141Y-130908642D01*
X157618058Y-130994113D01*
X157760191Y-131052987D01*
X157911078Y-131083000D01*
X158064922Y-131083000D01*
X158215809Y-131052987D01*
X158357942Y-130994113D01*
X158485859Y-130908642D01*
X158594642Y-130799859D01*
X158680113Y-130671942D01*
X158738987Y-130529809D01*
X158769000Y-130378922D01*
X158769000Y-130225078D01*
X158738987Y-130074191D01*
X158680113Y-129932058D01*
X158594642Y-129804141D01*
X158485859Y-129695358D01*
X158357942Y-129609887D01*
X158215809Y-129551013D01*
X158140400Y-129536013D01*
X158140400Y-115319987D01*
X158215809Y-115304987D01*
X158357942Y-115246113D01*
X158485859Y-115160642D01*
X158594642Y-115051859D01*
X158680113Y-114923942D01*
X158738987Y-114781809D01*
X158769000Y-114630922D01*
X158769000Y-114477078D01*
X158738987Y-114326191D01*
X158680113Y-114184058D01*
X158594642Y-114056141D01*
X158485859Y-113947358D01*
X158357942Y-113861887D01*
X158215809Y-113803013D01*
X158064922Y-113773000D01*
X157911078Y-113773000D01*
X157760191Y-113803013D01*
X157618058Y-113861887D01*
X157490141Y-113947358D01*
X157381358Y-114056141D01*
X157295887Y-114184058D01*
X157237013Y-114326191D01*
X157207000Y-114477078D01*
X157207000Y-114581600D01*
X157193727Y-114597774D01*
X157161350Y-114637225D01*
X157161349Y-114637227D01*
X157111819Y-114729890D01*
X157081319Y-114830436D01*
X157071021Y-114935000D01*
X157073601Y-114961197D01*
X157073601Y-116023125D01*
X157026242Y-115952247D01*
X156917459Y-115843464D01*
X156789542Y-115757993D01*
X156647409Y-115699119D01*
X156496522Y-115669106D01*
X156342678Y-115669106D01*
X156191791Y-115699119D01*
X156049658Y-115757993D01*
X155921741Y-115843464D01*
X155812958Y-115952247D01*
X155727487Y-116080164D01*
X155668613Y-116222297D01*
X155638600Y-116373184D01*
X155638600Y-116476764D01*
X155089354Y-117026011D01*
X155069005Y-117042711D01*
X155002349Y-117123931D01*
X154952819Y-117216596D01*
X154922319Y-117317142D01*
X154914600Y-117395512D01*
X154914600Y-117395519D01*
X154912021Y-117421706D01*
X154914600Y-117447893D01*
X154914601Y-147840535D01*
X154857523Y-147871044D01*
X154766360Y-147945860D01*
X154691544Y-148037023D01*
X154635951Y-148141030D01*
X154601716Y-148253885D01*
X154590157Y-148371250D01*
X154590157Y-148808750D01*
X154601716Y-148926115D01*
X154635951Y-149038970D01*
X154691544Y-149142977D01*
X154766360Y-149234140D01*
X154857523Y-149308956D01*
X154961530Y-149364549D01*
X155004223Y-149377500D01*
X154961530Y-149390451D01*
X154857523Y-149446044D01*
X154766360Y-149520860D01*
X154691544Y-149612023D01*
X154635951Y-149716030D01*
X154601716Y-149828885D01*
X154590157Y-149946250D01*
X154590157Y-150383750D01*
X154601716Y-150501115D01*
X154635951Y-150613970D01*
X154691544Y-150717977D01*
X154766360Y-150809140D01*
X154857523Y-150883956D01*
X154890345Y-150901500D01*
X154857523Y-150919044D01*
X154766360Y-150993860D01*
X154691544Y-151085023D01*
X154635951Y-151189030D01*
X154601716Y-151301885D01*
X154590157Y-151419250D01*
X154590157Y-151856750D01*
X154601716Y-151974115D01*
X154635951Y-152086970D01*
X154691544Y-152190977D01*
X154700070Y-152201366D01*
X154618506Y-152244963D01*
X154521815Y-152324315D01*
X154442463Y-152421006D01*
X154383498Y-152531320D01*
X154347188Y-152651018D01*
X154334928Y-152775500D01*
X154338000Y-152927250D01*
X154496748Y-153085998D01*
X154338000Y-153085998D01*
X154338000Y-153096172D01*
X153860500Y-152618673D01*
X153860500Y-143671297D01*
X153863878Y-143636999D01*
X153860500Y-143602701D01*
X153860500Y-143602691D01*
X153850393Y-143500070D01*
X153810452Y-143368403D01*
X153801511Y-143351675D01*
X153745591Y-143247056D01*
X153680173Y-143167345D01*
X153680167Y-143167339D01*
X153658302Y-143140697D01*
X153631662Y-143118834D01*
X152283175Y-141770348D01*
X152261303Y-141743697D01*
X152154943Y-141656409D01*
X152033597Y-141591548D01*
X151901930Y-141551607D01*
X151799309Y-141541500D01*
X151799298Y-141541500D01*
X151765000Y-141538122D01*
X151730702Y-141541500D01*
X151291889Y-141541500D01*
X151161897Y-141383103D01*
X150978259Y-141232396D01*
X150768749Y-141120410D01*
X150719005Y-141105320D01*
X150981051Y-141000263D01*
X151221730Y-140843388D01*
X151427179Y-140642573D01*
X151589504Y-140405535D01*
X151702466Y-140141384D01*
X151721692Y-140052965D01*
X151600038Y-139827000D01*
X149987000Y-139827000D01*
X149987000Y-139847000D01*
X149733000Y-139847000D01*
X149733000Y-139827000D01*
X149713000Y-139827000D01*
X149713000Y-139573000D01*
X149733000Y-139573000D01*
X149733000Y-139553000D01*
X149987000Y-139553000D01*
X149987000Y-139573000D01*
X151600038Y-139573000D01*
X151721692Y-139347035D01*
X151702466Y-139258616D01*
X151589504Y-138994465D01*
X151427179Y-138757427D01*
X151221730Y-138556612D01*
X150981051Y-138399737D01*
X150719005Y-138294680D01*
X150768749Y-138279590D01*
X150978259Y-138167604D01*
X151161897Y-138016897D01*
X151312604Y-137833259D01*
X151424590Y-137623749D01*
X151493550Y-137396417D01*
X151516835Y-137160000D01*
X151493550Y-136923583D01*
X151424590Y-136696251D01*
X151312604Y-136486741D01*
X151161897Y-136303103D01*
X150978259Y-136152396D01*
X150768749Y-136040410D01*
X150541417Y-135971450D01*
X150364244Y-135954000D01*
X149355756Y-135954000D01*
X149178583Y-135971450D01*
X148951251Y-136040410D01*
X148741741Y-136152396D01*
X148558103Y-136303103D01*
X148407396Y-136486741D01*
X148295410Y-136696251D01*
X148226450Y-136923583D01*
X148203165Y-137160000D01*
X148226450Y-137396417D01*
X148295410Y-137623749D01*
X148407396Y-137833259D01*
X148558103Y-138016897D01*
X148741741Y-138167604D01*
X148951251Y-138279590D01*
X149000995Y-138294680D01*
X148738949Y-138399737D01*
X148498270Y-138556612D01*
X148292821Y-138757427D01*
X148130496Y-138994465D01*
X148082000Y-139107868D01*
X148082000Y-132080000D01*
X148203165Y-132080000D01*
X148226450Y-132316417D01*
X148295410Y-132543749D01*
X148407396Y-132753259D01*
X148558103Y-132936897D01*
X148741741Y-133087604D01*
X148951251Y-133199590D01*
X149178583Y-133268550D01*
X149355756Y-133286000D01*
X150364244Y-133286000D01*
X150541417Y-133268550D01*
X150724012Y-133213161D01*
X150508923Y-133428250D01*
X150364244Y-133414000D01*
X149355756Y-133414000D01*
X149178583Y-133431450D01*
X148951251Y-133500410D01*
X148741741Y-133612396D01*
X148558103Y-133763103D01*
X148407396Y-133946741D01*
X148295410Y-134156251D01*
X148226450Y-134383583D01*
X148203165Y-134620000D01*
X148226450Y-134856417D01*
X148295410Y-135083749D01*
X148407396Y-135293259D01*
X148558103Y-135476897D01*
X148741741Y-135627604D01*
X148951251Y-135739590D01*
X149178583Y-135808550D01*
X149355756Y-135826000D01*
X150364244Y-135826000D01*
X150541417Y-135808550D01*
X150768749Y-135739590D01*
X150978259Y-135627604D01*
X151161897Y-135476897D01*
X151312604Y-135293259D01*
X151424590Y-135083749D01*
X151493550Y-134856417D01*
X151516835Y-134620000D01*
X151496750Y-134416077D01*
X154393662Y-131519166D01*
X154420302Y-131497303D01*
X154442167Y-131470661D01*
X154442174Y-131470654D01*
X154507591Y-131390944D01*
X154572451Y-131269598D01*
X154572452Y-131269597D01*
X154612393Y-131137930D01*
X154622500Y-131035309D01*
X154622500Y-131035298D01*
X154625878Y-131001000D01*
X154622500Y-130966702D01*
X154622500Y-112557327D01*
X159219662Y-107960166D01*
X159246302Y-107938303D01*
X159268167Y-107911661D01*
X159268174Y-107911654D01*
X159333591Y-107831943D01*
X159398451Y-107710598D01*
X159398452Y-107710597D01*
X159438393Y-107578930D01*
X159448500Y-107476309D01*
X159448500Y-107476298D01*
X159451878Y-107442000D01*
X159448500Y-107407702D01*
X159448500Y-105159230D01*
X159624660Y-105014660D01*
X159778491Y-104827216D01*
X159892798Y-104613363D01*
X159963188Y-104381318D01*
X159986956Y-104140000D01*
X159963188Y-103898682D01*
X159892798Y-103666637D01*
X159778491Y-103452784D01*
X159624660Y-103265340D01*
X159437216Y-103111509D01*
X159283400Y-103029292D01*
X159283400Y-102964106D01*
X159285979Y-102937919D01*
X159283400Y-102911732D01*
X159283400Y-102911724D01*
X159275681Y-102833354D01*
X159257325Y-102772843D01*
X159730000Y-102772843D01*
X159853462Y-102760683D01*
X159972179Y-102724671D01*
X160081589Y-102666190D01*
X160177488Y-102587488D01*
X160256190Y-102491589D01*
X160314671Y-102382179D01*
X160350683Y-102263462D01*
X160362843Y-102140000D01*
X160362843Y-100511498D01*
X160409355Y-100464986D01*
X160429705Y-100448285D01*
X160496361Y-100367065D01*
X160545891Y-100274401D01*
X160576391Y-100173855D01*
X160584110Y-100095485D01*
X160584110Y-100095477D01*
X160586689Y-100069290D01*
X160584110Y-100043103D01*
X160584110Y-99611925D01*
X160597157Y-99598878D01*
X160597157Y-102140000D01*
X160609317Y-102263462D01*
X160645329Y-102382179D01*
X160703810Y-102491589D01*
X160782512Y-102587488D01*
X160878411Y-102666190D01*
X160946601Y-102702638D01*
X160946601Y-102957778D01*
X160816637Y-102997202D01*
X160602784Y-103111509D01*
X160415340Y-103265340D01*
X160261509Y-103452784D01*
X160147202Y-103666637D01*
X160076812Y-103898682D01*
X160053044Y-104140000D01*
X160076812Y-104381318D01*
X160147202Y-104613363D01*
X160261509Y-104827216D01*
X160415340Y-105014660D01*
X160602784Y-105168491D01*
X160816637Y-105282798D01*
X161048682Y-105353188D01*
X161229528Y-105371000D01*
X161350472Y-105371000D01*
X161531318Y-105353188D01*
X161698218Y-105302559D01*
X162202894Y-105807235D01*
X162219595Y-105827585D01*
X162300815Y-105894241D01*
X162393479Y-105943771D01*
X162494025Y-105974271D01*
X162572395Y-105981990D01*
X162572396Y-105981990D01*
X162598590Y-105984570D01*
X162624784Y-105981990D01*
X163667709Y-105981990D01*
X163647396Y-106006741D01*
X163572639Y-106146600D01*
X163499005Y-106146600D01*
X163420635Y-106154319D01*
X163320089Y-106184819D01*
X163227425Y-106234349D01*
X163146205Y-106301005D01*
X163079549Y-106382225D01*
X163030019Y-106474889D01*
X162999519Y-106575435D01*
X162989220Y-106680000D01*
X162999519Y-106784565D01*
X163030019Y-106885111D01*
X163079549Y-106977775D01*
X163146205Y-107058995D01*
X163227425Y-107125651D01*
X163320089Y-107175181D01*
X163420635Y-107205681D01*
X163499005Y-107213400D01*
X163572639Y-107213400D01*
X163647396Y-107353259D01*
X163798103Y-107536897D01*
X163981741Y-107687604D01*
X164191251Y-107799590D01*
X164418583Y-107868550D01*
X164595756Y-107886000D01*
X165604244Y-107886000D01*
X165781417Y-107868550D01*
X166008749Y-107799590D01*
X166218259Y-107687604D01*
X166243010Y-107667291D01*
X166243010Y-108232709D01*
X166218259Y-108212396D01*
X166008749Y-108100410D01*
X165781417Y-108031450D01*
X165604244Y-108014000D01*
X164595756Y-108014000D01*
X164418583Y-108031450D01*
X164191251Y-108100410D01*
X163981741Y-108212396D01*
X163798103Y-108363103D01*
X163647396Y-108546741D01*
X163535410Y-108756251D01*
X163466450Y-108983583D01*
X163443165Y-109220000D01*
X163466450Y-109456417D01*
X163535410Y-109683749D01*
X163647396Y-109893259D01*
X163798103Y-110076897D01*
X163981741Y-110227604D01*
X164191251Y-110339590D01*
X164418583Y-110408550D01*
X164595756Y-110426000D01*
X165604244Y-110426000D01*
X165781417Y-110408550D01*
X166008749Y-110339590D01*
X166218259Y-110227604D01*
X166243010Y-110207291D01*
X166243010Y-110772709D01*
X166218259Y-110752396D01*
X166008749Y-110640410D01*
X165781417Y-110571450D01*
X165604244Y-110554000D01*
X164595756Y-110554000D01*
X164418583Y-110571450D01*
X164191251Y-110640410D01*
X163981741Y-110752396D01*
X163798103Y-110903103D01*
X163647396Y-111086741D01*
X163535410Y-111296251D01*
X163466450Y-111523583D01*
X163443165Y-111760000D01*
X163466450Y-111996417D01*
X163535410Y-112223749D01*
X163647396Y-112433259D01*
X163798103Y-112616897D01*
X163981741Y-112767604D01*
X164191251Y-112879590D01*
X164418583Y-112948550D01*
X164595756Y-112966000D01*
X165604244Y-112966000D01*
X165781417Y-112948550D01*
X166008749Y-112879590D01*
X166218259Y-112767604D01*
X166243010Y-112747291D01*
X166243011Y-113312709D01*
X166218259Y-113292396D01*
X166008749Y-113180410D01*
X165781417Y-113111450D01*
X165604244Y-113094000D01*
X164595756Y-113094000D01*
X164418583Y-113111450D01*
X164191251Y-113180410D01*
X163981741Y-113292396D01*
X163798103Y-113443103D01*
X163647396Y-113626741D01*
X163535410Y-113836251D01*
X163466450Y-114063583D01*
X163443165Y-114300000D01*
X163466450Y-114536417D01*
X163512485Y-114688174D01*
X160610590Y-117590069D01*
X160610590Y-110001000D01*
X160731922Y-110001000D01*
X160882809Y-109970987D01*
X161024942Y-109912113D01*
X161152859Y-109826642D01*
X161261642Y-109717859D01*
X161347113Y-109589942D01*
X161405987Y-109447809D01*
X161436000Y-109296922D01*
X161436000Y-109143078D01*
X161405987Y-108992191D01*
X161347113Y-108850058D01*
X161261642Y-108722141D01*
X161152859Y-108613358D01*
X161024942Y-108527887D01*
X160882809Y-108469013D01*
X160731922Y-108439000D01*
X160578078Y-108439000D01*
X160427191Y-108469013D01*
X160285058Y-108527887D01*
X160157141Y-108613358D01*
X160048358Y-108722141D01*
X159962887Y-108850058D01*
X159904013Y-108992191D01*
X159874000Y-109143078D01*
X159874000Y-109282580D01*
X159761025Y-109395555D01*
X159741642Y-109411462D01*
X159678161Y-109488815D01*
X159630989Y-109577068D01*
X159601941Y-109672826D01*
X159597770Y-109715181D01*
X159592133Y-109772410D01*
X159594590Y-109797354D01*
X159594590Y-116388072D01*
X159485809Y-116343013D01*
X159334922Y-116313000D01*
X159181078Y-116313000D01*
X159030191Y-116343013D01*
X158888058Y-116401887D01*
X158760141Y-116487358D01*
X158651358Y-116596141D01*
X158565887Y-116724058D01*
X158507013Y-116866191D01*
X158477000Y-117017078D01*
X158477000Y-117170922D01*
X158486234Y-117217344D01*
X158478319Y-117243436D01*
X158470600Y-117321806D01*
X158470600Y-117321809D01*
X158468021Y-117348000D01*
X158470600Y-117374187D01*
X158470601Y-128624803D01*
X158468021Y-128651000D01*
X158478319Y-128755564D01*
X158508819Y-128856110D01*
X158519996Y-128877020D01*
X158558350Y-128948775D01*
X158585674Y-128982069D01*
X158608307Y-129009648D01*
X158608310Y-129009651D01*
X158625006Y-129029995D01*
X158645350Y-129046691D01*
X159232600Y-129633941D01*
X159232600Y-129730899D01*
X159159358Y-129804141D01*
X159073887Y-129932058D01*
X159015013Y-130074191D01*
X158985000Y-130225078D01*
X158985000Y-130378922D01*
X159015013Y-130529809D01*
X159073887Y-130671942D01*
X159159358Y-130799859D01*
X159268141Y-130908642D01*
X159396058Y-130994113D01*
X159538191Y-131052987D01*
X159689078Y-131083000D01*
X159842922Y-131083000D01*
X159993809Y-131052987D01*
X160135942Y-130994113D01*
X160263859Y-130908642D01*
X160372642Y-130799859D01*
X160375601Y-130795431D01*
X160375600Y-147420813D01*
X160373021Y-147447000D01*
X160375600Y-147473187D01*
X160375600Y-147473194D01*
X160383319Y-147551564D01*
X160413819Y-147652110D01*
X160463349Y-147744775D01*
X160530005Y-147825995D01*
X160550354Y-147842695D01*
X161194157Y-148486499D01*
X161194157Y-148808750D01*
X161205716Y-148926115D01*
X161239951Y-149038970D01*
X161295544Y-149142977D01*
X161370360Y-149234140D01*
X161461523Y-149308956D01*
X161565530Y-149364549D01*
X161608223Y-149377500D01*
X161565530Y-149390451D01*
X161461523Y-149446044D01*
X161370360Y-149520860D01*
X161295544Y-149612023D01*
X161239951Y-149716030D01*
X161205716Y-149828885D01*
X161194157Y-149946250D01*
X161194157Y-150383750D01*
X161205716Y-150501115D01*
X161239951Y-150613970D01*
X161295544Y-150717977D01*
X161370360Y-150809140D01*
X161461523Y-150883956D01*
X161494345Y-150901500D01*
X161461523Y-150919044D01*
X161370360Y-150993860D01*
X161295544Y-151085023D01*
X161239951Y-151189030D01*
X161205716Y-151301885D01*
X161194157Y-151419250D01*
X161194157Y-151856750D01*
X161205716Y-151974115D01*
X161239951Y-152086970D01*
X161295544Y-152190977D01*
X161304070Y-152201366D01*
X161222506Y-152244963D01*
X161125815Y-152324315D01*
X161046463Y-152421006D01*
X160987498Y-152531320D01*
X160951188Y-152651018D01*
X160938928Y-152775500D01*
X160942000Y-152927250D01*
X161100750Y-153086000D01*
X161925000Y-153086000D01*
X161925000Y-153066000D01*
X162179000Y-153066000D01*
X162179000Y-153086000D01*
X163003250Y-153086000D01*
X163162000Y-152927250D01*
X163165072Y-152775500D01*
X163152812Y-152651018D01*
X163116502Y-152531320D01*
X163057537Y-152421006D01*
X162978185Y-152324315D01*
X162881494Y-152244963D01*
X162799930Y-152201366D01*
X162808456Y-152190977D01*
X162864049Y-152086970D01*
X162898284Y-151974115D01*
X162909843Y-151856750D01*
X162909843Y-151419250D01*
X162898284Y-151301885D01*
X162864049Y-151189030D01*
X162808456Y-151085023D01*
X162733640Y-150993860D01*
X162642477Y-150919044D01*
X162609655Y-150901500D01*
X162642477Y-150883956D01*
X162733640Y-150809140D01*
X162808456Y-150717977D01*
X162864049Y-150613970D01*
X162898284Y-150501115D01*
X162909843Y-150383750D01*
X162909843Y-149946250D01*
X162898284Y-149828885D01*
X162864049Y-149716030D01*
X162808456Y-149612023D01*
X162733640Y-149520860D01*
X162642477Y-149446044D01*
X162538470Y-149390451D01*
X162495777Y-149377500D01*
X162538470Y-149364549D01*
X162642477Y-149308956D01*
X162733640Y-149234140D01*
X162808456Y-149142977D01*
X162864049Y-149038970D01*
X162898284Y-148926115D01*
X162909843Y-148808750D01*
X162909843Y-148371250D01*
X162898284Y-148253885D01*
X162864049Y-148141030D01*
X162808456Y-148037023D01*
X162733640Y-147945860D01*
X162642477Y-147871044D01*
X162538470Y-147815451D01*
X162425615Y-147781216D01*
X162308250Y-147769657D01*
X161985999Y-147769657D01*
X161442400Y-147226059D01*
X161442400Y-134972965D01*
X163238308Y-134972965D01*
X163257534Y-135061384D01*
X163370496Y-135325535D01*
X163532821Y-135562573D01*
X163738270Y-135763388D01*
X163978949Y-135920263D01*
X164240995Y-136025320D01*
X164191251Y-136040410D01*
X163981741Y-136152396D01*
X163798103Y-136303103D01*
X163647396Y-136486741D01*
X163535410Y-136696251D01*
X163466450Y-136923583D01*
X163443165Y-137160000D01*
X163466450Y-137396417D01*
X163535410Y-137623749D01*
X163647396Y-137833259D01*
X163798103Y-138016897D01*
X163981741Y-138167604D01*
X164191251Y-138279590D01*
X164418583Y-138348550D01*
X164595756Y-138366000D01*
X165604244Y-138366000D01*
X165781417Y-138348550D01*
X166008749Y-138279590D01*
X166218259Y-138167604D01*
X166401897Y-138016897D01*
X166552604Y-137833259D01*
X166664590Y-137623749D01*
X166733550Y-137396417D01*
X166756835Y-137160000D01*
X166733550Y-136923583D01*
X166664590Y-136696251D01*
X166552604Y-136486741D01*
X166401897Y-136303103D01*
X166218259Y-136152396D01*
X166008749Y-136040410D01*
X165959005Y-136025320D01*
X166221051Y-135920263D01*
X166461730Y-135763388D01*
X166667179Y-135562573D01*
X166829504Y-135325535D01*
X166942466Y-135061384D01*
X166961692Y-134972965D01*
X166840038Y-134747000D01*
X165227000Y-134747000D01*
X165227000Y-134767000D01*
X164973000Y-134767000D01*
X164973000Y-134747000D01*
X163359962Y-134747000D01*
X163238308Y-134972965D01*
X161442400Y-134972965D01*
X161442400Y-134267035D01*
X163238308Y-134267035D01*
X163359962Y-134493000D01*
X164973000Y-134493000D01*
X164973000Y-134473000D01*
X165227000Y-134473000D01*
X165227000Y-134493000D01*
X166840038Y-134493000D01*
X166961692Y-134267035D01*
X166942466Y-134178616D01*
X166829504Y-133914465D01*
X166667179Y-133677427D01*
X166461730Y-133476612D01*
X166221051Y-133319737D01*
X165959005Y-133214680D01*
X166008749Y-133199590D01*
X166218259Y-133087604D01*
X166401897Y-132936897D01*
X166552604Y-132753259D01*
X166664590Y-132543749D01*
X166733550Y-132316417D01*
X166756835Y-132080000D01*
X166733550Y-131843583D01*
X166664590Y-131616251D01*
X166552604Y-131406741D01*
X166401897Y-131223103D01*
X166218259Y-131072396D01*
X166008749Y-130960410D01*
X165781417Y-130891450D01*
X165604244Y-130874000D01*
X164595756Y-130874000D01*
X164418583Y-130891450D01*
X164191251Y-130960410D01*
X163981741Y-131072396D01*
X163798103Y-131223103D01*
X163647396Y-131406741D01*
X163535410Y-131616251D01*
X163466450Y-131843583D01*
X163443165Y-132080000D01*
X163466450Y-132316417D01*
X163535410Y-132543749D01*
X163647396Y-132753259D01*
X163798103Y-132936897D01*
X163981741Y-133087604D01*
X164191251Y-133199590D01*
X164240995Y-133214680D01*
X163978949Y-133319737D01*
X163738270Y-133476612D01*
X163532821Y-133677427D01*
X163370496Y-133914465D01*
X163257534Y-134178616D01*
X163238308Y-134267035D01*
X161442400Y-134267035D01*
X161442400Y-118266941D01*
X164266826Y-115442515D01*
X164418583Y-115488550D01*
X164595756Y-115506000D01*
X165604244Y-115506000D01*
X165781417Y-115488550D01*
X166008749Y-115419590D01*
X166218259Y-115307604D01*
X166243011Y-115287291D01*
X166243011Y-115852709D01*
X166218259Y-115832396D01*
X166008749Y-115720410D01*
X165781417Y-115651450D01*
X165604244Y-115634000D01*
X164595756Y-115634000D01*
X164418583Y-115651450D01*
X164191251Y-115720410D01*
X163981741Y-115832396D01*
X163798103Y-115983103D01*
X163647396Y-116166741D01*
X163535410Y-116376251D01*
X163466450Y-116603583D01*
X163443165Y-116840000D01*
X163466450Y-117076417D01*
X163535410Y-117303749D01*
X163647396Y-117513259D01*
X163798103Y-117696897D01*
X163981741Y-117847604D01*
X164191251Y-117959590D01*
X164418583Y-118028550D01*
X164595756Y-118046000D01*
X165604244Y-118046000D01*
X165781417Y-118028550D01*
X166008749Y-117959590D01*
X166218259Y-117847604D01*
X166243011Y-117827291D01*
X166243011Y-118392709D01*
X166218259Y-118372396D01*
X166008749Y-118260410D01*
X165781417Y-118191450D01*
X165604244Y-118174000D01*
X164595756Y-118174000D01*
X164418583Y-118191450D01*
X164191251Y-118260410D01*
X163981741Y-118372396D01*
X163798103Y-118523103D01*
X163647396Y-118706741D01*
X163535410Y-118916251D01*
X163466450Y-119143583D01*
X163443165Y-119380000D01*
X163466450Y-119616417D01*
X163535410Y-119843749D01*
X163647396Y-120053259D01*
X163798103Y-120236897D01*
X163822370Y-120256813D01*
X162709355Y-121369828D01*
X162689005Y-121386529D01*
X162622349Y-121467749D01*
X162572819Y-121560414D01*
X162542319Y-121660960D01*
X162534600Y-121739330D01*
X162534600Y-121739337D01*
X162532021Y-121765524D01*
X162534600Y-121791711D01*
X162534601Y-124433796D01*
X162534600Y-124433806D01*
X162534601Y-127926803D01*
X162532021Y-127953000D01*
X162542319Y-128057564D01*
X162572819Y-128158110D01*
X162572820Y-128158111D01*
X162622350Y-128250775D01*
X162639773Y-128272005D01*
X162672307Y-128311648D01*
X162672310Y-128311651D01*
X162689006Y-128331995D01*
X162709350Y-128348691D01*
X163512485Y-129151826D01*
X163466450Y-129303583D01*
X163443165Y-129540000D01*
X163466450Y-129776417D01*
X163535410Y-130003749D01*
X163647396Y-130213259D01*
X163798103Y-130396897D01*
X163981741Y-130547604D01*
X164191251Y-130659590D01*
X164418583Y-130728550D01*
X164595756Y-130746000D01*
X165604244Y-130746000D01*
X165781417Y-130728550D01*
X166008749Y-130659590D01*
X166218259Y-130547604D01*
X166401897Y-130396897D01*
X166552604Y-130213259D01*
X166664590Y-130003749D01*
X166733550Y-129776417D01*
X166756835Y-129540000D01*
X166733550Y-129303583D01*
X166664590Y-129076251D01*
X166552604Y-128866741D01*
X166401897Y-128683103D01*
X166218259Y-128532396D01*
X166008749Y-128420410D01*
X165781417Y-128351450D01*
X165604244Y-128334000D01*
X164595756Y-128334000D01*
X164418583Y-128351450D01*
X164266826Y-128397485D01*
X163601400Y-127732059D01*
X163601400Y-127587207D01*
X163647396Y-127673259D01*
X163798103Y-127856897D01*
X163981741Y-128007604D01*
X164191251Y-128119590D01*
X164418583Y-128188550D01*
X164595756Y-128206000D01*
X165604244Y-128206000D01*
X165781417Y-128188550D01*
X166008749Y-128119590D01*
X166218259Y-128007604D01*
X166401897Y-127856897D01*
X166552604Y-127673259D01*
X166664590Y-127463749D01*
X166733550Y-127236417D01*
X166756835Y-127000000D01*
X166733550Y-126763583D01*
X166664590Y-126536251D01*
X166552604Y-126326741D01*
X166401897Y-126143103D01*
X166218259Y-125992396D01*
X166008749Y-125880410D01*
X165781417Y-125811450D01*
X165604244Y-125794000D01*
X164595756Y-125794000D01*
X164418583Y-125811450D01*
X164239265Y-125865845D01*
X163601400Y-125227980D01*
X163601400Y-125047207D01*
X163647396Y-125133259D01*
X163798103Y-125316897D01*
X163981741Y-125467604D01*
X164191251Y-125579590D01*
X164418583Y-125648550D01*
X164595756Y-125666000D01*
X165604244Y-125666000D01*
X165781417Y-125648550D01*
X166008749Y-125579590D01*
X166218259Y-125467604D01*
X166401897Y-125316897D01*
X166552604Y-125133259D01*
X166664590Y-124923749D01*
X166733550Y-124696417D01*
X166756835Y-124460000D01*
X166733550Y-124223583D01*
X166664590Y-123996251D01*
X166552604Y-123786741D01*
X166401897Y-123603103D01*
X166218259Y-123452396D01*
X166008749Y-123340410D01*
X165781417Y-123271450D01*
X165608000Y-123254370D01*
X165608000Y-123125630D01*
X165781417Y-123108550D01*
X166008749Y-123039590D01*
X166218259Y-122927604D01*
X166401897Y-122776897D01*
X166552604Y-122593259D01*
X166664590Y-122383749D01*
X166733550Y-122156417D01*
X166756835Y-121920000D01*
X166733550Y-121683583D01*
X166687515Y-121531826D01*
X167411411Y-120807931D01*
X167411410Y-138007978D01*
X167399148Y-138011698D01*
X167244708Y-138094248D01*
X167109340Y-138205342D01*
X167081497Y-138239269D01*
X166915260Y-138405505D01*
X166881342Y-138433341D01*
X166853507Y-138467258D01*
X166853505Y-138467260D01*
X166770248Y-138568709D01*
X166687698Y-138723148D01*
X166636864Y-138890726D01*
X166619700Y-139065000D01*
X166624001Y-139108670D01*
X166624001Y-139160315D01*
X166552604Y-139026741D01*
X166401897Y-138843103D01*
X166218259Y-138692396D01*
X166008749Y-138580410D01*
X165781417Y-138511450D01*
X165604244Y-138494000D01*
X164595756Y-138494000D01*
X164418583Y-138511450D01*
X164191251Y-138580410D01*
X163981741Y-138692396D01*
X163798103Y-138843103D01*
X163647396Y-139026741D01*
X163535410Y-139236251D01*
X163466450Y-139463583D01*
X163443165Y-139700000D01*
X163466450Y-139936417D01*
X163535410Y-140163749D01*
X163647396Y-140373259D01*
X163798103Y-140556897D01*
X163981741Y-140707604D01*
X164191251Y-140819590D01*
X164418583Y-140888550D01*
X164595756Y-140906000D01*
X165604244Y-140906000D01*
X165781417Y-140888550D01*
X166008749Y-140819590D01*
X166218259Y-140707604D01*
X166401897Y-140556897D01*
X166552604Y-140373259D01*
X166624001Y-140239686D01*
X166624001Y-141700314D01*
X166552604Y-141566741D01*
X166401897Y-141383103D01*
X166218259Y-141232396D01*
X166008749Y-141120410D01*
X165781417Y-141051450D01*
X165604244Y-141034000D01*
X164595756Y-141034000D01*
X164418583Y-141051450D01*
X164191251Y-141120410D01*
X163981741Y-141232396D01*
X163798103Y-141383103D01*
X163647396Y-141566741D01*
X163535410Y-141776251D01*
X163466450Y-142003583D01*
X163443165Y-142240000D01*
X163466450Y-142476417D01*
X163535410Y-142703749D01*
X163647396Y-142913259D01*
X163798103Y-143096897D01*
X163981741Y-143247604D01*
X164191251Y-143359590D01*
X164418583Y-143428550D01*
X164595756Y-143446000D01*
X165604244Y-143446000D01*
X165781417Y-143428550D01*
X166008749Y-143359590D01*
X166218259Y-143247604D01*
X166401897Y-143096897D01*
X166552604Y-142913259D01*
X166624000Y-142779687D01*
X166624000Y-144030764D01*
X165620765Y-145034000D01*
X163817236Y-145034000D01*
X163030740Y-144247505D01*
X162929291Y-144164248D01*
X162774852Y-144081698D01*
X162607274Y-144030864D01*
X162433000Y-144013700D01*
X162258726Y-144030864D01*
X162091148Y-144081698D01*
X161936709Y-144164248D01*
X161801341Y-144275341D01*
X161690248Y-144410709D01*
X161607698Y-144565148D01*
X161556864Y-144732726D01*
X161539700Y-144907000D01*
X161556864Y-145081274D01*
X161607698Y-145248852D01*
X161690248Y-145403291D01*
X161773505Y-145504740D01*
X162789505Y-146520741D01*
X162817341Y-146554659D01*
X162952709Y-146665753D01*
X163107149Y-146748303D01*
X163201758Y-146777002D01*
X163274725Y-146799136D01*
X163291325Y-146800771D01*
X163405333Y-146812000D01*
X163405340Y-146812000D01*
X163449000Y-146816300D01*
X163492660Y-146812000D01*
X165945340Y-146812000D01*
X165989000Y-146816300D01*
X166032660Y-146812000D01*
X166032667Y-146812000D01*
X166163274Y-146799136D01*
X166330851Y-146748303D01*
X166485291Y-146665753D01*
X166620659Y-146554659D01*
X166648499Y-146520736D01*
X168110743Y-145058493D01*
X168144659Y-145030659D01*
X168255753Y-144895291D01*
X168338303Y-144740851D01*
X168376636Y-144614482D01*
X168389136Y-144573276D01*
X168398093Y-144482333D01*
X168402000Y-144442667D01*
X168402000Y-144442661D01*
X168406300Y-144399001D01*
X168402000Y-144355341D01*
X168402000Y-144105413D01*
X168674192Y-144105413D01*
X168769956Y-144369814D01*
X169059571Y-144510704D01*
X169371108Y-144592384D01*
X169692595Y-144611718D01*
X170011675Y-144567961D01*
X170316088Y-144462795D01*
X170490044Y-144369814D01*
X170585808Y-144105413D01*
X169630000Y-143149605D01*
X168674192Y-144105413D01*
X168402000Y-144105413D01*
X168402000Y-143892274D01*
X168494587Y-143925808D01*
X169450395Y-142970000D01*
X169809605Y-142970000D01*
X170765413Y-143925808D01*
X171029814Y-143830044D01*
X171170704Y-143540429D01*
X171252384Y-143228892D01*
X171271718Y-142907405D01*
X171227961Y-142588325D01*
X171122795Y-142283912D01*
X171029814Y-142109956D01*
X170765413Y-142014192D01*
X169809605Y-142970000D01*
X169450395Y-142970000D01*
X168494587Y-142014192D01*
X168402000Y-142047726D01*
X168402000Y-141545413D01*
X168674192Y-141545413D01*
X168726560Y-141690000D01*
X168674192Y-141834587D01*
X169630000Y-142790395D01*
X170585808Y-141834587D01*
X170533440Y-141690000D01*
X170585808Y-141545413D01*
X169630000Y-140589605D01*
X168674192Y-141545413D01*
X168402000Y-141545413D01*
X168402000Y-141332274D01*
X168494587Y-141365808D01*
X169450395Y-140410000D01*
X169809605Y-140410000D01*
X170765413Y-141365808D01*
X171029814Y-141270044D01*
X171170704Y-140980429D01*
X171252384Y-140668892D01*
X171271718Y-140347405D01*
X171227961Y-140028325D01*
X171122795Y-139723912D01*
X171029814Y-139549956D01*
X170765413Y-139454192D01*
X169809605Y-140410000D01*
X169450395Y-140410000D01*
X169436253Y-140395858D01*
X169615858Y-140216253D01*
X169630000Y-140230395D01*
X170585808Y-139274587D01*
X170490044Y-139010186D01*
X170200429Y-138869296D01*
X169888892Y-138787616D01*
X169567405Y-138768282D01*
X169248325Y-138812039D01*
X169054940Y-138878848D01*
X169125713Y-138746441D01*
X169176546Y-138578864D01*
X169184792Y-138495149D01*
X169193711Y-138404590D01*
X169189410Y-138360922D01*
X169189410Y-123317000D01*
X171577000Y-123317000D01*
X171601776Y-123314560D01*
X171625601Y-123307333D01*
X171647557Y-123295597D01*
X171666803Y-123279803D01*
X171682597Y-123260557D01*
X171694333Y-123238601D01*
X171701560Y-123214776D01*
X171704000Y-123190000D01*
X171704000Y-119253000D01*
X171701560Y-119228224D01*
X171694333Y-119204399D01*
X171682597Y-119182443D01*
X171666803Y-119163197D01*
X171647557Y-119147403D01*
X171625601Y-119135667D01*
X171601776Y-119128440D01*
X171577000Y-119126000D01*
X170882436Y-119126000D01*
X171054660Y-118984660D01*
X171208491Y-118797216D01*
X171322798Y-118583363D01*
X171393188Y-118351318D01*
X171416956Y-118110000D01*
X171393188Y-117868682D01*
X171322798Y-117636637D01*
X171208491Y-117422784D01*
X171054660Y-117235340D01*
X170867216Y-117081509D01*
X170653363Y-116967202D01*
X170421318Y-116896812D01*
X170240472Y-116879000D01*
X170119528Y-116879000D01*
X169938682Y-116896812D01*
X169706637Y-116967202D01*
X169492784Y-117081509D01*
X169305340Y-117235340D01*
X169189410Y-117376601D01*
X169189410Y-116303399D01*
X169305340Y-116444660D01*
X169492784Y-116598491D01*
X169706637Y-116712798D01*
X169938682Y-116783188D01*
X170119528Y-116801000D01*
X170240472Y-116801000D01*
X170421318Y-116783188D01*
X170653363Y-116712798D01*
X170867216Y-116598491D01*
X171054660Y-116444660D01*
X171208491Y-116257216D01*
X171322798Y-116043363D01*
X171393188Y-115811318D01*
X171416956Y-115570000D01*
X171393188Y-115328682D01*
X171322798Y-115096637D01*
X171208491Y-114882784D01*
X171054660Y-114695340D01*
X170867216Y-114541509D01*
X170653363Y-114427202D01*
X170421318Y-114356812D01*
X170240472Y-114339000D01*
X170119528Y-114339000D01*
X169938682Y-114356812D01*
X169706637Y-114427202D01*
X169492784Y-114541509D01*
X169305340Y-114695340D01*
X169189410Y-114836601D01*
X169189410Y-113763399D01*
X169305340Y-113904660D01*
X169492784Y-114058491D01*
X169706637Y-114172798D01*
X169938682Y-114243188D01*
X170119528Y-114261000D01*
X170240472Y-114261000D01*
X170421318Y-114243188D01*
X170653363Y-114172798D01*
X170867216Y-114058491D01*
X171054660Y-113904660D01*
X171208491Y-113717216D01*
X171322798Y-113503363D01*
X171393188Y-113271318D01*
X171416956Y-113030000D01*
X171393188Y-112788682D01*
X171322798Y-112556637D01*
X171208491Y-112342784D01*
X171054660Y-112155340D01*
X170867216Y-112001509D01*
X170653363Y-111887202D01*
X170421318Y-111816812D01*
X170240472Y-111799000D01*
X170119528Y-111799000D01*
X169938682Y-111816812D01*
X169706637Y-111887202D01*
X169492784Y-112001509D01*
X169305340Y-112155340D01*
X169189410Y-112296601D01*
X169189410Y-111223399D01*
X169305340Y-111364660D01*
X169492784Y-111518491D01*
X169706637Y-111632798D01*
X169938682Y-111703188D01*
X170119528Y-111721000D01*
X170240472Y-111721000D01*
X170421318Y-111703188D01*
X170653363Y-111632798D01*
X170867216Y-111518491D01*
X171054660Y-111364660D01*
X171208491Y-111177216D01*
X171322798Y-110963363D01*
X171393188Y-110731318D01*
X171416956Y-110490000D01*
X171393188Y-110248682D01*
X171322798Y-110016637D01*
X171208491Y-109802784D01*
X171054660Y-109615340D01*
X170867216Y-109461509D01*
X170653363Y-109347202D01*
X170421318Y-109276812D01*
X170240472Y-109259000D01*
X170119528Y-109259000D01*
X169938682Y-109276812D01*
X169706637Y-109347202D01*
X169492784Y-109461509D01*
X169305340Y-109615340D01*
X169189410Y-109756601D01*
X169189410Y-108683399D01*
X169305340Y-108824660D01*
X169492784Y-108978491D01*
X169706637Y-109092798D01*
X169938682Y-109163188D01*
X170119528Y-109181000D01*
X170240472Y-109181000D01*
X170421318Y-109163188D01*
X170653363Y-109092798D01*
X170867216Y-108978491D01*
X171054660Y-108824660D01*
X171208491Y-108637216D01*
X171322798Y-108423363D01*
X171393188Y-108191318D01*
X171416956Y-107950000D01*
X171393188Y-107708682D01*
X171322798Y-107476637D01*
X171208491Y-107262784D01*
X171054660Y-107075340D01*
X170867216Y-106921509D01*
X170653363Y-106807202D01*
X170421318Y-106736812D01*
X170240472Y-106719000D01*
X170119528Y-106719000D01*
X169938682Y-106736812D01*
X169706637Y-106807202D01*
X169492784Y-106921509D01*
X169305340Y-107075340D01*
X169189410Y-107216601D01*
X169189410Y-106143399D01*
X169305340Y-106284660D01*
X169492784Y-106438491D01*
X169706637Y-106552798D01*
X169938682Y-106623188D01*
X170119528Y-106641000D01*
X170240472Y-106641000D01*
X170421318Y-106623188D01*
X170653363Y-106552798D01*
X170867216Y-106438491D01*
X171054660Y-106284660D01*
X171208491Y-106097216D01*
X171322798Y-105883363D01*
X171393188Y-105651318D01*
X171416956Y-105410000D01*
X171393188Y-105168682D01*
X171322798Y-104936637D01*
X171208491Y-104722784D01*
X171054660Y-104535340D01*
X170867216Y-104381509D01*
X170653363Y-104267202D01*
X170421318Y-104196812D01*
X170240472Y-104179000D01*
X170119528Y-104179000D01*
X169938682Y-104196812D01*
X169706637Y-104267202D01*
X169492784Y-104381509D01*
X169305340Y-104535340D01*
X169189410Y-104676601D01*
X169189410Y-103915744D01*
X169335633Y-103769521D01*
X169492784Y-103898491D01*
X169706637Y-104012798D01*
X169938682Y-104083188D01*
X170119528Y-104101000D01*
X170240472Y-104101000D01*
X170421318Y-104083188D01*
X170653363Y-104012798D01*
X170867216Y-103898491D01*
X171054660Y-103744660D01*
X171208491Y-103557216D01*
X171322798Y-103343363D01*
X171393188Y-103111318D01*
X171416956Y-102870000D01*
X171393188Y-102628682D01*
X171322798Y-102396637D01*
X171208491Y-102182784D01*
X171054660Y-101995340D01*
X170867216Y-101841509D01*
X170653363Y-101727202D01*
X170421318Y-101656812D01*
X170240472Y-101639000D01*
X170119528Y-101639000D01*
X169938682Y-101656812D01*
X169706637Y-101727202D01*
X169492784Y-101841509D01*
X169322813Y-101981000D01*
X169021578Y-101981000D01*
X168977918Y-101976700D01*
X168934258Y-101981000D01*
X168934252Y-101981000D01*
X168836843Y-101990594D01*
X168803643Y-101993864D01*
X168701977Y-102024704D01*
X168636068Y-102044697D01*
X168481628Y-102127247D01*
X168346260Y-102238341D01*
X168318420Y-102272264D01*
X167702669Y-102888015D01*
X167668752Y-102915850D01*
X167640917Y-102949767D01*
X167640915Y-102949769D01*
X167557658Y-103051218D01*
X167475108Y-103205657D01*
X167424274Y-103373235D01*
X167407110Y-103547509D01*
X167411411Y-103591179D01*
X167411411Y-104681069D01*
X166511693Y-103781352D01*
X166494995Y-103761005D01*
X166413775Y-103694349D01*
X166321111Y-103644819D01*
X166220565Y-103614319D01*
X166142195Y-103606600D01*
X166142187Y-103606600D01*
X166116000Y-103604021D01*
X166089813Y-103606600D01*
X164940708Y-103606600D01*
X164858491Y-103452784D01*
X164704660Y-103265340D01*
X164517216Y-103111509D01*
X164303363Y-102997202D01*
X164071318Y-102926812D01*
X163890472Y-102909000D01*
X163769528Y-102909000D01*
X163588682Y-102926812D01*
X163421782Y-102977441D01*
X163375698Y-102931357D01*
X163375694Y-102931352D01*
X163215785Y-102771443D01*
X163230000Y-102772843D01*
X163730000Y-102772843D01*
X163853462Y-102760683D01*
X163972179Y-102724671D01*
X164081589Y-102666190D01*
X164177488Y-102587488D01*
X164256190Y-102491589D01*
X164314671Y-102382179D01*
X164350683Y-102263462D01*
X164362843Y-102140000D01*
X164362843Y-99140000D01*
X164350683Y-99016538D01*
X164314671Y-98897821D01*
X164256190Y-98788411D01*
X164177488Y-98692512D01*
X164081589Y-98613810D01*
X163972179Y-98555329D01*
X163853462Y-98519317D01*
X163730000Y-98507157D01*
X163570081Y-98507157D01*
X162629057Y-97566134D01*
X162612357Y-97545785D01*
X162531137Y-97479129D01*
X162438473Y-97429599D01*
X162337927Y-97399099D01*
X162259557Y-97391380D01*
X162259549Y-97391380D01*
X162233362Y-97388801D01*
X162207175Y-97391380D01*
X160752832Y-97391380D01*
X160726638Y-97388800D01*
X160700444Y-97391380D01*
X160700443Y-97391380D01*
X160622073Y-97399099D01*
X160521527Y-97429599D01*
X160428863Y-97479129D01*
X160347643Y-97545785D01*
X160330942Y-97566135D01*
X159946887Y-97950190D01*
X158984290Y-97950190D01*
X158958103Y-97947611D01*
X158931916Y-97950190D01*
X158931909Y-97950190D01*
X158853539Y-97957909D01*
X158752993Y-97988409D01*
X158660329Y-98037939D01*
X158615302Y-98074892D01*
X158599607Y-98087773D01*
X158579109Y-98104595D01*
X158562413Y-98124939D01*
X158076346Y-98611007D01*
X157972179Y-98555329D01*
X157853462Y-98519317D01*
X157730000Y-98507157D01*
X157230000Y-98507157D01*
X157106538Y-98519317D01*
X156987821Y-98555329D01*
X156878411Y-98613810D01*
X156782512Y-98692512D01*
X156703810Y-98788411D01*
X156645329Y-98897821D01*
X156609317Y-99016538D01*
X156597157Y-99140000D01*
X156597157Y-102140000D01*
X156609317Y-102263462D01*
X156645329Y-102382179D01*
X156703810Y-102491589D01*
X156782512Y-102587488D01*
X156878411Y-102666190D01*
X156946601Y-102702638D01*
X156946601Y-102853918D01*
X156714099Y-102743175D01*
X156566890Y-102698524D01*
X156337000Y-102819845D01*
X156337000Y-104013000D01*
X156357000Y-104013000D01*
X156357000Y-104267000D01*
X156337000Y-104267000D01*
X156337000Y-105460155D01*
X156566890Y-105581476D01*
X156714099Y-105536825D01*
X156946600Y-105426083D01*
X156946601Y-106108898D01*
X156873358Y-106182141D01*
X156787887Y-106310058D01*
X156729013Y-106452191D01*
X156699000Y-106603078D01*
X156699000Y-106756922D01*
X156729013Y-106907809D01*
X156787887Y-107049942D01*
X156873358Y-107177859D01*
X156982141Y-107286642D01*
X157110058Y-107372113D01*
X157252191Y-107430987D01*
X157403078Y-107461000D01*
X157556922Y-107461000D01*
X157707809Y-107430987D01*
X157819414Y-107384758D01*
X153454344Y-111749829D01*
X153427698Y-111771697D01*
X153405830Y-111798343D01*
X153405826Y-111798347D01*
X153340409Y-111878057D01*
X153275549Y-111999402D01*
X153275549Y-111999403D01*
X153242511Y-112108316D01*
X153235608Y-112131071D01*
X153222122Y-112268000D01*
X153225501Y-112302308D01*
X153225500Y-130711672D01*
X151438161Y-132499012D01*
X151493550Y-132316417D01*
X151516835Y-132080000D01*
X151493550Y-131843583D01*
X151424590Y-131616251D01*
X151312604Y-131406741D01*
X151161897Y-131223103D01*
X150978259Y-131072396D01*
X150768749Y-130960410D01*
X150541417Y-130891450D01*
X150364244Y-130874000D01*
X149355756Y-130874000D01*
X149178583Y-130891450D01*
X148951251Y-130960410D01*
X148741741Y-131072396D01*
X148558103Y-131223103D01*
X148407396Y-131406741D01*
X148295410Y-131616251D01*
X148226450Y-131843583D01*
X148203165Y-132080000D01*
X148082000Y-132080000D01*
X148082000Y-127000000D01*
X148203165Y-127000000D01*
X148226450Y-127236417D01*
X148295410Y-127463749D01*
X148407396Y-127673259D01*
X148558103Y-127856897D01*
X148741741Y-128007604D01*
X148951251Y-128119590D01*
X149178583Y-128188550D01*
X149355756Y-128206000D01*
X150364244Y-128206000D01*
X150541417Y-128188550D01*
X150768749Y-128119590D01*
X150978259Y-128007604D01*
X151161897Y-127856897D01*
X151312604Y-127673259D01*
X151424590Y-127463749D01*
X151493550Y-127236417D01*
X151516835Y-127000000D01*
X151493550Y-126763583D01*
X151424590Y-126536251D01*
X151312604Y-126326741D01*
X151161897Y-126143103D01*
X150978259Y-125992396D01*
X150768749Y-125880410D01*
X150541417Y-125811450D01*
X150364244Y-125794000D01*
X149355756Y-125794000D01*
X149178583Y-125811450D01*
X148951251Y-125880410D01*
X148741741Y-125992396D01*
X148558103Y-126143103D01*
X148407396Y-126326741D01*
X148295410Y-126536251D01*
X148226450Y-126763583D01*
X148203165Y-127000000D01*
X148082000Y-127000000D01*
X148082000Y-124460000D01*
X148203165Y-124460000D01*
X148226450Y-124696417D01*
X148295410Y-124923749D01*
X148407396Y-125133259D01*
X148558103Y-125316897D01*
X148741741Y-125467604D01*
X148951251Y-125579590D01*
X149178583Y-125648550D01*
X149355756Y-125666000D01*
X150364244Y-125666000D01*
X150541417Y-125648550D01*
X150768749Y-125579590D01*
X150978259Y-125467604D01*
X151161897Y-125316897D01*
X151312604Y-125133259D01*
X151424590Y-124923749D01*
X151493550Y-124696417D01*
X151516835Y-124460000D01*
X151493550Y-124223583D01*
X151424590Y-123996251D01*
X151312604Y-123786741D01*
X151161897Y-123603103D01*
X150978259Y-123452396D01*
X150768749Y-123340410D01*
X150541417Y-123271450D01*
X150364244Y-123254000D01*
X149355756Y-123254000D01*
X149178583Y-123271450D01*
X148951251Y-123340410D01*
X148741741Y-123452396D01*
X148558103Y-123603103D01*
X148407396Y-123786741D01*
X148295410Y-123996251D01*
X148226450Y-124223583D01*
X148203165Y-124460000D01*
X148082000Y-124460000D01*
X148082000Y-121920000D01*
X148203165Y-121920000D01*
X148226450Y-122156417D01*
X148295410Y-122383749D01*
X148407396Y-122593259D01*
X148558103Y-122776897D01*
X148741741Y-122927604D01*
X148951251Y-123039590D01*
X149178583Y-123108550D01*
X149355756Y-123126000D01*
X150364244Y-123126000D01*
X150541417Y-123108550D01*
X150768749Y-123039590D01*
X150978259Y-122927604D01*
X151161897Y-122776897D01*
X151312604Y-122593259D01*
X151424590Y-122383749D01*
X151493550Y-122156417D01*
X151516835Y-121920000D01*
X151493550Y-121683583D01*
X151424590Y-121456251D01*
X151312604Y-121246741D01*
X151161897Y-121063103D01*
X150978259Y-120912396D01*
X150768749Y-120800410D01*
X150541417Y-120731450D01*
X150364244Y-120714000D01*
X149355756Y-120714000D01*
X149178583Y-120731450D01*
X148951251Y-120800410D01*
X148741741Y-120912396D01*
X148558103Y-121063103D01*
X148407396Y-121246741D01*
X148295410Y-121456251D01*
X148226450Y-121683583D01*
X148203165Y-121920000D01*
X148082000Y-121920000D01*
X148082000Y-119380000D01*
X148203165Y-119380000D01*
X148226450Y-119616417D01*
X148295410Y-119843749D01*
X148407396Y-120053259D01*
X148558103Y-120236897D01*
X148741741Y-120387604D01*
X148951251Y-120499590D01*
X149178583Y-120568550D01*
X149355756Y-120586000D01*
X150364244Y-120586000D01*
X150541417Y-120568550D01*
X150768749Y-120499590D01*
X150978259Y-120387604D01*
X151161897Y-120236897D01*
X151312604Y-120053259D01*
X151424590Y-119843749D01*
X151493550Y-119616417D01*
X151516835Y-119380000D01*
X151493550Y-119143583D01*
X151424590Y-118916251D01*
X151312604Y-118706741D01*
X151161897Y-118523103D01*
X150978259Y-118372396D01*
X150768749Y-118260410D01*
X150541417Y-118191450D01*
X150364244Y-118174000D01*
X149355756Y-118174000D01*
X149178583Y-118191450D01*
X148951251Y-118260410D01*
X148741741Y-118372396D01*
X148558103Y-118523103D01*
X148407396Y-118706741D01*
X148295410Y-118916251D01*
X148226450Y-119143583D01*
X148203165Y-119380000D01*
X148082000Y-119380000D01*
X148082000Y-116840000D01*
X148203165Y-116840000D01*
X148226450Y-117076417D01*
X148295410Y-117303749D01*
X148407396Y-117513259D01*
X148558103Y-117696897D01*
X148741741Y-117847604D01*
X148951251Y-117959590D01*
X149178583Y-118028550D01*
X149355756Y-118046000D01*
X150364244Y-118046000D01*
X150541417Y-118028550D01*
X150768749Y-117959590D01*
X150978259Y-117847604D01*
X151161897Y-117696897D01*
X151312604Y-117513259D01*
X151424590Y-117303749D01*
X151493550Y-117076417D01*
X151516835Y-116840000D01*
X151493550Y-116603583D01*
X151424590Y-116376251D01*
X151312604Y-116166741D01*
X151161897Y-115983103D01*
X150978259Y-115832396D01*
X150768749Y-115720410D01*
X150541417Y-115651450D01*
X150364244Y-115634000D01*
X149355756Y-115634000D01*
X149178583Y-115651450D01*
X148951251Y-115720410D01*
X148741741Y-115832396D01*
X148558103Y-115983103D01*
X148407396Y-116166741D01*
X148295410Y-116376251D01*
X148226450Y-116603583D01*
X148203165Y-116840000D01*
X148082000Y-116840000D01*
X148082000Y-114300000D01*
X148203165Y-114300000D01*
X148226450Y-114536417D01*
X148295410Y-114763749D01*
X148407396Y-114973259D01*
X148558103Y-115156897D01*
X148741741Y-115307604D01*
X148951251Y-115419590D01*
X149178583Y-115488550D01*
X149355756Y-115506000D01*
X150364244Y-115506000D01*
X150541417Y-115488550D01*
X150768749Y-115419590D01*
X150978259Y-115307604D01*
X151161897Y-115156897D01*
X151312604Y-114973259D01*
X151424590Y-114763749D01*
X151493550Y-114536417D01*
X151516835Y-114300000D01*
X151493550Y-114063583D01*
X151424590Y-113836251D01*
X151312604Y-113626741D01*
X151161897Y-113443103D01*
X150978259Y-113292396D01*
X150768749Y-113180410D01*
X150541417Y-113111450D01*
X150364244Y-113094000D01*
X149355756Y-113094000D01*
X149178583Y-113111450D01*
X148951251Y-113180410D01*
X148741741Y-113292396D01*
X148558103Y-113443103D01*
X148407396Y-113626741D01*
X148295410Y-113836251D01*
X148226450Y-114063583D01*
X148203165Y-114300000D01*
X148082000Y-114300000D01*
X148082000Y-113590606D01*
X148848134Y-112824472D01*
X148951251Y-112879590D01*
X149178583Y-112948550D01*
X149355756Y-112966000D01*
X150364244Y-112966000D01*
X150541417Y-112948550D01*
X150768749Y-112879590D01*
X150978259Y-112767604D01*
X151161897Y-112616897D01*
X151312604Y-112433259D01*
X151424590Y-112223749D01*
X151493550Y-111996417D01*
X151516835Y-111760000D01*
X151493550Y-111523583D01*
X151424590Y-111296251D01*
X151312604Y-111086741D01*
X151161897Y-110903103D01*
X150978259Y-110752396D01*
X150940430Y-110732176D01*
X151880199Y-109792407D01*
X151880200Y-127210458D01*
X150693174Y-128397485D01*
X150541417Y-128351450D01*
X150364244Y-128334000D01*
X149355756Y-128334000D01*
X149178583Y-128351450D01*
X148951251Y-128420410D01*
X148741741Y-128532396D01*
X148558103Y-128683103D01*
X148407396Y-128866741D01*
X148295410Y-129076251D01*
X148226450Y-129303583D01*
X148203165Y-129540000D01*
X148226450Y-129776417D01*
X148295410Y-130003749D01*
X148407396Y-130213259D01*
X148558103Y-130396897D01*
X148741741Y-130547604D01*
X148951251Y-130659590D01*
X149178583Y-130728550D01*
X149355756Y-130746000D01*
X150364244Y-130746000D01*
X150541417Y-130728550D01*
X150768749Y-130659590D01*
X150978259Y-130547604D01*
X151161897Y-130396897D01*
X151312604Y-130213259D01*
X151424590Y-130003749D01*
X151493550Y-129776417D01*
X151516835Y-129540000D01*
X151493550Y-129303583D01*
X151447515Y-129151826D01*
X152772250Y-127827092D01*
X152792594Y-127810396D01*
X152859250Y-127729176D01*
X152908780Y-127636512D01*
X152939280Y-127535966D01*
X152946999Y-127457596D01*
X152946999Y-127457589D01*
X152949578Y-127431402D01*
X152946999Y-127405215D01*
X152946999Y-108725607D01*
X155029803Y-106642803D01*
X155045597Y-106623557D01*
X155057333Y-106601601D01*
X155064560Y-106577776D01*
X155067000Y-106553000D01*
X155067000Y-105079242D01*
X155209731Y-105237588D01*
X155443080Y-105411641D01*
X155705901Y-105536825D01*
X155853110Y-105581476D01*
X156083000Y-105460155D01*
X156083000Y-104267000D01*
X156063000Y-104267000D01*
X156063000Y-104013000D01*
X156083000Y-104013000D01*
X156083000Y-102819845D01*
X155928032Y-102738063D01*
X155972179Y-102724671D01*
X156081589Y-102666190D01*
X156177488Y-102587488D01*
X156256190Y-102491589D01*
X156314671Y-102382179D01*
X156350683Y-102263462D01*
X156362843Y-102140000D01*
X156362843Y-99140000D01*
X156350683Y-99016538D01*
X156314671Y-98897821D01*
X156256190Y-98788411D01*
X156177488Y-98692512D01*
X156081589Y-98613810D01*
X155972179Y-98555329D01*
X155926283Y-98541407D01*
X155925651Y-98540225D01*
X155858995Y-98459005D01*
X155838645Y-98442304D01*
X154827696Y-97431355D01*
X154810995Y-97411005D01*
X154729775Y-97344349D01*
X154637111Y-97294819D01*
X154536565Y-97264319D01*
X154458195Y-97256600D01*
X154458187Y-97256600D01*
X154432000Y-97254021D01*
X154405813Y-97256600D01*
X151156187Y-97256600D01*
X151130000Y-97254021D01*
X151103813Y-97256600D01*
X151103805Y-97256600D01*
X151025435Y-97264319D01*
X150924889Y-97294819D01*
X150832225Y-97344349D01*
X150789621Y-97379313D01*
X150778062Y-97388800D01*
X150751005Y-97411005D01*
X150734309Y-97431349D01*
X147962659Y-100203000D01*
X147955000Y-100203000D01*
X147955000Y-93370000D01*
X148004051Y-93370000D01*
X147997157Y-93440000D01*
G36*
X148082000Y-139897512D02*
G01*
X148082000Y-139827002D01*
X148119961Y-139827002D01*
X148082000Y-139897512D01*
X148082000Y-139897512D01*
G37*
X148082000Y-139897512D02*
X148082000Y-139827002D01*
X148119961Y-139827002D01*
X148082000Y-139897512D01*
G36*
X148119961Y-139572998D02*
G01*
X148082000Y-139572998D01*
X148082000Y-139502488D01*
X148119961Y-139572998D01*
X148119961Y-139572998D01*
G37*
X148119961Y-139572998D02*
X148082000Y-139572998D01*
X148082000Y-139502488D01*
X148119961Y-139572998D01*
G36*
X154694147Y-98806488D02*
G01*
X154645329Y-98897821D01*
X154609317Y-99016538D01*
X154597157Y-99140000D01*
X154597157Y-102093551D01*
X154362843Y-101859237D01*
X154362843Y-99140000D01*
X154350683Y-99016538D01*
X154314671Y-98897821D01*
X154256190Y-98788411D01*
X154177488Y-98692512D01*
X154081589Y-98613810D01*
X153972179Y-98555329D01*
X153853462Y-98519317D01*
X153730000Y-98507157D01*
X153230000Y-98507157D01*
X153106538Y-98519317D01*
X152987821Y-98555329D01*
X152878411Y-98613810D01*
X152782512Y-98692512D01*
X152703810Y-98788411D01*
X152645329Y-98897821D01*
X152617866Y-98988357D01*
X152618072Y-98890000D01*
X152605812Y-98765518D01*
X152569502Y-98645820D01*
X152510537Y-98535506D01*
X152431185Y-98438815D01*
X152334494Y-98359463D01*
X152267026Y-98323400D01*
X154211059Y-98323400D01*
X154694147Y-98806488D01*
X154694147Y-98806488D01*
G37*
X154694147Y-98806488D02*
X154645329Y-98897821D01*
X154609317Y-99016538D01*
X154597157Y-99140000D01*
X154597157Y-102093551D01*
X154362843Y-101859237D01*
X154362843Y-99140000D01*
X154350683Y-99016538D01*
X154314671Y-98897821D01*
X154256190Y-98788411D01*
X154177488Y-98692512D01*
X154081589Y-98613810D01*
X153972179Y-98555329D01*
X153853462Y-98519317D01*
X153730000Y-98507157D01*
X153230000Y-98507157D01*
X153106538Y-98519317D01*
X152987821Y-98555329D01*
X152878411Y-98613810D01*
X152782512Y-98692512D01*
X152703810Y-98788411D01*
X152645329Y-98897821D01*
X152617866Y-98988357D01*
X152618072Y-98890000D01*
X152605812Y-98765518D01*
X152569502Y-98645820D01*
X152510537Y-98535506D01*
X152431185Y-98438815D01*
X152334494Y-98359463D01*
X152267026Y-98323400D01*
X154211059Y-98323400D01*
X154694147Y-98806488D01*
M02*
