M48
; DRILL file {KiCad (5.1.4)-1} date 28.11.2019 08:03:45
; FORMAT={-:-/ absolute / inch / decimal}
; #@! TF.CreationDate,2019-11-28T08:03:45+01:00
; #@! TF.GenerationSoftware,Kicad,Pcbnew,(5.1.4)-1
; #@! TF.FileFunction,Plated,1,2,PTH
FMAT,2
INCH
T1C0.0157
T2C0.0394
T3C0.0400
T4C0.0472
T5C0.0866
T6C0.1063
%
G90
G05
T1
X5.93Y-5.69
X5.93Y-5.735
X6.1583Y-4.5846
X6.17Y-4.88
X6.2Y-4.2
X6.22Y-4.51
X6.22Y-5.13
X6.27Y-4.61
X6.29Y-5.13
X6.3033Y-4.875
X6.325Y-4.3
X6.395Y-5.705
X6.435Y-5.745
T2
X5.95Y-4.1
X6.05Y-4.1
X6.15Y-4.1
X6.25Y-4.1
X6.35Y-4.1
X6.45Y-4.1
X5.95Y-6.05
X6.6783Y-5.528
X6.6783Y-5.6287
X6.6783Y-5.95
X6.6783Y-6.05
X5.9Y-4.2
X5.9Y-4.3
X5.9Y-4.4
X5.9Y-4.5
X5.9Y-4.6
X5.9Y-4.7
X5.9Y-4.8
X5.9Y-4.9
X5.9Y-5.0
X5.9Y-5.1
X5.9Y-5.2
X5.9Y-5.3
X5.9Y-5.4
X5.9Y-5.5
X5.9Y-5.6
X6.5Y-4.2
X6.5Y-4.3
X6.5Y-4.4
X6.5Y-4.5
X6.5Y-4.6
X6.5Y-4.7
X6.5Y-4.8
X6.5Y-4.9
X6.5Y-5.0
X6.5Y-5.1
X6.5Y-5.2
X6.5Y-5.3
X6.5Y-5.4
X6.5Y-5.5
X6.5Y-5.6
X6.7Y-4.05
X6.7Y-4.15
X6.7Y-4.25
X6.7Y-4.35
X6.7Y-4.45
X6.7Y-4.55
X6.7Y-4.65
X6.7Y-4.75
T3
X5.6008Y-4.05
X5.6008Y-4.15
X5.6008Y-4.25
X5.6008Y-4.35
X5.6008Y-4.45
X5.6008Y-4.55
X5.6008Y-4.65
X5.6008Y-4.75
T4
X5.7Y-5.29
X5.5Y-4.94
T5
X5.5408Y-4.1
X5.5408Y-4.3
X5.5408Y-4.5
X5.5408Y-4.7
T6
X5.5016Y-3.8
X5.6984Y-3.8
X5.5016Y-5.6
X5.6984Y-5.6
T0
M30
